<svg xmlns="http://www.w3.org/2000/svg">
	<!-- icomoon.io -->
	<symbol id="camera" viewBox="0 0 512 512">
		<path d="M152 304c0 57.438 46.562 104 104 104s104-46.562 104-104-46.562-104-104-104-104 46.562-104 104zm328-176h-112c-8-32-16-64-48-64h-128c-32 0-40 32-48 64h-112c-17.6 0-32 14.4-32 32v288c0 17.6 14.4 32 32 32h448c17.6 0 32-14.4 32-32v-288c0-17.6-14.4-32-32-32zm-224 318c-78.425 0-142-63.574-142-142 0-78.425 63.575-142 142-142 78.426 0 142 63.575 142 142 0 78.426-63.573 142-142 142zm224-222h-64v-32h64v32z"/>
	</symbol>
	<symbol id="pencil" viewBox="0 0 512 512">
		<path d="M432 0c44.182 0 80 35.817 80 80 0 18.01-5.955 34.629-16 48l-32 32-112-112 32-32c13.371-10.045 29.989-16 48-16zm-400 368l-32 144 144-32 296-296-112-112-296 296zm325.789-186.211l-224 224-27.578-27.578 224-224 27.578 27.578z"/>
	</symbol>
	<symbol id="eye" viewBox="0 0 512 512">
		<path d="M256 96c-111.659 0-208.441 65.021-256 160 47.559 94.979 144.341 160 256 160 111.657 0 208.439-65.021 256-160-47.558-94.979-144.343-160-256-160zm126.225 84.852c30.081 19.187 55.571 44.887 74.718 75.148-19.146 30.261-44.638 55.961-74.719 75.148-37.797 24.109-81.445 36.852-126.224 36.852-44.78 0-88.428-12.743-126.225-36.852-30.08-19.187-55.57-44.887-74.717-75.148 19.146-30.262 44.637-55.962 74.717-75.148 1.959-1.25 3.938-2.461 5.929-3.65-4.979 13.664-7.704 28.411-7.704 43.798 0 70.691 57.308 128 128 128 70.692 0 128-57.309 128-128 0-15.387-2.725-30.134-7.704-43.799 1.99 1.189 3.969 2.401 5.929 3.651zm-126.225 24.148c0 26.51-21.49 48-48 48s-48-21.49-48-48 21.49-48 48-48 48 21.49 48 48z"/>
	</symbol>
	<symbol id="1138" viewBox="0 0 512 512">
		<path d="M256 96c-111.659 0-208.441 65.021-256 160 47.559 94.979 144.341 160 256 160 111.657 0 208.439-65.021 256-160-47.558-94.979-144.343-160-256-160zm126.225 84.852c30.081 19.187 55.571 44.887 74.718 75.148-19.146 30.261-44.638 55.961-74.719 75.148-37.797 24.109-81.445 36.852-126.224 36.852-44.78 0-88.428-12.743-126.225-36.852-30.08-19.187-55.57-44.887-74.717-75.148 19.146-30.262 44.637-55.962 74.717-75.148 1.959-1.25 3.938-2.461 5.929-3.65-4.979 13.664-7.704 28.411-7.704 43.798 0 70.691 57.308 128 128 128 70.692 0 128-57.309 128-128 0-15.387-2.725-30.134-7.704-43.799 1.99 1.189 3.969 2.401 5.929 3.651zm-126.225 24.148c0 26.51-21.49 48-48 48s-48-21.49-48-48 21.49-48 48-48 48 21.49 48 48z"/>
	</symbol>
    <symbol id="codepen" viewBox="0 0 64 64">
		<path d="M185.304 240.455c-47.581 0-86.09 38.586-86.104 86.165 0.012 47.596 38.522 86.182 86.104 86.182 47.54 0 85.997-38.588 86.019-86.182 0-24.309-0.005-30.236-0.005-30.236h-30.743c0 0 0 5.947 0 30.236 -0.028 15.331-6.179 29.058-16.201 39.12 -10.049 10.043-23.753 16.218-39.07 16.218 -15.333 0-29.021-6.179-39.097-16.218 -10.025-10.063-16.175-23.79-16.197-39.12 0.021-15.316 6.172-29.041 16.197-39.104 10.077-10.043 23.764-16.202 39.097-16.221 28.282 0 111.983 0 141.405 0 47.563 0 86.076-38.319 86.092-85.914 -0.016-47.613-38.527-86.164-86.092-86.18 -47.551 0.017-86.074 38.567-86.092 86.18 0 24.181-0.021 29.986-0.021 29.986h30.726c0 0 0-5.805 0-29.986 0.027-15.314 6.267-29.043 16.315-39.121 10.04-10.024 23.744-16.203 39.069-16.203 15.314 0 29.049 6.177 39.098 16.22 10.014 10.062 16.17 23.789 16.17 39.103 0 15.349-6.156 29.06-16.18 39.102 -10.039 10.043-23.773 15.955-39.088 15.971H185.304L185.304 240.455z"/>
	</symbol>
</svg>
