<svg xmlns="http://www.w3.org/2000/svg">
	<!-- icomoon.io -->
	        
<symbol id="czytaj_wiecej" viewBox="0 0 30 30">
    <title>czytaj_wiecej_blue</title>
      <g>
        <path class="cls-1" d="M15,21.82a.34.34,0,0,1-.27-.13c0-.06-.89-1.18-3.27-1.18A18.8,18.8,0,0,0,5.73,21.8a.34.34,0,0,1-.31,0,.33.33,0,0,1-.15-.27V9.12a.35.35,0,0,1,.19-.3,15.38,15.38,0,0,1,5.85-1.35c3.1,0,3.94,1.43,4,1.49a.42.42,0,0,1,0,.16V21.5a.32.32,0,0,1-.23.31ZM5.93,9.33V21a18.08,18.08,0,0,1,5.53-1.17,5.38,5.38,0,0,1,3.21.9V9.22c-.19-.23-1-1.09-3.36-1.09A14.84,14.84,0,0,0,5.93,9.33Z"/>
        <path class="cls-1" d="M15,21.82h-.1a.32.32,0,0,1-.23-.31V9.12a.42.42,0,0,1,0-.16c0-.06.88-1.49,4-1.49a15.38,15.38,0,0,1,5.85,1.35.35.35,0,0,1,.19.3V21.5a.33.33,0,0,1-.15.27.34.34,0,0,1-.31,0,18.8,18.8,0,0,0-5.73-1.29c-2.41,0-3.26,1.16-3.27,1.18A.35.35,0,0,1,15,21.82Zm3.54-2A18.08,18.08,0,0,1,24.07,21V9.33a14.9,14.9,0,0,0-5.38-1.2c-2.32,0-3.17.85-3.36,1.09V20.75A5.38,5.38,0,0,1,18.54,19.85Z"/>
        <path class="cls-1" d="M6.77,18.07a.16.16,0,0,1-.15-.1.17.17,0,0,1,.09-.21,13.68,13.68,0,0,1,4.29-1,3.21,3.21,0,0,1,2.69,1,.16.16,0,0,1,0,.23.15.15,0,0,1-.23,0A3,3,0,0,0,11,17.12a13.69,13.69,0,0,0-4.17.94Z"/>
        <path class="cls-1" d="M6.77,12.05a.17.17,0,0,1-.15-.11.17.17,0,0,1,.09-.21,13.68,13.68,0,0,1,4.29-1,3.2,3.2,0,0,1,2.69,1,.16.16,0,0,1,0,.23.17.17,0,0,1-.23,0A3,3,0,0,0,11,11.1,14.14,14.14,0,0,0,6.83,12Z"/>
        <path class="cls-1" d="M23.09,18.07H23a13.51,13.51,0,0,0-4.17-.94,3,3,0,0,0-2.42.88.16.16,0,0,1-.23,0,.17.17,0,0,1,0-.23,3.23,3.23,0,0,1,2.69-1,13.77,13.77,0,0,1,4.3,1,.17.17,0,0,1,.09.21A.16.16,0,0,1,23.09,18.07Z"/>
        <path class="cls-1" d="M23.09,12.05,23,12a14,14,0,0,0-4.17-.93,3,3,0,0,0-2.42.88.17.17,0,0,1-.27-.19,3.22,3.22,0,0,1,2.69-1,13.77,13.77,0,0,1,4.3,1,.17.17,0,0,1,.09.21A.17.17,0,0,1,23.09,12.05Z"/>
        <path class="cls-1" d="M6.77,15.14a.18.18,0,0,1-.15-.1.17.17,0,0,1,.09-.21,13.58,13.58,0,0,1,4.29-1,3.2,3.2,0,0,1,2.69,1,.16.16,0,1,1-.26.19A3,3,0,0,0,11,14.19a13.69,13.69,0,0,0-4.17.94Z"/>
        <path class="cls-1" d="M23.09,15.14H23a13.51,13.51,0,0,0-4.17-.94,3,3,0,0,0-2.42.88.16.16,0,0,1-.23,0,.17.17,0,0,1,0-.23,3.22,3.22,0,0,1,2.69-1,13.67,13.67,0,0,1,4.3,1,.17.17,0,0,1,.09.21A.18.18,0,0,1,23.09,15.14Z"/>
        <path class="cls-1" d="M5.53,22.2l-.25-.61a20.14,20.14,0,0,1,6.18-1.41A5.07,5.07,0,0,1,15,21.34a5.07,5.07,0,0,1,3.54-1.16,20.24,20.24,0,0,1,6.18,1.4l-.25.61a20.08,20.08,0,0,0-5.93-1.35c-2.41,0-3.26,1.16-3.27,1.17a.32.32,0,0,1-.27.14h0a.32.32,0,0,1-.27-.14s-.89-1.17-3.27-1.17A20,20,0,0,0,5.53,22.2Z"/>
        <path class="cls-1" d="M24.33,22.53a18.39,18.39,0,0,0-5.8-1.36c-2.38,0-3.24,1.13-3.27,1.18a.32.32,0,0,1-.27.14h0a.32.32,0,0,1-.27-.14c0-.05-.88-1.18-3.27-1.18a18.2,18.2,0,0,0-5.78,1.36l-.26-.61a18.86,18.86,0,0,1,6-1.4A5,5,0,0,1,15,21.68a5,5,0,0,1,3.54-1.16,19,19,0,0,1,6,1.4Z"/>
      </g>
</symbol>
    
    <symbol id="activity_color" data-name="Warstwa 1" xmlns="http://www.w3.org/2000/svg" viewBox="0 0 34.02 34.02">
      <title>activity_color</title>
      <path d="M17,26.63a7.31,7.31,0,0,1-.81,0,.44.44,0,0,1-.4-.37l-.31-1.95a6.76,6.76,0,0,1-1.81-.71L12,24.72a.45.45,0,0,1-.53,0,9.41,9.41,0,0,1-1.38-1.37.45.45,0,0,1,0-.54l1.17-1.61a6.52,6.52,0,0,1-.72-1.77l-2-.35a.46.46,0,0,1-.37-.39c0-.3,0-.59,0-.89a9.61,9.61,0,0,1,.06-1.1.43.43,0,0,1,.37-.38l2-.31a6.5,6.5,0,0,1,.69-1.63L10.11,12.7a.45.45,0,0,1,0-.53,9.18,9.18,0,0,1,1.45-1.41.42.42,0,0,1,.53,0l1.63,1.17a6.64,6.64,0,0,1,1.49-.6l.37-2A.44.44,0,0,1,16,9l.11,0,.39,0h.07l.07.44.05-.44h.2A9.77,9.77,0,0,1,18.06,9a.43.43,0,0,1,.38.37l.31,2a6.71,6.71,0,0,1,1.4.56l1.72-1.18a.44.44,0,0,1,.52,0,8.15,8.15,0,0,1,1.49,1.45.44.44,0,0,1,0,.54l-1.17,1.61a6.83,6.83,0,0,1,.66,1.43l2,.37a.44.44,0,0,1,.36.37,9.87,9.87,0,0,1,.11,1.3c0,.25,0,.49,0,.74a.46.46,0,0,1-.38.4l-1.95.31a6.23,6.23,0,0,1-.59,1.63l1.18,1.71a.45.45,0,0,1,0,.52,8.85,8.85,0,0,1-1.36,1.44.44.44,0,0,1-.54,0L20.62,23.4a7,7,0,0,1-1.72.78l-.38,2a.44.44,0,0,1-.38.36A9.29,9.29,0,0,1,17,26.63Zm-.39-.89c.39,0,.78,0,1.09,0l.37-2a.45.45,0,0,1,.33-.35,5.81,5.81,0,0,0,2-.89.45.45,0,0,1,.52,0l1.55,1.13a8.39,8.39,0,0,0,.76-.82l-1.15-1.67a.44.44,0,0,1,0-.47,6.05,6.05,0,0,0,.68-1.91.44.44,0,0,1,.37-.36l1.9-.3v-.32a5.9,5.9,0,0,0-.06-.86l-2-.36a.44.44,0,0,1-.35-.32,5.58,5.58,0,0,0-.79-1.7.45.45,0,0,1,0-.51L23,12.46a7.81,7.81,0,0,0-.88-.85l-1.67,1.15a.46.46,0,0,1-.48,0,5.82,5.82,0,0,0-1.68-.68.45.45,0,0,1-.35-.36l-.3-1.93a6.08,6.08,0,0,0-.61,0h-.4l0-.44,0,.44-.19,0-.36,2a.44.44,0,0,1-.33.35,5.84,5.84,0,0,0-1.77.72.42.42,0,0,1-.49,0l-1.6-1.15a8,8,0,0,0-.83.82l1.11,1.62a.44.44,0,0,1,0,.49,6,6,0,0,0-.8,1.87.45.45,0,0,1-.36.36l-1.93.3q0,.31,0,.66c0,.15,0,.31,0,.47l1.93.34a.45.45,0,0,1,.36.35,5.87,5.87,0,0,0,.83,2,.44.44,0,0,1,0,.5L11,23a8,8,0,0,0,.78.76l1.63-1.12a.46.46,0,0,1,.49,0,5.49,5.49,0,0,0,2.06.81.44.44,0,0,1,.36.37Zm-1-14.06h0Zm1.39,9a3,3,0,0,1-.15-6H17a3,3,0,1,1,0,6Zm-.13-5.56,0,.44a2.18,2.18,0,1,0,.1,0Zm0,0h0Z" />
</symbol>

<symbol id="contact_color" data-name="Warstwa 1" xmlns="http://www.w3.org/2000/svg" viewBox="0 0 34.02 34.02">
  <title>contact_color</title>
  <g>
    <g>
      <path d="M27.36,17H14.66a.48.48,0,0,1-.49-.49V8.86a.48.48,0,0,1,.49-.49h12.7a.48.48,0,0,1,.49.49v7.6A.48.48,0,0,1,27.36,17ZM15.14,16H26.88V9.34H15.14Z"/>
      <path d="M21,14.54a.51.51,0,0,1-.31-.11l-6.3-5.2a.49.49,0,0,1-.15-.54.5.5,0,0,1,.47-.32h12.7a.49.49,0,0,1,.31.87l-6.41,5.19A.51.51,0,0,1,21,14.54ZM16,9.34,21,13.42l5-4.08Z" />
      <path d="M27.36,17H14.66a.48.48,0,0,1-.46-.31.49.49,0,0,1,.13-.54l4.43-4a.5.5,0,0,1,.7,0,.49.49,0,0,1,0,.69L15.94,16H26.08l-3.5-3.14a.49.49,0,1,1,.65-.73l4.46,4a.49.49,0,0,1,.13.54A.48.48,0,0,1,27.36,17Z" />
    </g>
    <path d="M14.22,27.16A.47.47,0,0,1,13.9,27a21.21,21.21,0,0,1-7.08-12.1.44.44,0,0,1,0-.23c0-.11.94-2.53,3-3.08a.47.47,0,0,1,.33,0,6.18,6.18,0,0,1,2.46,3.79c0,.8-1.17,1.47-1.94,1.83a9,9,0,0,0,3.42,5.37l.19-.15c.17-.13.4-.31.74-.53a.48.48,0,0,1,.31-.08,4.54,4.54,0,0,1,3.4,2.73.83.83,0,0,1-.14,1A7.07,7.07,0,0,1,14.22,27.16ZM7.81,14.93a20.77,20.77,0,0,0,6.58,11.25A6.27,6.27,0,0,0,17.8,25a3.72,3.72,0,0,0-2.39-2.07l-.54.4a1.13,1.13,0,0,1-1,.34A9.37,9.37,0,0,1,9.64,17a.5.5,0,0,1,.3-.51,4,4,0,0,0,1.68-1.1,6.05,6.05,0,0,0-1.74-2.8A4.26,4.26,0,0,0,7.81,14.93Z"/>
  </g>
</symbol>
       
<symbol id="home_color" data-name="Warstwa 1" xmlns="http://www.w3.org/2000/svg" viewBox="0 0 34.02 34.02">
  <title>home_page_color</title>
  <g>
    <path d="M27.44,19.33a.44.44,0,0,1-.32-.13L17,9.09,6.89,19.2a.44.44,0,1,1-.62-.62L16.69,8.15a.45.45,0,0,1,.63,0L27.75,18.58a.44.44,0,0,1,0,.62A.43.43,0,0,1,27.44,19.33Z"/>
    <path d="M24.52,27.51H18.87a.45.45,0,0,1-.45-.45v-4.9H15.59v4.9a.45.45,0,0,1-.44.45H9.5a.45.45,0,0,1-.45-.45V17.39a.45.45,0,0,1,.89,0v9.23h4.77v-4.9a.43.43,0,0,1,.44-.44h3.72a.44.44,0,0,1,.44.44v4.9h4.77V17.39a.44.44,0,0,1,.88,0v9.67A.44.44,0,0,1,24.52,27.51Z"/>
  </g>
</symbol>
    

<symbol id="icon_hand_%" data-name="Warstwa 1" xmlns="http://www.w3.org/2000/svg" viewBox="0 0 60 60">
  <defs>
  </defs>
  <title>icon_hand_%</title>
  <path class="cls-1" d="M27.93,52.33c-.74-.07-1.33-.12-1.71-.14-1.73-.1-5-2.33-7.18-3.81-.73-.5-1.43-1-1.63-1.06a68.7,68.7,0,0,0-8.57-.47H8.32V35l.68.2a7.65,7.65,0,0,0,4.6-.42l.08,0C21.6,32.94,26.93,36.07,30,39c2.24,2.15,4.48,1.93,6.85,1.7a18.09,18.09,0,0,1,2.75-.13A2.45,2.45,0,0,1,42.13,43c0,1.58-1.37,3.32-4.08,3.57s-7.58.57-9.07,0C27.87,46,22.92,43,22.71,42.86a.53.53,0,0,1-.17-.73.52.52,0,0,1,.72-.17c1.41.87,5.26,3.21,6.12,3.56s3.34.44,8.57,0c2-.19,3.14-1.43,3.13-2.51,0-.78-.59-1.28-1.53-1.34a17.77,17.77,0,0,0-2.59.12c-2.38.24-5.09.5-7.68-2a16,16,0,0,0-15.32-4,9,9,0,0,1-4.59.58V45.8c2,.05,7.6.19,8.45.55a18.15,18.15,0,0,1,1.81,1.16c1.82,1.24,5.21,3.55,6.65,3.63.39,0,1,.07,1.74.14,3.45.29,10.61.9,12.47-.08C42.78,50,50.67,39.31,51,38l0-.07c-.14-.58-.43-1.77-1.08-2-.48-.14-1.24.26-2.14,1.13-1.48,1.45-2.9,2.78-4.21,4a.53.53,0,0,1-.71-.78c1.3-1.18,2.71-2.51,4.19-3.94,1.23-1.2,2.26-1.65,3.16-1.39,1.24.35,1.63,2,1.82,2.72l0,.12c.4,1.6-8.93,13.23-11,14.32a12.58,12.58,0,0,1-4.93.65C33.29,52.78,30.09,52.51,27.93,52.33ZM51,38.07Z"/>
  <g>
    <path class="cls-1" d="M26.34,29.24a1.11,1.11,0,0,1-.05.34.62.62,0,0,1-.12.23.31.31,0,0,1-.16.12.35.35,0,0,1-.17,0H16.23a.33.33,0,0,1-.17,0,.33.33,0,0,1-.15-.12.62.62,0,0,1-.12-.23,1.11,1.11,0,0,1,0-.34,1.47,1.47,0,0,1,0-.32,1.18,1.18,0,0,1,.1-.25.52.52,0,0,1,.16-.14.32.32,0,0,1,.19-.05h4.2V12.92l-4,2.45a1.11,1.11,0,0,1-.38.16.27.27,0,0,1-.24,0,.39.39,0,0,1-.11-.24,2.33,2.33,0,0,1,0-.4,3.22,3.22,0,0,1,0-.33.84.84,0,0,1,.06-.24.78.78,0,0,1,.11-.18.86.86,0,0,1,.17-.15L20.55,11l.12,0a.69.69,0,0,1,.17-.05.78.78,0,0,1,.22,0h.28a2.63,2.63,0,0,1,.43,0A1.15,1.15,0,0,1,22,11a.31.31,0,0,1,.15.12.29.29,0,0,1,0,.16v17.2h3.61a.32.32,0,0,1,.19.05.46.46,0,0,1,.17.14,1.18,1.18,0,0,1,.1.25A1.47,1.47,0,0,1,26.34,29.24Z"/>
    <path class="cls-1" d="M37.09,15.72a8,8,0,0,1-.25,2,4.52,4.52,0,0,1-.74,1.56,3.27,3.27,0,0,1-1.24,1,4,4,0,0,1-1.74.36,4.25,4.25,0,0,1-1.71-.31,3,3,0,0,1-1.2-.94,4.22,4.22,0,0,1-.71-1.54,8.61,8.61,0,0,1-.23-2.14,7.58,7.58,0,0,1,.23-2,4.67,4.67,0,0,1,.72-1.56,3.33,3.33,0,0,1,1.23-1,3.87,3.87,0,0,1,1.76-.38,3.93,3.93,0,0,1,1.83.39,3.24,3.24,0,0,1,1.2,1.06,4.39,4.39,0,0,1,.65,1.56A8.76,8.76,0,0,1,37.09,15.72Zm-1.6.07a7.76,7.76,0,0,0-.13-1.52A3.71,3.71,0,0,0,35,13.13a1.88,1.88,0,0,0-.73-.7,2.49,2.49,0,0,0-2.09,0,1.85,1.85,0,0,0-.71.68A3.26,3.26,0,0,0,31,14.18a7.27,7.27,0,0,0-.13,1.48A8.67,8.67,0,0,0,31,17.42a3,3,0,0,0,.45,1.13,1.7,1.7,0,0,0,.74.6,2.91,2.91,0,0,0,1,.17,2.06,2.06,0,0,0,1.1-.26,1.84,1.84,0,0,0,.69-.72,3.45,3.45,0,0,0,.36-1.11A9,9,0,0,0,35.49,15.79ZM32.87,30.22a.62.62,0,0,1-.14.14l-.2.09-.27.05h-.37a1.25,1.25,0,0,1-.38-.05.34.34,0,0,1-.21-.15.3.3,0,0,1,0-.21.81.81,0,0,1,.11-.29l13-19.09a.47.47,0,0,1,.14-.14.75.75,0,0,1,.2-.1l.27-.05.37,0a1,1,0,0,1,.38.06.44.44,0,0,1,.22.14.3.3,0,0,1,0,.23.61.61,0,0,1-.12.28Zm15.26-5a7.62,7.62,0,0,1-.25,2,4.34,4.34,0,0,1-.74,1.56,3.34,3.34,0,0,1-1.23,1,4,4,0,0,1-1.75.36,4.23,4.23,0,0,1-1.7-.31,2.94,2.94,0,0,1-1.2-.94,4.28,4.28,0,0,1-.72-1.55,9.05,9.05,0,0,1-.23-2.14,8,8,0,0,1,.23-1.95,4.67,4.67,0,0,1,.72-1.56,3.33,3.33,0,0,1,1.23-1,4.38,4.38,0,0,1,3.59,0,3.16,3.16,0,0,1,1.2,1.06,4.4,4.4,0,0,1,.66,1.56A8.75,8.75,0,0,1,48.13,25.19Zm-1.59.08a7.82,7.82,0,0,0-.14-1.53A3.28,3.28,0,0,0,46,22.61a1.79,1.79,0,0,0-.72-.7,2.27,2.27,0,0,0-1.08-.25,2.19,2.19,0,0,0-1,.23,1.92,1.92,0,0,0-.71.68,3.4,3.4,0,0,0-.41,1.09,8.07,8.07,0,0,0-.13,1.48,7.94,7.94,0,0,0,.16,1.76A3,3,0,0,0,42.53,28a1.61,1.61,0,0,0,.74.59,2.64,2.64,0,0,0,1,.18,2.17,2.17,0,0,0,1.11-.26,1.89,1.89,0,0,0,.68-.72,3.35,3.35,0,0,0,.36-1.12A8.84,8.84,0,0,0,46.54,25.27Z"/>
  </g>
</symbol>
    
<symbol id="icon_hand_zl" data-name="Warstwa 1" xmlns="http://www.w3.org/2000/svg" viewBox="0 0 60 60">
  <defs>
  </defs>
  <title>icon_hand_zl-05</title>
  <path class="cls-1" d="M35.93,53.22c-2.78,0-6-.27-8.17-.46L26,52.63c-1.74-.1-5-2.35-7.22-3.83a18.82,18.82,0,0,0-1.65-1.07,70.5,70.5,0,0,0-8.62-.48H8V35.34l.68.2a7.6,7.6,0,0,0,4.64-.42l.08,0a17.14,17.14,0,0,1,16.42,4.28c2.25,2.16,4.51,1.94,6.89,1.71A18.29,18.29,0,0,1,39.51,41,2.45,2.45,0,0,1,42,43.35c0,1.6-1.38,3.34-4.11,3.59s-7.62.58-9.12,0c-1.11-.46-6.09-3.53-6.3-3.66a.54.54,0,0,1-.18-.73.52.52,0,0,1,.73-.17c1.42.87,5.29,3.23,6.15,3.58s3.36.44,8.63,0C39.9,45.7,41,44.45,41,43.36c0-.78-.58-1.28-1.54-1.34a16.42,16.42,0,0,0-2.59.12c-2.41.23-5.13.5-7.73-2a16.11,16.11,0,0,0-15.42-4,9.05,9.05,0,0,1-4.61.58v9.5c2.05,0,7.65.19,8.5.56a15.48,15.48,0,0,1,1.82,1.16c1.83,1.25,5.24,3.57,6.69,3.65.39,0,1,.08,1.75.14,3.46.3,10.67.91,12.55-.08,2.3-1.21,10.23-12,10.51-13.27v-.07c-.14-.58-.44-1.78-1.09-2-.48-.14-1.25.27-2.15,1.14-1.5,1.46-2.93,2.8-4.24,4a.53.53,0,1,1-.71-.78c1.3-1.18,2.72-2.52,4.21-4,1.24-1.2,2.28-1.66,3.18-1.4,1.25.36,1.64,2,1.83,2.74l0,.13c.4,1.6-9,13.3-11.07,14.4A12.75,12.75,0,0,1,35.93,53.22Zm15-14.8Z"/>
  <g>
    <path class="cls-1" d="M33.17,30.71a1.72,1.72,0,0,1,0,.34.91.91,0,0,1-.1.24.33.33,0,0,1-.15.14.38.38,0,0,1-.19.05H24.81a.61.61,0,0,1-.45-.18.8.8,0,0,1-.18-.59V30.3a1.36,1.36,0,0,1,0-.29,1.8,1.8,0,0,1,.09-.28,1.75,1.75,0,0,1,.15-.31q.09-.17.24-.39L31,19.14H24.81a.41.41,0,0,1-.34-.18,1,1,0,0,1-.13-.58,1.18,1.18,0,0,1,0-.34.75.75,0,0,1,.09-.24.4.4,0,0,1,.15-.14.41.41,0,0,1,.19,0h7.32a.69.69,0,0,1,.25,0,.58.58,0,0,1,.2.13.68.68,0,0,1,.13.24,1.18,1.18,0,0,1,0,.35v.34c0,.09,0,.19,0,.29a1.11,1.11,0,0,1-.08.3,3.26,3.26,0,0,1-.16.34c-.07.12-.15.26-.25.41L26,30H32.7a.38.38,0,0,1,.19.05.33.33,0,0,1,.15.14.91.91,0,0,1,.1.24A1.61,1.61,0,0,1,33.17,30.71Z"/>
    <path class="cls-1" d="M41.23,17.54a2.88,2.88,0,0,1,0,.32.92.92,0,0,1-.05.25.86.86,0,0,1-.11.19.79.79,0,0,1-.17.14L39,19.64V31.18a.29.29,0,0,1,0,.16.33.33,0,0,1-.14.12,1.05,1.05,0,0,1-.26.07,2.5,2.5,0,0,1-.42,0,2.46,2.46,0,0,1-.43,0,1.15,1.15,0,0,1-.27-.07.33.33,0,0,1-.14-.12.29.29,0,0,1,0-.16V20.72l-1.79,1.15a.24.24,0,0,1-.33,0,1.06,1.06,0,0,1-.12-.63,3.11,3.11,0,0,1,0-.32,1,1,0,0,1,.06-.25,1.18,1.18,0,0,1,.11-.19.79.79,0,0,1,.17-.14l1.89-1.2V11.44a.27.27,0,0,1,0-.16.44.44,0,0,1,.14-.13.81.81,0,0,1,.27-.07,4.53,4.53,0,0,1,.85,0,.74.74,0,0,1,.26.07.44.44,0,0,1,.14.13.27.27,0,0,1,0,.16V18l1.79-1.14c.14-.08.25-.08.34,0A1,1,0,0,1,41.23,17.54Z"/>
  </g>
</symbol>
    
    

<symbol id="hands" xmlns="http://www.w3.org/2000/svg" xmlns:xlink="http://www.w3.org/1999/xlink" viewBox="0 0 60 60">
    <defs>
       
        <mask id="mask" x="12.87" y="32.56" width="15.29" height="16.35" maskUnits="userSpaceOnUse">
            <rect class="cls-1" x="12.87" y="32.56" width="15.29" height="16.35" />
            <g>
                <ellipse cx="22.91" cy="43.18" rx="3.2" ry="1.92" transform="translate(-25.36 50.84) rotate(-71.07)" />
                <path d="M22.26,46.82a1.88,1.88,0,0,1-.57-.09c-1.31-.45-1.8-2.36-1.12-4.36h0A5,5,0,0,1,22,40.17a2,2,0,0,1,3.46,1.19A5,5,0,0,1,25.25,44C24.66,45.69,23.43,46.82,22.26,46.82Zm-.64-4.09c-.51,1.48-.18,2.74.43,3s1.65-.58,2.15-2.06a3.94,3.94,0,0,0,.19-2,1.14,1.14,0,0,0-.62-.92,1.14,1.14,0,0,0-1.05.34,4,4,0,0,0-1.1,1.72Z" />
            </g>
        </mask>
        <mask id="mask-2" x="13.8" y="32.86" width="9.58" height="12.73" maskUnits="userSpaceOnUse">
            <rect class="cls-1" x="13.8" y="32.86" width="9.58" height="12.73" />
            <g class="cls-2">
                <g>
                    <ellipse cx="20.26" cy="40.97" rx="3.23" ry="1.93" transform="matrix(0.32, -0.95, 0.95, 0.32, -25.06, 46.85)" />
                    <path d="M19.61,44.65a1.85,1.85,0,0,1-.57-.1c-1.32-.45-1.82-2.38-1.13-4.39a5.08,5.08,0,0,1,1.44-2.22,2.22,2.22,0,0,1,2.14-.55,2.21,2.21,0,0,1,1.35,1.75A5.43,5.43,0,0,1,21.18,44,2.52,2.52,0,0,1,19.61,44.65Zm1.31-6.24a1.41,1.41,0,0,0-.85.38A4.08,4.08,0,0,0,19,40.52h0c-.51,1.49-.18,2.77.44,3a1.17,1.17,0,0,0,1.06-.35,4.08,4.08,0,0,0,1.11-1.73,4,4,0,0,0,.18-2.05,1.14,1.14,0,0,0-.62-.92A.49.49,0,0,0,20.92,38.41Zm-2.48,1.93Z" />
                </g>
            </g>
        </mask>
        <mask id="mask-3" x="12.82" y="32.49" width="15.39" height="16.46" maskUnits="userSpaceOnUse">
            <rect class="cls-1" x="12.82" y="32.49" width="15.39" height="16.46" />
            <g>
                <ellipse cx="22.93" cy="43.18" rx="3.23" ry="1.93" transform="translate(-25.35 50.86) rotate(-71.07)" />
                <path d="M22.27,46.85a1.88,1.88,0,0,1-.57-.09c-1.32-.46-1.81-2.38-1.13-4.39h0A5.12,5.12,0,0,1,22,40.15a2.2,2.2,0,0,1,2.14-.55,2.15,2.15,0,0,1,1.34,1.75A5.07,5.07,0,0,1,25.28,44C24.69,45.71,23.45,46.85,22.27,46.85Zm-.64-4.12c-.51,1.49-.18,2.76.43,3s1.66-.59,2.17-2.08a4.08,4.08,0,0,0,.19-2,1.17,1.17,0,0,0-.63-.93,1.15,1.15,0,0,0-1.05.35,3.9,3.9,0,0,0-1.11,1.73Z" />
            </g>
        </mask>
        <mask id="mask-4" x="9.04" y="28.98" width="12.53" height="15.91" maskUnits="userSpaceOnUse">
            <rect class="cls-1" x="9.04" y="28.98" width="12.53" height="15.91" />
            <g class="cls-3">
                <g>
                    <ellipse cx="17.79" cy="39.04" rx="3.24" ry="1.94" transform="translate(-24.57 45.83) rotate(-74.6)" />
                    <path d="M17.26,42.78a2,2,0,0,1-.48-.07c-1.35-.37-2-2.27-1.4-4.33a5.12,5.12,0,0,1,1.31-2.32,2.2,2.2,0,0,1,2.11-.68c1.36.37,2,2.27,1.41,4.33A5.19,5.19,0,0,1,18.89,42,2.4,2.4,0,0,1,17.26,42.78Zm1.08-6.35a1.39,1.39,0,0,0-.88.44,4.11,4.11,0,0,0-1,1.81c-.42,1.52,0,2.78.62,3a1.15,1.15,0,0,0,1-.41,4,4,0,0,0,1-1.81c.42-1.52,0-2.78-.62-3Z" />
                </g>
            </g>
        </mask>
        <mask id="mask-5" x="13.76" y="32.79" width="9.64" height="12.81" maskUnits="userSpaceOnUse">
            <rect class="cls-1" x="13.76" y="32.79" width="9.64" height="12.81" />
            <g class="cls-4">
                <g>
                    <ellipse cx="20.26" cy="40.96" rx="3.25" ry="1.94" transform="translate(-25.05 46.84) rotate(-71.07)" />
                    <path d="M19.61,44.66a1.65,1.65,0,0,1-.58-.1c-1.33-.45-1.83-2.39-1.14-4.41a5.12,5.12,0,0,1,1.46-2.24,2.19,2.19,0,0,1,2.15-.55,2.21,2.21,0,0,1,1.36,1.76,5,5,0,0,1-.23,2.65A5.11,5.11,0,0,1,21.18,44,2.46,2.46,0,0,1,19.61,44.66Zm1.31-6.28a1.43,1.43,0,0,0-.85.39A4,4,0,0,0,19,40.51h0c-.51,1.5-.18,2.78.44,3a1.19,1.19,0,0,0,1.07-.35,4,4,0,0,0,1.11-1.74,4,4,0,0,0,.19-2.06,1.15,1.15,0,0,0-.63-.93A.46.46,0,0,0,20.92,38.38Zm-2.5,1.95h0Z" />
                </g>
            </g>
        </mask>
        <mask id="mask-6" x="12.76" y="32.42" width="15.48" height="16.55" maskUnits="userSpaceOnUse">
            <rect class="cls-1" x="12.76" y="32.42" width="15.48" height="16.55" />
            <g>
                <ellipse cx="22.93" cy="43.17" rx="3.24" ry="1.94" transform="translate(-25.34 50.85) rotate(-71.07)" />
                <path d="M22.27,46.86a1.9,1.9,0,0,1-.58-.09c-1.32-.46-1.82-2.39-1.13-4.41h0A5,5,0,0,1,22,40.13a2,2,0,0,1,3.51,1.2A5.1,5.1,0,0,1,25.3,44C24.7,45.71,23.45,46.86,22.27,46.86Zm-.65-4.14c-.51,1.5-.18,2.78.44,3s1.66-.6,2.18-2.09a4,4,0,0,0,.18-2.06,1.16,1.16,0,0,0-.62-.93,1.19,1.19,0,0,0-1.07.35,4.12,4.12,0,0,0-1.11,1.74Z" />
            </g>
        </mask>
    </defs>
    <title>icon_shake_hand</title>
    <g>
        <g>
            <path class="cls-5" d="M44.44,35a3.13,3.13,0,0,1-.94-.15c-1.45-.44-14.6-11.41-14.71-11.51-.39-.37-1.22-.14-4.33.89A4.91,4.91,0,0,1,17.94,21a.9.9,0,0,1,0-.66c.44-1.39,4-3.12,10.62-5.14.76-.21,1.9.26,3.85,1.1s4.2,1.82,5.26,1.44A51.79,51.79,0,0,0,44.27,14c1.4-.88,2.21-1.38,2.58-1.54,1-.46,3.31,1.09,3.77,1.4,1.32.91,5.62,4.25,5.33,9.07l0,.22-.15.15c-.77.76-1.42,1.37-2,1.9a19.76,19.76,0,0,0-4.57,5.64C47.61,33.66,46.07,35,44.44,35ZM28.33,22a1.64,1.64,0,0,1,1.23.48c.72.67,13.09,10.82,14.28,11.26.87.27,2.28.2,4.41-3.48A21,21,0,0,1,53,24.41c.52-.49,1.11-1.05,1.8-1.73.08-2.83-1.67-5.1-3.17-6.51a9.65,9.65,0,0,0-4.4-2.64c-.27.13-1.25.74-2.39,1.45A53.53,53.53,0,0,1,38,18.84c-1.48.52-3.82-.49-6.08-1.47a10.72,10.72,0,0,0-3.1-1.06C20.2,19,19.14,20.42,19,20.68v0A3.57,3.57,0,0,0,21,23a3.7,3.7,0,0,0,3.11.15A16.68,16.68,0,0,1,28.33,22ZM19,20.72Z" />
            <path class="cls-5" d="M12,35a.57.57,0,0,1-.33-.11c-2.27-1.66-7.52-5.71-7.32-7.38.16-1.32,5-11.25,7.65-11.25,2.18,0,5.49,1.7,5.63,1.77a.57.57,0,0,1-.51,1S13.91,17.39,12,17.39c-1.46,0-6.32,8.53-6.53,10.25,0,.79,3.56,3.92,6.86,6.34A.57.57,0,0,1,12,35Z" />
            <path class="cls-5" d="M42.91,40.09a6,6,0,0,1-.72,0L42,40,41.92,40c-4.85-3.46-12-9.81-12-9.88a.56.56,0,0,1,0-.79.57.57,0,0,1,.79-.05c.07.07,7,6.27,11.81,9.71a2.25,2.25,0,0,0,1.83-.4c.44-.51.19-1.48.09-1.9,0-.13-.05-.22-.06-.28a.57.57,0,0,1,.49-.63.58.58,0,0,1,.63.49.5.5,0,0,0,0,.14,3.22,3.22,0,0,1-.33,2.92A2.82,2.82,0,0,1,42.91,40.09Z" />
            <path class="cls-5" d="M37.54,43.3l-9.91-9.14a.57.57,0,0,1,.77-.83L38,42.16c2.94-.14,3-.36,3.51-2,.07-.25.15-.52.25-.81a.56.56,0,0,1,.7-.37.57.57,0,0,1,.37.71c-.1.29-.17.55-.24.79-.67,2.23-1.12,2.68-4.78,2.84Z" />
            <path class="cls-5" d="M29.77,47.6a5.65,5.65,0,0,1-3.48-1.47.56.56,0,0,1,.76-.82h0s2,1.82,3.89.88c.61-.3,1-.63,1-.92s-.25-.67-.5-.92c-.91-.91-6-6.12-6.06-6.18a.56.56,0,0,1,0-.79.56.56,0,0,1,.8,0c.05,0,5.14,5.26,6,6.16a2.23,2.23,0,0,1,.82,1.9c-.11.69-.65,1.26-1.64,1.75A3.62,3.62,0,0,1,29.77,47.6Z" />
            <path class="cls-5" d="M34.8,46a6,6,0,0,1-2.65-.72.56.56,0,1,1,.56-1,4.06,4.06,0,0,0,3,.39,2.8,2.8,0,0,0,1.47-2.06.58.58,0,0,1,.69-.41.57.57,0,0,1,.4.69,3.85,3.85,0,0,1-2.13,2.82A3.43,3.43,0,0,1,34.8,46Z" />
            <g class="cls-6">
                <path class="cls-5" d="M14.65,41.18a1.88,1.88,0,0,1-.57-.09,2.23,2.23,0,0,1-1.37-1.77A5.53,5.53,0,0,1,14.4,34.4a2.19,2.19,0,0,1,2.16-.56c1.34.46,1.84,2.41,1.14,4.44C17.1,40,15.84,41.18,14.65,41.18ZM16,34.87a1.45,1.45,0,0,0-.87.39A4.11,4.11,0,0,0,14,37h0a4.21,4.21,0,0,0-.19,2.07,1.19,1.19,0,0,0,.63.94c.62.21,1.68-.6,2.2-2.1s.18-2.8-.44-3A.52.52,0,0,0,16,34.87Zm-2.52,2Z" />
            </g>
            <g class="cls-7">
                <path class="cls-5" d="M17.23,42.78a1.84,1.84,0,0,1-.47-.07c-1.36-.37-2-2.29-1.41-4.36A4.94,4.94,0,0,1,16.67,36a2.19,2.19,0,0,1,2.12-.69c1.36.37,2,2.29,1.41,4.36A5,5,0,0,1,18.88,42,2.41,2.41,0,0,1,17.23,42.78Zm1.09-6.39a1.41,1.41,0,0,0-.88.44,4.06,4.06,0,0,0-1,1.82c-.42,1.53,0,2.8.63,3a1.18,1.18,0,0,0,1.05-.41,4.12,4.12,0,0,0,1-1.82c.42-1.54,0-2.8-.63-3Z" />
            </g>
            <g class="cls-8">
                <path class="cls-5" d="M19.59,44.66a1.65,1.65,0,0,1-.58-.1c-1.34-.46-1.84-2.41-1.15-4.44a5.17,5.17,0,0,1,1.47-2.25,2.21,2.21,0,0,1,2.16-.55,2.22,2.22,0,0,1,1.37,1.77,5.09,5.09,0,0,1-.23,2.67A5,5,0,0,1,21.17,44,2.5,2.5,0,0,1,19.59,44.66Zm1.32-6.31a1.37,1.37,0,0,0-.86.39,4.11,4.11,0,0,0-1.12,1.75h0c-.52,1.5-.18,2.79.44,3a1.15,1.15,0,0,0,1.07-.35,4,4,0,0,0,1.13-1.75,4.07,4.07,0,0,0,.18-2.07,1.15,1.15,0,0,0-.63-.94A.66.66,0,0,0,20.91,38.35ZM18.4,40.3Z" />
            </g>
            <path class="cls-5" d="M22.24,46.86a1.88,1.88,0,0,1-.57-.09c-1.34-.46-1.84-2.41-1.14-4.44h0A5.07,5.07,0,0,1,22,40.08a2.22,2.22,0,0,1,2.16-.56,2.23,2.23,0,0,1,1.37,1.77A5.09,5.09,0,0,1,25.29,44C24.69,45.71,23.43,46.86,22.24,46.86Zm-.65-4.17c-.51,1.51-.18,2.8.44,3s1.68-.6,2.2-2.1a4.21,4.21,0,0,0,.19-2.07,1.19,1.19,0,0,0-.63-.94,1.2,1.2,0,0,0-1.08.35,4.11,4.11,0,0,0-1.12,1.75Z" />
        </g>
    </g>
</symbol>


<symbol id="news_color" data-name="Warstwa 1" xmlns="http://www.w3.org/2000/svg" viewBox="0 0 34.02 34.02">
  <title>news_color</title>
  <g>
    <path d="M24.3,25h-15a.44.44,0,0,1-.44-.44V9.5a.45.45,0,0,1,.44-.45h15a.45.45,0,0,1,.44.45v15A.44.44,0,0,1,24.3,25ZM9.72,24.08H23.85V9.94H9.72Z" />
    <path d="M16.12,17.54H11.53a.45.45,0,0,1-.45-.45V12.5a.45.45,0,0,1,.45-.44h4.59a.44.44,0,0,1,.44.44v4.59A.45.45,0,0,1,16.12,17.54ZM12,16.65h3.7V12.94H12Z" />
    <path d="M21.78,12.94H17.91a.43.43,0,0,1-.44-.44.44.44,0,0,1,.44-.44h3.87a.44.44,0,0,1,.44.44A.44.44,0,0,1,21.78,12.94Z" />
    <path d="M21.78,15.24H17.91a.45.45,0,0,1,0-.89h3.87a.45.45,0,0,1,0,.89Z" />
    <path d="M21.78,17.54H17.91a.45.45,0,0,1,0-.89h3.87a.45.45,0,0,1,0,.89Z" />
    <path d="M21.78,19.83H11.53a.45.45,0,1,1,0-.89H21.78a.45.45,0,0,1,0,.89Z" />
    <path d="M21.78,22.13H11.53a.45.45,0,1,1,0-.89H21.78a.45.45,0,0,1,0,.89Z" />
  </g>
</symbol>
    
    

<symbol id="support_color" data-name="Warstwa 1" xmlns="http://www.w3.org/2000/svg" viewBox="0 0 34.02 34.02">
  <title>support_color</title>
  <g>
    <path d="M15,26.73a5.44,5.44,0,0,1-2.17-.3c-.89-.47-4.92-5.38-4.7-6.26.1-.39.29-1.19,1-1.39s1.37.44,1.59.65c.74.72,1.33,1.26,1.73,1.62a.49.49,0,0,1,.16.42,1.47,1.47,0,0,1,.94-.37,6.58,6.58,0,0,1,1.18,0,2.87,2.87,0,0,0,2.61-.62,7.33,7.33,0,0,1,7-1.84,3.12,3.12,0,0,0,1.8.19.55.55,0,0,1,.45.08.51.51,0,0,1,.2.41v4.39a.5.5,0,0,1-.5.51,33.66,33.66,0,0,0-3.46.18c-.08,0-.3.2-.6.41a8.54,8.54,0,0,1-3.13,1.62l-.69.06C17.2,26.64,16,26.73,15,26.73ZM9.11,20.31c.35.86,3.39,4.81,4.16,5.21s3.82.1,5,0l.73-.06A10.07,10.07,0,0,0,21.6,24a6.85,6.85,0,0,1,.8-.5,17.38,17.38,0,0,1,3.32-.25V20a4,4,0,0,1-1.73-.3,6.31,6.31,0,0,0-6,1.61,3.85,3.85,0,0,1-3.42.9,6,6,0,0,0-1-.05c-.23,0-.35.1-.36.26s.32.68,1,.74a11.61,11.61,0,0,0,3.41,0c.3-.12,1.69-1,2.49-1.45a.5.5,0,0,1,.7.16.52.52,0,0,1-.16.71c-.36.22-2.18,1.34-2.64,1.53a12.53,12.53,0,0,1-3.89,0,1.92,1.92,0,0,1-2-1.77,1.33,1.33,0,0,1,.1-.48.5.5,0,0,1-.57-.08c-.41-.37-1-.92-1.75-1.65-.42-.4-.6-.4-.6-.4S9.22,19.88,9.11,20.31Zm0,.05Z" />
    <path d="M15.9,19.84a.54.54,0,0,1-.28-.08c-.24-.16-5.83-3.85-6.06-7.8a2.33,2.33,0,0,1,0-.29,3.31,3.31,0,0,1,.09-.77A3.39,3.39,0,0,1,13,8.24,3.59,3.59,0,0,1,15.14,9a8.15,8.15,0,0,1,.72.62c.28-.28.6-.52.74-.64a3.45,3.45,0,0,1,2.17-.78h0a3.4,3.4,0,0,1,3.33,2.64h0a3.31,3.31,0,0,1,.09.77c0,.11,0,.21,0,.31-.21,3.94-5.78,7.66-6,7.82A.6.6,0,0,1,15.9,19.84ZM13,9.26h0a2.38,2.38,0,0,0-2.33,1.87,2.35,2.35,0,0,0-.06.54,1.7,1.7,0,0,0,0,.22c.18,3,4.2,6,5.31,6.82,1.11-.8,5.12-3.86,5.28-6.84,0-.09,0-.16,0-.23a2,2,0,0,0-.07-.55h0a2.38,2.38,0,0,0-2.33-1.85h0a2.5,2.5,0,0,0-1.53.56,12.34,12.34,0,0,0-.92.85.53.53,0,0,1-.45.28.49.49,0,0,1-.45-.27,11.41,11.41,0,0,0-.91-.83A2.43,2.43,0,0,0,13,9.26Z" />
  </g>
</symbol>
    
    
<symbol id="about_us" xmlns="http://www.w3.org/2000/svg" viewBox="0 0 34.02 34.02">
  <title>about_us</title>
  <g>
    <path d="M24.37,24.5h-15a.47.47,0,0,1-.45-.35,5,5,0,0,1,.57-3.22c.49-.92,1.64-1.13,2.75-1.34,1.35-.25,2-.44,2-1.07a2,2,0,0,0-.5-1.38c-.47-.67-1.06-1.5-1.06-4A4.28,4.28,0,0,1,13.84,10a4.54,4.54,0,0,1,6.06,0,4.28,4.28,0,0,1,1.18,3.19c0,2.49-.59,3.32-1.07,4a2,2,0,0,0-.49,1.38c0,.63.63.82,2,1.07,1.11.21,2.26.42,2.75,1.34a5,5,0,0,1,.57,3.22A.47.47,0,0,1,24.37,24.5ZM9.78,23.58H24a4.39,4.39,0,0,0-.52-2.22c-.28-.52-1.21-.7-2.11-.87-1.22-.22-2.73-.51-2.73-2a3,3,0,0,1,.66-1.92c.42-.59.9-1.26.9-3.45a3.39,3.39,0,0,0-.91-2.53,3.62,3.62,0,0,0-2.37-.9,3.67,3.67,0,0,0-2.4.91,3.36,3.36,0,0,0-.9,2.52c0,2.19.48,2.86.9,3.45a3,3,0,0,1,.66,1.92c0,1.46-1.51,1.75-2.73,2-.9.17-1.83.35-2.11.87A4.39,4.39,0,0,0,9.78,23.58Z" />
    <path d="M8.54,22.17H6.88a.46.46,0,0,1-.45-.36,3.84,3.84,0,0,1,.45-2.55c.4-.75,1.35-.92,2.18-1.08,1.07-.2,1.44-.34,1.44-.72a1.42,1.42,0,0,0-.36-1,4.57,4.57,0,0,1-.84-3.13,3.4,3.4,0,0,1,.94-2.53,3.62,3.62,0,0,1,2.42-.92.46.46,0,1,1,0,.92,2.66,2.66,0,0,0-1.75.67,2.5,2.5,0,0,0-.66,1.86,3.73,3.73,0,0,0,.67,2.6,2.31,2.31,0,0,1,.53,1.53c0,1.22-1.21,1.44-2.19,1.63-.66.12-1.35.25-1.54.61a3.28,3.28,0,0,0-.4,1.55H8.54a.46.46,0,0,1,.46.46A.47.47,0,0,1,8.54,22.17Z" />
    <path d="M27.14,22.17H25.48a.46.46,0,0,1-.46-.46.45.45,0,0,1,.46-.46h1.24a3.13,3.13,0,0,0-.39-1.55c-.2-.36-.88-.49-1.55-.61-1-.19-2.19-.41-2.19-1.63a2.31,2.31,0,0,1,.53-1.53,3.68,3.68,0,0,0,.67-2.6,2.54,2.54,0,0,0-.65-1.86,2.73,2.73,0,0,0-1.76-.67.46.46,0,1,1,0-.92,3.62,3.62,0,0,1,2.41.92,3.37,3.37,0,0,1,.95,2.53,4.57,4.57,0,0,1-.84,3.13,1.43,1.43,0,0,0-.37,1c0,.38.38.52,1.44.72.84.16,1.79.33,2.19,1.08a3.91,3.91,0,0,1,.45,2.55A.47.47,0,0,1,27.14,22.17Z" />
  </g>
</symbol>
    

    
    
    
    

    
<symbol id="ball" xmlns="http://www.w3.org/2000/svg" viewBox="0 0 41.36 39.79"><defs></defs><title>pilka</title><g id="ball" data-name="Warstwa 1"><path class="cls-1" d="M20.68,29.85A10.17,10.17,0,1,1,30.85,19.68,10.18,10.18,0,0,1,20.68,29.85Zm0-19.33a9.17,9.17,0,1,0,9.17,9.16A9.17,9.17,0,0,0,20.68,10.52Z"/><path class="cls-1" d="M22.93,20.6a3.93,3.93,0,1,1,3.92-3.93A3.93,3.93,0,0,1,22.93,20.6Zm0-6.85a2.93,2.93,0,1,0,2.92,2.92A2.93,2.93,0,0,0,22.93,13.75Z"/><path class="cls-1" d="M26,15.27a.51.51,0,0,1-.45-.29.5.5,0,0,1,.24-.67c.06,0,1.48-.68,2.46-1a.5.5,0,1,1,.29,1,22.78,22.78,0,0,0-2.32.93A.54.54,0,0,1,26,15.27Z"/><path class="cls-1" d="M23.68,13.83a.51.51,0,0,1-.5-.48L23,10.47a.5.5,0,0,1,1-.05l.14,2.89a.5.5,0,0,1-.47.52Z"/><path class="cls-1" d="M12.94,25.93a.51.51,0,0,1-.42-.23.49.49,0,0,1,.15-.69,61.48,61.48,0,0,0,7.5-6.22.5.5,0,0,1,.74.67,61.61,61.61,0,0,1-7.7,6.39A.53.53,0,0,1,12.94,25.93Z"/><path class="cls-1" d="M20.17,15.14a.4.4,0,0,1-.15,0,12.88,12.88,0,0,1-1.28-.51c-1.39-.59-3.3-1.41-4.84-1.25a.51.51,0,0,1-.55-.45.5.5,0,0,1,.45-.55c1.79-.19,3.84.7,5.34,1.34.46.2.87.37,1.19.47a.5.5,0,0,1-.16,1Z"/><path class="cls-1" d="M23.11,29.54a.5.5,0,0,1-.5-.5c0-.27,0-.61,0-1a41.09,41.09,0,0,1,.45-8,.49.49,0,0,1,.58-.4.5.5,0,0,1,.4.58A40.33,40.33,0,0,0,23.6,28c0,.4,0,.74,0,1A.5.5,0,0,1,23.11,29.54Z"/><path class="cls-1" d="M30.22,21.74a.49.49,0,0,1-.42-.23,9.22,9.22,0,0,0-3.64-3.07l.44-.9-.24.44.28-.42a10.25,10.25,0,0,1,4,3.41.5.5,0,0,1-.15.69A.45.45,0,0,1,30.22,21.74Z"/></g></symbol>
    
    
<symbol id="snow" xmlns="http://www.w3.org/2000/svg" viewBox="0 0 41.36 39.79"><defs></defs><title>sniezka</title><g id="snow" data-name="Warstwa 3"><path class="cls-1" d="M20.68,23.5a.43.43,0,0,1-.25-.07L17.8,21.92a.52.52,0,0,1-.25-.44v-3A.52.52,0,0,1,17.8,18l2.63-1.51a.5.5,0,0,1,.5,0L23.55,18a.52.52,0,0,1,.25.44v3a.52.52,0,0,1-.25.44l-2.62,1.51A.47.47,0,0,1,20.68,23.5Zm-2.13-2.3,2.13,1.22L22.8,21.2V18.75l-2.12-1.23-2.13,1.23Zm4.75.28h0Z"/><path class="cls-1" d="M20.68,14.16a.5.5,0,0,1-.29-.09L17.9,12.31a.5.5,0,0,1,.57-.81l2.21,1.55,2.2-1.55a.5.5,0,1,1,.58.81L21,14.07A.47.47,0,0,1,20.68,14.16Z"/><path class="cls-1" d="M12.58,18.16a.5.5,0,0,1-.47-.31.5.5,0,0,1,.28-.65l2.49-1-.14-2.69a.5.5,0,0,1,.47-.53.47.47,0,0,1,.53.47l.15,3a.51.51,0,0,1-.3.49l-2.82,1.17A.63.63,0,0,1,12.58,18.16Z"/><path class="cls-1" d="M18.17,18.75a.53.53,0,0,1-.27-.08l-6.06-3.83a.49.49,0,0,1-.16-.69.51.51,0,0,1,.69-.16l6.07,3.84a.5.5,0,0,1,.15.69A.51.51,0,0,1,18.17,18.75Z"/><path class="cls-1" d="M15,26.66h0a.5.5,0,0,1-.45-.54l.25-2.69-2.44-1.13a.52.52,0,0,1-.25-.67.5.5,0,0,1,.67-.24l2.76,1.29a.48.48,0,0,1,.29.5l-.28,3A.51.51,0,0,1,15,26.66Z"/><path class="cls-1" d="M11.86,25.56a.52.52,0,0,1-.44-.25.52.52,0,0,1,.19-.69l6.22-3.57a.5.5,0,0,1,.5.87l-6.22,3.57A.47.47,0,0,1,11.86,25.56Z"/><path class="cls-1" d="M23.17,28.54a.52.52,0,0,1-.29-.09l-2.2-1.56-2.21,1.56a.5.5,0,0,1-.57-.82l2.49-1.76a.51.51,0,0,1,.58,0l2.49,1.76a.51.51,0,0,1,.12.7A.52.52,0,0,1,23.17,28.54Z"/><path class="cls-1" d="M20.68,30.67a.5.5,0,0,1-.5-.5V23a.5.5,0,0,1,.5-.5.5.5,0,0,1,.5.5v7.17A.5.5,0,0,1,20.68,30.67Z"/><path class="cls-1" d="M28.91,18.59a.52.52,0,0,1-.21,0l-2.77-1.28a.51.51,0,0,1-.29-.5l.27-3a.54.54,0,0,1,.55-.45.49.49,0,0,1,.45.54l-.24,2.69,2.45,1.13a.5.5,0,0,1-.21.95Z"/><path class="cls-1" d="M23.3,19a.51.51,0,0,1-.44-.25.52.52,0,0,1,.19-.69l6.21-3.59a.5.5,0,0,1,.68.19.49.49,0,0,1-.18.68l-6.21,3.59A.59.59,0,0,1,23.3,19Z"/><path class="cls-1" d="M26.24,26.78a.5.5,0,0,1-.5-.48l-.16-3a.49.49,0,0,1,.3-.49L28.7,21.6a.5.5,0,1,1,.38.92l-2.49,1,.14,2.69a.5.5,0,0,1-.47.53Z"/><path class="cls-1" d="M29.37,25.8a.54.54,0,0,1-.27-.07L23,21.91a.5.5,0,0,1-.15-.69.48.48,0,0,1,.68-.16l6.08,3.82a.5.5,0,0,1,.15.69A.48.48,0,0,1,29.37,25.8Z"/><path class="cls-1" d="M20.68,17.44a.5.5,0,0,1-.5-.5V9.77a.5.5,0,0,1,.5-.5.5.5,0,0,1,.5.5v7.17A.5.5,0,0,1,20.68,17.44Z"/></g></symbol>
    
    
    
    
    
    
<symbol id="sun" xmlns="http://www.w3.org/2000/svg" viewBox="0 0 41.36 39.79"><defs></defs><title>slonce</title><g id="sun" data-name="Warstwa 3"><path class="cls-1" d="M23.85,31l-1-1.87c-.49-.92-1.48-2.2-2.16-2.2S19,28.2,18.52,29.12l-1,1.87.06-2.12c0-1-.19-2.65-.77-3s-2.28.4-3,.82L12,27.83,13.15,26c.55-.89,1.16-2.39.83-3s-2.16-.8-3-.77l-2.13.07,1.88-1c.91-.49,2.2-1.48,2.2-2.16s-1.49-1.78-2.2-2.16L8.86,16l2.13.07c1,0,2.65-.19,3-.77s-.4-2.28-.83-3L12,10.52l1.81,1.12c.88.54,2.39,1.16,3,.82s.8-2.17.77-3l-.07-2.13,1,1.87c.49.92,1.49,2.21,2.16,2.21s1.78-1.49,2.16-2.21l1-1.87-.07,2.13c0,1,.19,2.65.78,3s2.28-.39,3-.82l1.81-1.12-1.12,1.81c-.55.88-1.17,2.38-.83,3s2.17.8,3,.77L32.5,16l-1.87,1c-.92.49-2.2,1.49-2.2,2.16s1.28,1.67,2.2,2.16l1.87,1-2.12-.07c-1,0-2.65.19-3,.77s.28,2.09.82,3l1.12,1.8-1.8-1.12c-.88-.54-2.39-1.16-3-.82s-.8,1.95-.77,3Zm-7.48-6.2a1.86,1.86,0,0,1,.94.22,3.24,3.24,0,0,1,1.18,2.35,3.2,3.2,0,0,1,2.19-1.44,3.24,3.24,0,0,1,2.2,1.44A3.19,3.19,0,0,1,24.05,25a3.21,3.21,0,0,1,2.63.16,3.25,3.25,0,0,1-.16-2.63,3.23,3.23,0,0,1,2.35-1.17,3.24,3.24,0,0,1-1.44-2.2A3.2,3.2,0,0,1,28.87,17a3.27,3.27,0,0,1-2.35-1.18,3.25,3.25,0,0,1,.16-2.63,3.19,3.19,0,0,1-2.62.16A3.2,3.2,0,0,1,22.88,11a3.23,3.23,0,0,1-2.2,1.45A3.21,3.21,0,0,1,18.49,11a3.24,3.24,0,0,1-1.18,2.35,3.19,3.19,0,0,1-2.62-.16,3.25,3.25,0,0,1,.15,2.63A3.24,3.24,0,0,1,12.49,17a3.21,3.21,0,0,1,1.45,2.19,3.25,3.25,0,0,1-1.45,2.2,3.19,3.19,0,0,1,2.35,1.17,3.25,3.25,0,0,1-.15,2.63A4.67,4.67,0,0,1,16.37,24.79Zm4.31-.39a5.23,5.23,0,1,1,5.23-5.23A5.23,5.23,0,0,1,20.68,24.4Zm0-9.45a4.23,4.23,0,1,0,4.23,4.22A4.22,4.22,0,0,0,20.68,15Z"/></g></symbol>
    

<svg id="heart" xmlns="http://www.w3.org/2000/svg" viewBox="0 0 41.36 39.79"><defs><style>.cls-1{fill:#ffb400;}</style></defs><title>serce</title><g id="heart" data-name="Warstwa 3"><path class="cls-1" d="M20.6,29.4a.53.53,0,0,1-.27-.08c-.35-.23-8.45-5.72-8.73-11.44,0-.13,0-.28,0-.43a5.59,5.59,0,0,1,.13-1.07,4.78,4.78,0,0,1,4.68-3.69h0a4.81,4.81,0,0,1,3.07,1.14h0a12.52,12.52,0,0,1,1.21,1.1A12.61,12.61,0,0,1,22,13.83,4.63,4.63,0,0,1,25,12.76a4.79,4.79,0,0,1,4.66,3.76h0a5.68,5.68,0,0,1,.11,1.09c0,.14,0,.29,0,.43-.37,5.71-8.57,11.06-8.91,11.28A.48.48,0,0,1,20.6,29.4ZM16.39,13.69a3.79,3.79,0,0,0-3.7,2.92,4.13,4.13,0,0,0-.11.85c0,.12,0,.24,0,.35.22,4.69,6.6,9.48,8,10.49,1.42-1,7.88-5.68,8.18-10.34,0-.13,0-.25,0-.36a4.12,4.12,0,0,0-.09-.86h0a3.81,3.81,0,0,0-6.13-2.12,15.87,15.87,0,0,0-1.42,1.29.51.51,0,0,1-.46.29h0a.5.5,0,0,1-.45-.29c-.19-.23-1.15-1.12-1.39-1.31a3.9,3.9,0,0,0-2.45-.91Z"/></g></svg>


    
    

</svg>
