<svg xmlns="http://www.w3.org/2000/svg">
	<!-- icomoon.io -->
	<symbol id="camera" viewBox="0 0 512 512">
		<path d="M152 304c0 57.438 46.562 104 104 104s104-46.562 104-104-46.562-104-104-104-104 46.562-104 104zm328-176h-112c-8-32-16-64-48-64h-128c-32 0-40 32-48 64h-112c-17.6 0-32 14.4-32 32v288c0 17.6 14.4 32 32 32h448c17.6 0 32-14.4 32-32v-288c0-17.6-14.4-32-32-32zm-224 318c-78.425 0-142-63.574-142-142 0-78.425 63.575-142 142-142 78.426 0 142 63.575 142 142 0 78.426-63.573 142-142 142zm224-222h-64v-32h64v32z"/>
	</symbol>
	<symbol id="pencil" viewBox="0 0 512 512">
		<path d="M432 0c44.182 0 80 35.817 80 80 0 18.01-5.955 34.629-16 48l-32 32-112-112 32-32c13.371-10.045 29.989-16 48-16zm-400 368l-32 144 144-32 296-296-112-112-296 296zm325.789-186.211l-224 224-27.578-27.578 224-224 27.578 27.578z"/>
	</symbol>
	<symbol id="eye" viewBox="0 0 512 512">
		<path d="M256 96c-111.659 0-208.441 65.021-256 160 47.559 94.979 144.341 160 256 160 111.657 0 208.439-65.021 256-160-47.558-94.979-144.343-160-256-160zm126.225 84.852c30.081 19.187 55.571 44.887 74.718 75.148-19.146 30.261-44.638 55.961-74.719 75.148-37.797 24.109-81.445 36.852-126.224 36.852-44.78 0-88.428-12.743-126.225-36.852-30.08-19.187-55.57-44.887-74.717-75.148 19.146-30.262 44.637-55.962 74.717-75.148 1.959-1.25 3.938-2.461 5.929-3.65-4.979 13.664-7.704 28.411-7.704 43.798 0 70.691 57.308 128 128 128 70.692 0 128-57.309 128-128 0-15.387-2.725-30.134-7.704-43.799 1.99 1.189 3.969 2.401 5.929 3.651zm-126.225 24.148c0 26.51-21.49 48-48 48s-48-21.49-48-48 21.49-48 48-48 48 21.49 48 48z"/>
	</symbol>
	<symbol id="1138" viewBox="0 0 512 512">
		<path d="M256 96c-111.659 0-208.441 65.021-256 160 47.559 94.979 144.341 160 256 160 111.657 0 208.439-65.021 256-160-47.558-94.979-144.343-160-256-160zm126.225 84.852c30.081 19.187 55.571 44.887 74.718 75.148-19.146 30.261-44.638 55.961-74.719 75.148-37.797 24.109-81.445 36.852-126.224 36.852-44.78 0-88.428-12.743-126.225-36.852-30.08-19.187-55.57-44.887-74.717-75.148 19.146-30.262 44.637-55.962 74.717-75.148 1.959-1.25 3.938-2.461 5.929-3.65-4.979 13.664-7.704 28.411-7.704 43.798 0 70.691 57.308 128 128 128 70.692 0 128-57.309 128-128 0-15.387-2.725-30.134-7.704-43.799 1.99 1.189 3.969 2.401 5.929 3.651zm-126.225 24.148c0 26.51-21.49 48-48 48s-48-21.49-48-48 21.49-48 48-48 48 21.49 48 48z"/>
	</symbol>
        
    <symbol id="Warstwa_1" viewBox="0 0 30 30">
    <title>czytaj_wiecej_blue</title>
      <g>
        <path class="cls-1" d="M15,21.82a.34.34,0,0,1-.27-.13c0-.06-.89-1.18-3.27-1.18A18.8,18.8,0,0,0,5.73,21.8a.34.34,0,0,1-.31,0,.33.33,0,0,1-.15-.27V9.12a.35.35,0,0,1,.19-.3,15.38,15.38,0,0,1,5.85-1.35c3.1,0,3.94,1.43,4,1.49a.42.42,0,0,1,0,.16V21.5a.32.32,0,0,1-.23.31ZM5.93,9.33V21a18.08,18.08,0,0,1,5.53-1.17,5.38,5.38,0,0,1,3.21.9V9.22c-.19-.23-1-1.09-3.36-1.09A14.84,14.84,0,0,0,5.93,9.33Z"/>
        <path class="cls-1" d="M15,21.82h-.1a.32.32,0,0,1-.23-.31V9.12a.42.42,0,0,1,0-.16c0-.06.88-1.49,4-1.49a15.38,15.38,0,0,1,5.85,1.35.35.35,0,0,1,.19.3V21.5a.33.33,0,0,1-.15.27.34.34,0,0,1-.31,0,18.8,18.8,0,0,0-5.73-1.29c-2.41,0-3.26,1.16-3.27,1.18A.35.35,0,0,1,15,21.82Zm3.54-2A18.08,18.08,0,0,1,24.07,21V9.33a14.9,14.9,0,0,0-5.38-1.2c-2.32,0-3.17.85-3.36,1.09V20.75A5.38,5.38,0,0,1,18.54,19.85Z"/>
        <path class="cls-1" d="M6.77,18.07a.16.16,0,0,1-.15-.1.17.17,0,0,1,.09-.21,13.68,13.68,0,0,1,4.29-1,3.21,3.21,0,0,1,2.69,1,.16.16,0,0,1,0,.23.15.15,0,0,1-.23,0A3,3,0,0,0,11,17.12a13.69,13.69,0,0,0-4.17.94Z"/>
        <path class="cls-1" d="M6.77,12.05a.17.17,0,0,1-.15-.11.17.17,0,0,1,.09-.21,13.68,13.68,0,0,1,4.29-1,3.2,3.2,0,0,1,2.69,1,.16.16,0,0,1,0,.23.17.17,0,0,1-.23,0A3,3,0,0,0,11,11.1,14.14,14.14,0,0,0,6.83,12Z"/>
        <path class="cls-1" d="M23.09,18.07H23a13.51,13.51,0,0,0-4.17-.94,3,3,0,0,0-2.42.88.16.16,0,0,1-.23,0,.17.17,0,0,1,0-.23,3.23,3.23,0,0,1,2.69-1,13.77,13.77,0,0,1,4.3,1,.17.17,0,0,1,.09.21A.16.16,0,0,1,23.09,18.07Z"/>
        <path class="cls-1" d="M23.09,12.05,23,12a14,14,0,0,0-4.17-.93,3,3,0,0,0-2.42.88.17.17,0,0,1-.27-.19,3.22,3.22,0,0,1,2.69-1,13.77,13.77,0,0,1,4.3,1,.17.17,0,0,1,.09.21A.17.17,0,0,1,23.09,12.05Z"/>
        <path class="cls-1" d="M6.77,15.14a.18.18,0,0,1-.15-.1.17.17,0,0,1,.09-.21,13.58,13.58,0,0,1,4.29-1,3.2,3.2,0,0,1,2.69,1,.16.16,0,1,1-.26.19A3,3,0,0,0,11,14.19a13.69,13.69,0,0,0-4.17.94Z"/>
        <path class="cls-1" d="M23.09,15.14H23a13.51,13.51,0,0,0-4.17-.94,3,3,0,0,0-2.42.88.16.16,0,0,1-.23,0,.17.17,0,0,1,0-.23,3.22,3.22,0,0,1,2.69-1,13.67,13.67,0,0,1,4.3,1,.17.17,0,0,1,.09.21A.18.18,0,0,1,23.09,15.14Z"/>
        <path class="cls-1" d="M5.53,22.2l-.25-.61a20.14,20.14,0,0,1,6.18-1.41A5.07,5.07,0,0,1,15,21.34a5.07,5.07,0,0,1,3.54-1.16,20.24,20.24,0,0,1,6.18,1.4l-.25.61a20.08,20.08,0,0,0-5.93-1.35c-2.41,0-3.26,1.16-3.27,1.17a.32.32,0,0,1-.27.14h0a.32.32,0,0,1-.27-.14s-.89-1.17-3.27-1.17A20,20,0,0,0,5.53,22.2Z"/>
        <path class="cls-1" d="M24.33,22.53a18.39,18.39,0,0,0-5.8-1.36c-2.38,0-3.24,1.13-3.27,1.18a.32.32,0,0,1-.27.14h0a.32.32,0,0,1-.27-.14c0-.05-.88-1.18-3.27-1.18a18.2,18.2,0,0,0-5.78,1.36l-.26-.61a18.86,18.86,0,0,1,6-1.4A5,5,0,0,1,15,21.68a5,5,0,0,1,3.54-1.16,19,19,0,0,1,6,1.4Z"/>
      </g>
    </symbol>
    
    

</svg>
