<svg id="Warstwa_1" data-name="Warstwa 1" xmlns="http://www.w3.org/2000/svg" viewBox="0 0 60 60">
  <defs>
    <style>
      .cls-1 {
        fill: #f6511d;
      }
    </style>
  </defs>
  <title>icon_hand_%</title>
  <path class="cls-1" d="M27.93,52.33c-.74-.07-1.33-.12-1.71-.14-1.73-.1-5-2.33-7.18-3.81-.73-.5-1.43-1-1.63-1.06a68.7,68.7,0,0,0-8.57-.47H8.32V35l.68.2a7.65,7.65,0,0,0,4.6-.42l.08,0C21.6,32.94,26.93,36.07,30,39c2.24,2.15,4.48,1.93,6.85,1.7a18.09,18.09,0,0,1,2.75-.13A2.45,2.45,0,0,1,42.13,43c0,1.58-1.37,3.32-4.08,3.57s-7.58.57-9.07,0C27.87,46,22.92,43,22.71,42.86a.53.53,0,0,1-.17-.73.52.52,0,0,1,.72-.17c1.41.87,5.26,3.21,6.12,3.56s3.34.44,8.57,0c2-.19,3.14-1.43,3.13-2.51,0-.78-.59-1.28-1.53-1.34a17.77,17.77,0,0,0-2.59.12c-2.38.24-5.09.5-7.68-2a16,16,0,0,0-15.32-4,9,9,0,0,1-4.59.58V45.8c2,.05,7.6.19,8.45.55a18.15,18.15,0,0,1,1.81,1.16c1.82,1.24,5.21,3.55,6.65,3.63.39,0,1,.07,1.74.14,3.45.29,10.61.9,12.47-.08C42.78,50,50.67,39.31,51,38l0-.07c-.14-.58-.43-1.77-1.08-2-.48-.14-1.24.26-2.14,1.13-1.48,1.45-2.9,2.78-4.21,4a.53.53,0,0,1-.71-.78c1.3-1.18,2.71-2.51,4.19-3.94,1.23-1.2,2.26-1.65,3.16-1.39,1.24.35,1.63,2,1.82,2.72l0,.12c.4,1.6-8.93,13.23-11,14.32a12.58,12.58,0,0,1-4.93.65C33.29,52.78,30.09,52.51,27.93,52.33ZM51,38.07Z"/>
  <g>
    <path class="cls-1" d="M26.34,29.24a1.11,1.11,0,0,1-.05.34.62.62,0,0,1-.12.23.31.31,0,0,1-.16.12.35.35,0,0,1-.17,0H16.23a.33.33,0,0,1-.17,0,.33.33,0,0,1-.15-.12.62.62,0,0,1-.12-.23,1.11,1.11,0,0,1,0-.34,1.47,1.47,0,0,1,0-.32,1.18,1.18,0,0,1,.1-.25.52.52,0,0,1,.16-.14.32.32,0,0,1,.19-.05h4.2V12.92l-4,2.45a1.11,1.11,0,0,1-.38.16.27.27,0,0,1-.24,0,.39.39,0,0,1-.11-.24,2.33,2.33,0,0,1,0-.4,3.22,3.22,0,0,1,0-.33.84.84,0,0,1,.06-.24.78.78,0,0,1,.11-.18.86.86,0,0,1,.17-.15L20.55,11l.12,0a.69.69,0,0,1,.17-.05.78.78,0,0,1,.22,0h.28a2.63,2.63,0,0,1,.43,0A1.15,1.15,0,0,1,22,11a.31.31,0,0,1,.15.12.29.29,0,0,1,0,.16v17.2h3.61a.32.32,0,0,1,.19.05.46.46,0,0,1,.17.14,1.18,1.18,0,0,1,.1.25A1.47,1.47,0,0,1,26.34,29.24Z"/>
    <path class="cls-1" d="M37.09,15.72a8,8,0,0,1-.25,2,4.52,4.52,0,0,1-.74,1.56,3.27,3.27,0,0,1-1.24,1,4,4,0,0,1-1.74.36,4.25,4.25,0,0,1-1.71-.31,3,3,0,0,1-1.2-.94,4.22,4.22,0,0,1-.71-1.54,8.61,8.61,0,0,1-.23-2.14,7.58,7.58,0,0,1,.23-2,4.67,4.67,0,0,1,.72-1.56,3.33,3.33,0,0,1,1.23-1,3.87,3.87,0,0,1,1.76-.38,3.93,3.93,0,0,1,1.83.39,3.24,3.24,0,0,1,1.2,1.06,4.39,4.39,0,0,1,.65,1.56A8.76,8.76,0,0,1,37.09,15.72Zm-1.6.07a7.76,7.76,0,0,0-.13-1.52A3.71,3.71,0,0,0,35,13.13a1.88,1.88,0,0,0-.73-.7,2.49,2.49,0,0,0-2.09,0,1.85,1.85,0,0,0-.71.68A3.26,3.26,0,0,0,31,14.18a7.27,7.27,0,0,0-.13,1.48A8.67,8.67,0,0,0,31,17.42a3,3,0,0,0,.45,1.13,1.7,1.7,0,0,0,.74.6,2.91,2.91,0,0,0,1,.17,2.06,2.06,0,0,0,1.1-.26,1.84,1.84,0,0,0,.69-.72,3.45,3.45,0,0,0,.36-1.11A9,9,0,0,0,35.49,15.79ZM32.87,30.22a.62.62,0,0,1-.14.14l-.2.09-.27.05h-.37a1.25,1.25,0,0,1-.38-.05.34.34,0,0,1-.21-.15.3.3,0,0,1,0-.21.81.81,0,0,1,.11-.29l13-19.09a.47.47,0,0,1,.14-.14.75.75,0,0,1,.2-.1l.27-.05.37,0a1,1,0,0,1,.38.06.44.44,0,0,1,.22.14.3.3,0,0,1,0,.23.61.61,0,0,1-.12.28Zm15.26-5a7.62,7.62,0,0,1-.25,2,4.34,4.34,0,0,1-.74,1.56,3.34,3.34,0,0,1-1.23,1,4,4,0,0,1-1.75.36,4.23,4.23,0,0,1-1.7-.31,2.94,2.94,0,0,1-1.2-.94,4.28,4.28,0,0,1-.72-1.55,9.05,9.05,0,0,1-.23-2.14,8,8,0,0,1,.23-1.95,4.67,4.67,0,0,1,.72-1.56,3.33,3.33,0,0,1,1.23-1,4.38,4.38,0,0,1,3.59,0,3.16,3.16,0,0,1,1.2,1.06,4.4,4.4,0,0,1,.66,1.56A8.75,8.75,0,0,1,48.13,25.19Zm-1.59.08a7.82,7.82,0,0,0-.14-1.53A3.28,3.28,0,0,0,46,22.61a1.79,1.79,0,0,0-.72-.7,2.27,2.27,0,0,0-1.08-.25,2.19,2.19,0,0,0-1,.23,1.92,1.92,0,0,0-.71.68,3.4,3.4,0,0,0-.41,1.09,8.07,8.07,0,0,0-.13,1.48,7.94,7.94,0,0,0,.16,1.76A3,3,0,0,0,42.53,28a1.61,1.61,0,0,0,.74.59,2.64,2.64,0,0,0,1,.18,2.17,2.17,0,0,0,1.11-.26,1.89,1.89,0,0,0,.68-.72,3.35,3.35,0,0,0,.36-1.12A8.84,8.84,0,0,0,46.54,25.27Z"/>
  </g>
</svg>
