<svg id="Warstwa_1" data-name="Warstwa 1" xmlns="http://www.w3.org/2000/svg" viewBox="0 0 60 60">
  <defs>
    <style>
      .cls-1 {
        fill: #f6511d;
      }
    </style>
  </defs>
  <title>icon_hand_zl-05</title>
  <path class="cls-1" d="M35.93,53.22c-2.78,0-6-.27-8.17-.46L26,52.63c-1.74-.1-5-2.35-7.22-3.83a18.82,18.82,0,0,0-1.65-1.07,70.5,70.5,0,0,0-8.62-.48H8V35.34l.68.2a7.6,7.6,0,0,0,4.64-.42l.08,0a17.14,17.14,0,0,1,16.42,4.28c2.25,2.16,4.51,1.94,6.89,1.71A18.29,18.29,0,0,1,39.51,41,2.45,2.45,0,0,1,42,43.35c0,1.6-1.38,3.34-4.11,3.59s-7.62.58-9.12,0c-1.11-.46-6.09-3.53-6.3-3.66a.54.54,0,0,1-.18-.73.52.52,0,0,1,.73-.17c1.42.87,5.29,3.23,6.15,3.58s3.36.44,8.63,0C39.9,45.7,41,44.45,41,43.36c0-.78-.58-1.28-1.54-1.34a16.42,16.42,0,0,0-2.59.12c-2.41.23-5.13.5-7.73-2a16.11,16.11,0,0,0-15.42-4,9.05,9.05,0,0,1-4.61.58v9.5c2.05,0,7.65.19,8.5.56a15.48,15.48,0,0,1,1.82,1.16c1.83,1.25,5.24,3.57,6.69,3.65.39,0,1,.08,1.75.14,3.46.3,10.67.91,12.55-.08,2.3-1.21,10.23-12,10.51-13.27v-.07c-.14-.58-.44-1.78-1.09-2-.48-.14-1.25.27-2.15,1.14-1.5,1.46-2.93,2.8-4.24,4a.53.53,0,1,1-.71-.78c1.3-1.18,2.72-2.52,4.21-4,1.24-1.2,2.28-1.66,3.18-1.4,1.25.36,1.64,2,1.83,2.74l0,.13c.4,1.6-9,13.3-11.07,14.4A12.75,12.75,0,0,1,35.93,53.22Zm15-14.8Z"/>
  <g>
    <path class="cls-1" d="M33.17,30.71a1.72,1.72,0,0,1,0,.34.91.91,0,0,1-.1.24.33.33,0,0,1-.15.14.38.38,0,0,1-.19.05H24.81a.61.61,0,0,1-.45-.18.8.8,0,0,1-.18-.59V30.3a1.36,1.36,0,0,1,0-.29,1.8,1.8,0,0,1,.09-.28,1.75,1.75,0,0,1,.15-.31q.09-.17.24-.39L31,19.14H24.81a.41.41,0,0,1-.34-.18,1,1,0,0,1-.13-.58,1.18,1.18,0,0,1,0-.34.75.75,0,0,1,.09-.24.4.4,0,0,1,.15-.14.41.41,0,0,1,.19,0h7.32a.69.69,0,0,1,.25,0,.58.58,0,0,1,.2.13.68.68,0,0,1,.13.24,1.18,1.18,0,0,1,0,.35v.34c0,.09,0,.19,0,.29a1.11,1.11,0,0,1-.08.3,3.26,3.26,0,0,1-.16.34c-.07.12-.15.26-.25.41L26,30H32.7a.38.38,0,0,1,.19.05.33.33,0,0,1,.15.14.91.91,0,0,1,.1.24A1.61,1.61,0,0,1,33.17,30.71Z"/>
    <path class="cls-1" d="M41.23,17.54a2.88,2.88,0,0,1,0,.32.92.92,0,0,1-.05.25.86.86,0,0,1-.11.19.79.79,0,0,1-.17.14L39,19.64V31.18a.29.29,0,0,1,0,.16.33.33,0,0,1-.14.12,1.05,1.05,0,0,1-.26.07,2.5,2.5,0,0,1-.42,0,2.46,2.46,0,0,1-.43,0,1.15,1.15,0,0,1-.27-.07.33.33,0,0,1-.14-.12.29.29,0,0,1,0-.16V20.72l-1.79,1.15a.24.24,0,0,1-.33,0,1.06,1.06,0,0,1-.12-.63,3.11,3.11,0,0,1,0-.32,1,1,0,0,1,.06-.25,1.18,1.18,0,0,1,.11-.19.79.79,0,0,1,.17-.14l1.89-1.2V11.44a.27.27,0,0,1,0-.16.44.44,0,0,1,.14-.13.81.81,0,0,1,.27-.07,4.53,4.53,0,0,1,.85,0,.74.74,0,0,1,.26.07.44.44,0,0,1,.14.13.27.27,0,0,1,0,.16V18l1.79-1.14c.14-.08.25-.08.34,0A1,1,0,0,1,41.23,17.54Z"/>
  </g>
</svg>
