<svg id="Warstwa_1" data-name="Warstwa 1" xmlns="http://www.w3.org/2000/svg" viewBox="0 0 60 60">
  <defs>
    <style>
      .cls-1 {
        fill: #f6511d;
      }

      .cls-2 {
        fill: #fff;
      }
    </style>
  </defs>
  <title>icon_shakehand</title>
  <g>
    <path class="cls-1" d="M44.44,35a3.13,3.13,0,0,1-.94-.15c-1.45-.44-14.6-11.41-14.71-11.51-.39-.37-1.22-.14-4.33.89A4.91,4.91,0,0,1,17.94,21a.9.9,0,0,1,0-.66c.44-1.39,4-3.12,10.62-5.14.76-.21,1.9.26,3.85,1.1s4.2,1.82,5.26,1.44A51.79,51.79,0,0,0,44.27,14c1.4-.88,2.21-1.38,2.58-1.54,1-.46,3.31,1.09,3.77,1.4,1.32.91,5.62,4.25,5.33,9.07l0,.22-.15.15c-.77.76-1.42,1.37-2,1.9a19.76,19.76,0,0,0-4.57,5.64C47.61,33.66,46.07,35,44.44,35ZM28.33,22a1.64,1.64,0,0,1,1.23.48c.72.67,13.09,10.82,14.28,11.26.87.27,2.28.2,4.41-3.48A21,21,0,0,1,53,24.41c.52-.49,1.11-1.05,1.8-1.73.08-2.83-1.67-5.1-3.17-6.51a9.65,9.65,0,0,0-4.4-2.64c-.27.13-1.25.74-2.39,1.45A53.53,53.53,0,0,1,38,18.84c-1.48.52-3.82-.49-6.08-1.47a10.72,10.72,0,0,0-3.1-1.06C20.2,19,19.14,20.42,19,20.68v0A3.57,3.57,0,0,0,21,23a3.7,3.7,0,0,0,3.11.15A16.68,16.68,0,0,1,28.33,22ZM19,20.72Z"/>
    <path class="cls-1" d="M12,35a.57.57,0,0,1-.33-.11c-2.27-1.66-7.52-5.71-7.32-7.38.16-1.32,5-11.25,7.65-11.25,2.18,0,5.49,1.7,5.63,1.77a.57.57,0,0,1-.51,1S13.91,17.39,12,17.39c-1.46,0-6.32,8.53-6.53,10.25,0,.79,3.56,3.92,6.86,6.34A.57.57,0,0,1,12,35Z"/>
    <path class="cls-1" d="M42.91,40.09a6,6,0,0,1-.72,0L42,40,41.92,40c-4.85-3.46-12-9.81-12-9.88a.56.56,0,0,1,0-.79.57.57,0,0,1,.79-.05c.07.07,7,6.27,11.81,9.71a2.25,2.25,0,0,0,1.83-.4c.44-.51.19-1.48.09-1.9,0-.13-.05-.22-.06-.28a.57.57,0,0,1,.49-.63.58.58,0,0,1,.63.49.5.5,0,0,0,0,.14,3.22,3.22,0,0,1-.33,2.92A2.82,2.82,0,0,1,42.91,40.09Z"/>
    <path class="cls-1" d="M37.54,43.3l-9.91-9.14a.57.57,0,0,1,.77-.83L38,42.16c2.94-.14,3-.36,3.51-2,.07-.25.15-.52.25-.81a.56.56,0,0,1,.7-.37.57.57,0,0,1,.37.71c-.1.29-.17.55-.24.79-.67,2.23-1.12,2.68-4.78,2.84Z"/>
    <path class="cls-1" d="M29.77,47.6a5.65,5.65,0,0,1-3.48-1.47.56.56,0,0,1,.76-.82h0s2,1.82,3.89.88c.61-.3,1-.63,1-.92s-.25-.67-.5-.92c-.91-.91-6-6.12-6.06-6.18a.56.56,0,0,1,0-.79.56.56,0,0,1,.8,0c.05,0,5.14,5.26,6,6.16a2.23,2.23,0,0,1,.82,1.9c-.11.69-.65,1.26-1.64,1.75A3.62,3.62,0,0,1,29.77,47.6Z"/>
    <path class="cls-1" d="M34.8,46a6,6,0,0,1-2.65-.72.56.56,0,1,1,.56-1,4.06,4.06,0,0,0,3,.39,2.8,2.8,0,0,0,1.47-2.06.58.58,0,0,1,.69-.41.57.57,0,0,1,.4.69,3.85,3.85,0,0,1-2.13,2.82A3.43,3.43,0,0,1,34.8,46Z"/>
    <g>
      <ellipse class="cls-2" cx="15.32" cy="37.46" rx="3.27" ry="1.96" transform="translate(-25.09 39.8) rotate(-71.07)"/>
      <path class="cls-1" d="M14.65,41.18a1.88,1.88,0,0,1-.57-.09,2.23,2.23,0,0,1-1.37-1.77A5.53,5.53,0,0,1,14.4,34.4a2.19,2.19,0,0,1,2.16-.56c1.34.46,1.84,2.41,1.14,4.44C17.1,40,15.84,41.18,14.65,41.18ZM16,34.87a1.45,1.45,0,0,0-.87.39A4.11,4.11,0,0,0,14,37h0a4.21,4.21,0,0,0-.19,2.07,1.19,1.19,0,0,0,.63.94c.62.21,1.68-.6,2.2-2.1s.18-2.8-.44-3A.52.52,0,0,0,16,34.87Zm-2.52,2Z"/>
    </g>
    <g>
      <ellipse class="cls-2" cx="17.78" cy="39.02" rx="3.27" ry="1.96" transform="translate(-24.56 45.79) rotate(-74.6)"/>
      <path class="cls-1" d="M17.23,42.78a1.84,1.84,0,0,1-.47-.07c-1.36-.37-2-2.29-1.41-4.36A4.94,4.94,0,0,1,16.67,36a2.19,2.19,0,0,1,2.12-.69c1.36.37,2,2.29,1.41,4.36A5,5,0,0,1,18.88,42,2.41,2.41,0,0,1,17.23,42.78Zm1.09-6.39a1.41,1.41,0,0,0-.88.44,4.06,4.06,0,0,0-1,1.82c-.42,1.53,0,2.8.63,3a1.18,1.18,0,0,0,1.05-.41,4.12,4.12,0,0,0,1-1.82c.42-1.54,0-2.8-.63-3Z"/>
    </g>
    <g>
      <ellipse class="cls-2" cx="20.25" cy="40.94" rx="3.27" ry="1.96" transform="translate(-25.04 46.81) rotate(-71.07)"/>
      <path class="cls-1" d="M19.59,44.66a1.65,1.65,0,0,1-.58-.1c-1.34-.46-1.84-2.41-1.15-4.44a5.17,5.17,0,0,1,1.47-2.25,2.21,2.21,0,0,1,2.16-.55,2.22,2.22,0,0,1,1.37,1.77,5.09,5.09,0,0,1-.23,2.67A5,5,0,0,1,21.17,44,2.5,2.5,0,0,1,19.59,44.66Zm1.32-6.31a1.37,1.37,0,0,0-.86.39,4.11,4.11,0,0,0-1.12,1.75h0c-.52,1.5-.18,2.79.44,3a1.15,1.15,0,0,0,1.07-.35,4,4,0,0,0,1.13-1.75,4.07,4.07,0,0,0,.18-2.07,1.15,1.15,0,0,0-.63-.94A.66.66,0,0,0,20.91,38.35ZM18.4,40.3Z"/>
    </g>
    <g>
      <ellipse class="cls-2" cx="22.91" cy="43.14" rx="3.27" ry="1.96" transform="translate(-25.33 50.82) rotate(-71.07)"/>
      <path class="cls-1" d="M22.24,46.86a1.88,1.88,0,0,1-.57-.09c-1.34-.46-1.84-2.41-1.14-4.44h0A5.07,5.07,0,0,1,22,40.08a2.22,2.22,0,0,1,2.16-.56,2.23,2.23,0,0,1,1.37,1.77A5.09,5.09,0,0,1,25.29,44C24.69,45.71,23.43,46.86,22.24,46.86Zm-.65-4.17c-.51,1.51-.18,2.8.44,3s1.68-.6,2.2-2.1a4.21,4.21,0,0,0,.19-2.07,1.19,1.19,0,0,0-.63-.94,1.2,1.2,0,0,0-1.08.35,4.11,4.11,0,0,0-1.12,1.75Z"/>
    </g>
  </g>
</svg>
