<svg id="Warstwa_1" data-name="Warstwa 1" xmlns="http://www.w3.org/2000/svg" viewBox="0 0 875.41 546.08">
  <defs>
    <style>
      .cls-1 {
        fill: #f6511d;
      }

      .cls-2 {
        fill: #0d2c54;
      }

      .cls-3 {
        fill: #7fb800;
      }

      .cls-4 {
        fill: #00a6ed;
      }

      .cls-5 {
        fill: #ffb400;
      }

      .cls-6 {
        fill: #fff;
      }
    </style>
  </defs>
  <title>logo_mobile</title>
  <g>
    <g>
      <g>
        <path class="cls-1" d="M67.89,258.22c-.13-.05-15-.75-17,1.58-2.27-.73-12.9-2-12.69,3.62.3,8,13.12,4.29,14,3.05,1.57.57,10.9,2.14,18.16-1.85.83.34,15.79-.44,15.89-4.77C86.56,251.42,68.67,256.75,67.89,258.22Z"/>
        <path class="cls-1" d="M144.23,200c1.76,3.87-3.7,11.45,5.77,13,4.72.77,5.3-1.58,4.67-4.76a63.22,63.22,0,0,1-1-10.46c2.76-18.71-1.18-28.74-9.54-24.4-4.35,2.26-8.1,7.51-5.61,14.15S142.46,196.1,144.23,200Z"/>
        <path class="cls-1" d="M70.14,193.54c.67,1.76,7,9,16,11.85.33,1,12.31,12.74,16.24,9.38,7.65-6.54-10.59-17.13-12.49-16.6.6-1.49-11-13.4-15.18-12-1.06-2.46-11.86-10.75-16.68-6.12C51.16,186.69,68.33,193.76,70.14,193.54Z"/>
        <path class="cls-1" d="M66.1,234.43c-.6-1.11-15.28-4.87-20-3-3-2.87-15.43-5.6-16,.39-.52,5.59,12.43,9.07,14.8,6.82,1.53,1.3,12.93,6.22,21.38,4.91.8.73,18.14,5.08,20.12-.47C90.25,232.34,67.62,232.81,66.1,234.43Z"/>
        <path class="cls-1" d="M92.61,227.65c7.07-9.06-16.64-15.33-18.49-14.06,1.2-1.05-15.63-10.57-21.37-9.33-2.07-2.26-16.7-9.47-18.55-2.09-1.65,6.61,13.88,11,15.76,10.07,2.42,2.58,11.37,7.65,21.85,8.81C72.17,222.86,89.45,231.7,92.61,227.65Z"/>
        <path class="cls-1" d="M149,214.35c-7.45-1.56-15,6.46-20.11,6.21-5.63-.27-6.14-4.07-9.15-6.49-4.11-3.3-19.25-5-24.85,17.44-.71,2.84.63,6.83-.25,10.66-.76,3.28-3.8,6.08-4.18,8.44-.86,5.28,2.19,9.7,3.54,11.89,6.29,10.2,22.72,12.51,33.4,13.45,6.72.59,13.62,3.77,19.88-.1.69-.42,8.72-4.63,11.49-11.44,1.49-4.07.71-9.47,1.76-13.39s5.52-5.64,6.63-13S157.69,216.18,149,214.35Zm-28.87,41.56-.54-.19a6.28,6.28,0,0,1-.75-11.35h0a18.17,18.17,0,0,1,2.83-1.33,15.9,15.9,0,0,1-1.19-2.89,6.22,6.22,0,0,1,.11-4.27,6.29,6.29,0,0,1,6.76-3.94h0a6.42,6.42,0,0,1,1.38.37,4.83,4.83,0,0,1,.52.23c7.36,3.36,10.36,17.51,10.36,17.51S127.84,258.42,120.14,255.91Z"/>
      </g>
      <g>
        <path class="cls-2" d="M119.24,373.72c1.83.2,15.49-13.59,12.59-17.83-6.49-9.47-19.66,11.22-19,13.37C112.18,367.8,98,381,97.46,386.79c-2.78,1.3-14.09,13-7.61,17,5.79,3.57,14.67-9.9,14.36-12C107.41,390.35,115,383.35,119.24,373.72Z"/>
        <path class="cls-2" d="M92.51,367c1.88-.11,10.71-3.93,16.15-11.68,1,0,15.87-7.86,13.86-12.63-3.92-9.27-19.54,4.91-19.61,6.88-1.24-1-16.1,6.43-16,10.83-2.67.26-13.85,8.05-10.89,14C80.23,383,92.17,368.77,92.51,367Z"/>
        <path class="cls-2" d="M107.5,300c7.07-.36,9.36-1.15,13.59-1.66s9.8,7,14.15-1.56c2.17-4.26.11-5.53-3.11-5.89a63.41,63.41,0,0,1-10.28-2.22c-17-8.3-27.74-7.59-26.13,1.69C96.55,295.17,100.42,300.34,107.5,300Z"/>
        <path class="cls-2" d="M160.62,371.61c-8-2.75-8.32,15.92-7.15,17.11-.08.1-5.25,14-3.63,16.63-1.38,1.94-5.79,11.69-.39,13.19,7.71,2.13,8.06-11.2,7.16-12.47,1-1.32,5.34-9.73,3.74-17.86C160.92,387.52,164.72,373,160.62,371.61Z"/>
        <path class="cls-2" d="M194.33,318.39c-.19-.78-1.78-9.71-7.42-14.41-3.43-2.66-8.81-3.55-12.23-5.74s-3.7-7-10.42-10.27-23.65,2.43-28,10.15c-3.76,6.62,1.59,16.27-.18,21.05-2,5.28-5.74,4.62-9,6.75-4.4,2.92-10.57,16.84,9.09,29,2.49,1.53,6.7,1.46,10.08,3.46,2.9,1.72,4.64,5.46,6.78,6.54,4.77,2.42,9.91.85,12.41.23,11.62-2.91,18.8-17.86,22.93-27.75C191,331.14,196.12,325.53,194.33,318.39ZM167.1,338.22c-.11.16-.22.31-.34.46a6.42,6.42,0,0,1-1,1,6.28,6.28,0,0,1-10-3.72h0a19.65,19.65,0,0,1-.41-3.1,16.36,16.36,0,0,1-3.11.25,6.28,6.28,0,0,1-5.74-9h0a6.37,6.37,0,0,1,.76-1.2c.12-.15.25-.29.38-.43,5.44-6,19.82-4.57,19.82-4.57S171.82,331.65,167.1,338.22Z"/>
        <path class="cls-2" d="M144.69,366.52c-9.11-7-15.52,14.76-14.44,16.7-1.24.23-9.27,13.08-8.88,18.19-3.65,2-10,13-4.47,15.36,5.17,2.19,12.41-9.1,11-12,1.7-1.07,9.84-10.44,11.15-18.89C140,385.3,149.38,370.09,144.69,366.52Z"/>
      </g>
      <g>
        <path class="cls-3" d="M267.47,352.23c2.25-1.87,3.53-5.88,6.5-8.45,2.55-2.2,6.66-2.66,8.36-4.34,3.81-3.75,4-9.12,4.18-11.68.95-11.94-10.93-23.52-19-30.59-5.07-4.45-8.75-11.09-16.09-11.68-.81-.06-9.77-1.41-16,2.44-3.61,2.4-6.18,7.21-9.34,9.76S218.28,299,213,304.28s-5.25,23.19.67,29.79c5.08,5.67,15.94,3.68,19.89,6.89,4.38,3.55,2.55,6.91,3.55,10.64C238.48,356.7,249.7,367,267.47,352.23Zm-24.92-19.54h0a6.47,6.47,0,0,1-.89-1.11c-.11-.16-.2-.33-.29-.49-3.94-7.07,2-20.25,2-20.25s14.46.22,19.18,6.79a4,4,0,0,1,.33.47,6,6,0,0,1,.62,1.28h0a6.28,6.28,0,0,1-6.73,8.32h0a17.92,17.92,0,0,1-3.06-.61,16.6,16.6,0,0,1-.76,3,6.29,6.29,0,0,1-10.39,2.56Z"/>
        <path class="cls-3" d="M265,397.49c.49-1.81-.3-11.39-5.91-19,.31-1-2.4-17.55-7.55-17.16-10,.75-1.59,20.08.26,20.78-1.37.84,1,17.31,5.15,18.63-.6,2.61,3.22,15.69,9.84,14.8C276.24,414.24,266.58,398.39,265,397.49Z"/>
        <path class="cls-3" d="M322.49,349.22c-.93-1.39-7.52-8.17-15.74-9.24-.47-.77-13-9-15.64-5.56-5.15,6.68,12.43,13,13.93,12.24.07.11,11.62,9.45,14.61,8.74,1.4,1.93,9.23,9.22,12.37,4.58C336.51,353.35,324,348.77,322.49,349.22Z"/>
        <path class="cls-3" d="M205.5,335.66a63.47,63.47,0,0,1-5.39,9c-13.28,13.46-16,23.88-6.73,25.31,4.85.75,11-1.26,12.89-8.08s1.9-9.25,2.77-13.42,9.75-7.06,3-13.91C208.73,331.18,206.87,332.73,205.5,335.66Z"/>
        <path class="cls-3" d="M312.05,376c-.47-1.95-6.74-12.66-14.34-16.6-.21-1.07-11.62-14.82-16.51-11.52-9.5,6.42,9,19.42,11.22,19-.18,1.24,9.44,12.95,14.41,14.21.76,4.12,9.14,13.65,13.13,9.14C323.68,386.06,315.3,375.6,312.05,376Z"/>
        <path class="cls-3" d="M292.32,394.34c-.43-3.51-4.65-12.89-12.42-20,.78-1.66-7.93-19-12.87-17.62-11,3.13,4.36,22.21,6.6,22.27-1.59.15,6.36,17.77,11.72,20.16.34,3.05,7.87,17.52,13.72,12.65C304.31,407.42,294.37,394.72,292.32,394.34Z"/>
      </g>
      <g>
        <path class="cls-4" d="M304.33,214.23c3.26,11,21.24-2.78,21.51-5,1.13.54,15.2-5.1,17.89-9.46,4.16.51,15.76-4.61,12.67-9.77-2.89-4.82-15.39,0-16,3.25-2-.14-14.11,2.62-20.15,8.68C319.2,201.83,302.65,208.58,304.33,214.23Z"/>
        <path class="cls-4" d="M295.16,289.9c-5.93-3.88-8.24-4.59-12-6.67s-3.8-11.42-12.35-7.08c-4.26,2.16-3.34,4.41-1,6.6a63.3,63.3,0,0,1,7,7.85c8.84,16.72,17.95,22.48,22.12,14C301.17,300.24,301.09,293.78,295.16,289.9Z"/>
        <path class="cls-4" d="M310.33,191.12c.12,0,12.51-8.24,12.73-11.3,2.26-.75,11.57-6,8.09-10.42-5-6.27-13.11,4.3-13.13,5.86-1.6.46-10.06,4.7-13.55,12.22-.88.22-12.48,9.69-10,13.25C299.29,207.65,310.57,192.77,310.33,191.12Z"/>
        <path class="cls-4" d="M370.63,216.4c-2.57-6.3-17.68-.64-18.66,1.2-3.48-.65-13.69.56-22.83,5.82-1.36-1.25-20.53,1.84-20.68,7-.34,11.48,22.49,2.53,23.23.4-.34,1.56,18.85-.71,22.75-5.1C357.44,226.28,373.51,223.45,370.63,216.4Z"/>
        <path class="cls-4" d="M346.75,244.61c-1.58-1-10.95-3.14-19.92-.09-.83-.58-17.46-3-18.64,2-2.3,9.8,18.67,7.55,19.89,6,.4,1.56,16.8,4.29,19.32.68,2.31,1.36,15.93,1.66,17.08-4.92C366.11,238.92,348.09,243.36,346.75,244.61Z"/>
        <path class="cls-4" d="M298.24,219.89c-1.33-3.1-.54-7.15-1.63-9.28-2.43-4.77-7.5-6.53-9.89-7.5-11.1-4.5-25.71,3.35-34.88,8.9-5.77,3.5-13.21,5-16,11.84-.3.75-4.28,8.89-2.49,16,1.2,4.17,5,8.06,6.49,11.84s-1.12,7.81,2.37,14.43,20.53,12,28.61,8.32c6.93-3.14,8.3-14.09,12.55-16.9,4.7-3.1,7.36-.34,11.21-.17,5.28.23,18.47-7.38,9.74-28.76C303.23,225.92,299.79,223.5,298.24,219.89ZM277.9,247.48h0a6.36,6.36,0,0,1-1.32.52l-.56.12c-7.93,1.64-18.71-8-18.71-8s4.55-13.72,12.24-16.25l.55-.17a6.87,6.87,0,0,1,1.41-.21h0a6.28,6.28,0,0,1,5.91,8.92h0a18.29,18.29,0,0,1-1.5,2.75,16.26,16.26,0,0,1,2.67,1.63,6.28,6.28,0,0,1-.69,10.68Z"/>
      </g>
      <path class="cls-5" d="M216.89,225.18c7.39-1.19,17.88-15.66,17-24.49-.78-7.57-10.73-12.34-12-17.27-1.46-5.44,2-7.08,3.39-10.68,1.89-4.93-1.13-19.86-24.18-18.36-2.93.19-6.32,2.68-10.23,3-3.36.28-6.95-1.76-9.32-1.41-5.29.79-8.57,5-10.24,7-7.79,9.1-5,25.45-2.63,35.9,1.48,6.59.56,14.12,6.15,18.91.61.53,7.07,6.89,14.39,7.46,4.34.17,9.24-2.21,13.3-2.41S209.51,226.38,216.89,225.18Zm39.34-42.65c-5.56,4.39-7,6.36-10.13,9.22s-12,0-10.63,9.47c.7,4.73,3.12,4.57,5.95,3a63.58,63.58,0,0,1,9.66-4.14c18.66-3.07,27-9.88,20.33-16.51C267.93,180.11,261.79,178.14,256.23,182.53ZM154.77,124.46c-.07,1.67,1.27,11,7.29,16.73-.07.9,5.22,14.91,9.38,13.69,8.1-2.38-2.43-17.8-4.07-18.09,0-.13-3.84-14.48-6.68-15.66,0-2.38-2-12.89-7.3-11C145.86,112.87,153.29,124,154.77,124.46ZM179,108.93c-.77,1.85-2,14.21,1.84,21.86-.46,1,.69,18.82,6.58,19,11.45.4,4.11-21,2.1-22,.88-.9,0-16-3.29-20,1.81-3.77.63-16.4-5.24-15.11C175.46,94,176.09,107.35,179,108.93Zm26.74-3.23c-1.72,3.1-3.82,13.17-1.73,23.5-1.61.9-4.77,20.05.05,21.83,10.78,4,9.53-20.53,7.75-21.9,1.37.82,5.31-18.11,2.38-23.2,1.52-2.66,3.93-18.79-3.66-18.3C203.7,88.07,204.26,104.2,205.7,105.7Zm24,13.53c-1.47,1.17-6.46,9.39-6.41,18.86-.82.61-8.39,15.61-4,18.33,8.56,5.29,13.09-15.32,12-17,1.61.12,9.4-14.57,6.79-18.11,2-1.76,6.62-14.57.74-17.75C230.4,99.06,228.9,117.57,229.66,119.23Z"/>
      <path class="cls-6" d="M210.25,185.28h0a6.29,6.29,0,0,0-9.91-4,16.3,16.3,0,0,0-2.39,2h0a17.8,17.8,0,0,0-2.13-2.3h0a6.28,6.28,0,0,0-10.33,2.78h0a6,6,0,0,0-.25,1.4,5.42,5.42,0,0,0,0,.57c0,8.1,11.52,16.77,11.52,16.77s12.55-7.17,13.51-15.2a5.51,5.51,0,0,0,.06-.57A6.07,6.07,0,0,0,210.25,185.28Z"/>
      <g>
        <path class="cls-5" d="M179,108.93c-.77,1.85-2,14.21,1.84,21.86-.46,1,.69,18.82,6.58,19,11.45.4,4.11-21,2.1-22,.88-.9,0-16-3.29-20,1.81-3.77.63-16.4-5.24-15.11C175.46,94,176.09,107.35,179,108.93Z"/>
        <path class="cls-5" d="M219.26,156.42c8.56,5.29,13.09-15.32,12-17,1.61.12,9.4-14.57,6.79-18.11,2-1.76,6.62-14.57.74-17.75-8.4-4.54-9.9,14-9.14,15.63-1.47,1.17-6.46,9.39-6.41,18.86C222.43,138.7,214.86,153.7,219.26,156.42Z"/>
        <path class="cls-5" d="M204,151c10.78,4,9.53-20.53,7.75-21.9,1.37.82,5.31-18.11,2.38-23.2,1.52-2.66,3.93-18.79-3.66-18.3-6.79.44-6.23,16.57-4.79,18.07-1.72,3.1-3.82,13.17-1.73,23.5C202.36,130.1,199.2,149.25,204,151Z"/>
        <path class="cls-5" d="M171.44,154.88c8.1-2.38-2.43-17.8-4.07-18.09,0-.13-3.84-14.48-6.68-15.66,0-2.38-2-12.89-7.3-11-7.53,2.72-.1,13.8,1.38,14.31-.07,1.67,1.27,11,7.29,16.73C162,142.09,167.28,156.1,171.44,154.88Z"/>
        <path class="cls-5" d="M221.83,183.42c-1.46-5.44,2-7.08,3.39-10.68,1.89-4.93-1.13-19.86-24.18-18.36-2.93.19-6.32,2.68-10.23,3-3.36.28-6.95-1.76-9.32-1.41-5.29.79-8.57,5-10.24,7-7.79,9.1-5,25.45-2.63,35.9,1.48,6.59.56,14.12,6.15,18.91.61.53,7.07,6.89,14.39,7.46,4.34.17,9.24-2.21,13.3-2.41s7,3.54,14.43,2.34,17.88-15.66,17-24.49C233.09,193.12,223.14,188.35,221.83,183.42Zm-11.51,3.28a5.51,5.51,0,0,1-.06.57c-1,8-13.51,15.2-13.51,15.2s-11.57-8.67-11.52-16.77a5.42,5.42,0,0,1,0-.57,6,6,0,0,1,.25-1.4h0A6.28,6.28,0,0,1,195.82,181h0a17.8,17.8,0,0,1,2.13,2.3,16.3,16.3,0,0,1,2.39-2,6.29,6.29,0,0,1,9.91,4h0A6.07,6.07,0,0,1,210.32,186.7Z"/>
        <path class="cls-5" d="M271.41,183.57c-3.48-3.46-9.62-5.43-15.18-1s-7,6.36-10.13,9.22-12,0-10.63,9.47c.7,4.73,3.12,4.57,5.95,3a63.58,63.58,0,0,1,9.66-4.14C269.74,197,278.1,190.2,271.41,183.57Z"/>
      </g>
    </g>
    <g>
      <path class="cls-2" d="M483.48,214.83c-2.4,1.2-4.4,2.2-5.8,3-2.4,1-4,1.2-6.4,2.2-3.6,1.4-6.8,2.4-10.8,3.8-3.4-8.8-3.6-13.6-7-23.8-1.6-4.6-2.6-7-5.8-14.4-1.6-3.8-3.4-8.4-5.2-12.2-2.8-5.6-6-11.6-9.8-16.4-.2,2.6-.2,5.2-.2,7.8,0,9.4.8,18.8.8,28.4,0,8.4.4,17,1.2,27.8-2.8.6-5.4,1.4-8.4,2-4.8.8-9.4,1.4-14.2,2.2,0-3-.4-5.8-.2-9.2,0-2.2,1.2-31.8,1.2-35,.2-7.8.6-15.6.6-23,0-2.4-.2-4.8-.2-7.2-.4-9-1.2-18.2-2.2-27.2-.4-3.4-.8-6.6-1.2-10-.2-1-.4-2.8-.6-4.6,3.2-1.4,6.6-2.2,9.4-3.2,5.6-1.8,12.2-3,17.8-4.2,2,8,4.8,17.2,7.2,24.2a152.82,152.82,0,0,0,5.8,16c1.4,3.4,2.4,6.2,4.8,11.2,1.8,3.6,1.8,3.6,3,5.8.2-5.2.2-8.8.2-12.6v-32.8c0-2.6-1.2-19.8-.6-23.6,3.6,0,7.4-.2,11.2-.4,3.6-.2,7.6-1,11.2-.8-.6,10-.6,20-.6,30.2s0,20.6-.4,31.8v6.6c0,5.2,0,10.6.2,15.6C479.28,186.63,480.08,200.83,483.48,214.83Z"/>
      <path class="cls-2" d="M574.88,213.63c-7.6,2.4-17.4,5.6-22.6,7a32,32,0,0,1-1-4.2c-.6-4.8-1.4-7.2-2.4-13.4-.8-3-1.4-6.2-2-9.2-7.8,1.4-18,3.4-26,5.2-1.8,8.6-4,18-6.6,26.2-7-1.8-16.6-3.2-21.4-4.6.6-1.6,2.2-7,2.6-8.6,1-3.2,2.6-6.6,3.4-10.4.6-2.6,1-5.2,1.6-7.6.8-3,1.2-5,2-8.6.6-3,1-7,1.8-10,1.2-5.4,2-11.6,3.4-19.2,2-11.4,4-21.8,5.4-33.2,1-6.8,1.2-12.4,2-19,.2-1.4,0-6.2.2-7.4,6.6-1.2,24.2-6.6,33-7.8.8,3.8,1.6,8.2,2.2,11.6,1.6,9.4,1.8,19,3.4,26.6,1.4,7.8,3,14.8,4.6,22.2s3.2,15.6,5,23c1.4,5.6,3.6,12.6,4.8,18.4a70.6,70.6,0,0,0,3.2,11.6C572.28,205,573.88,210.83,574.88,213.63Zm-31.8-38.8-1.2-5.4c-1.2-6-2.8-11.4-3.8-17.4a96.82,96.82,0,0,0-2.6-12.8c-.8-3.6-1.4-8-2.6-11.6-1.4,4.6-1.8,9.6-2.6,14.4-1,5.6-2,11.6-2.8,17.4-.8,6.2-1.8,12.4-2.6,18.4C531.08,176.63,538.08,175.63,543.08,174.83Z"/>
      <path class="cls-2" d="M664.27,196.23c0,11.2-8.8,21.8-19.6,27.2-5,2.6-11.79,3.8-17.4,4.2-6.6.6-17.19-.2-22.39-2.8-2.6-1.4-4.8-3-7.21-4.6a34.44,34.44,0,0,1-12.39-16.6c-.6-2.2-2.8-9.8-1.6-15.8,7-1.6,12.6-1.4,17.2-1.6h5.79c0,5,.8,11.6,2.8,13.8,4,3.8,10.2,6,16.2,6,5.4,0,10.8-1.8,14-5.4,5.4-6.2-11.79-15-19.2-19.8-9.59-6.6-16.19-9.6-24-17-7-6.8-9.6-18.2-9.6-27.4a37,37,0,0,1,1.2-10C593.28,109,609.67,88,631.27,88c5,0,9.4.6,13.4,4a21.77,21.77,0,0,1,6,7.4c3.2,6.4,3.2,15.2,3.8,22.6.4,3.8-1,18-2.8,23a137.82,137.82,0,0,1-21.2-3.6c.41-2.4,1.8-13.2,2-14.8.2-5.8-.2-10.8-1.59-14.2-3.21-7-20,13.4-21,19.8-2.6,15.8,5,17.4,20.19,28.2,4.2,3,11.4,7,15.4,10.4,5.6,4.2,7.8,5.2,11.6,9.2C661.87,185,664.27,190.63,664.27,196.23Z"/>
      <path class="cls-2" d="M744.27,211.83c-6.8,3.4-15.6,4.8-24.4,6.8-8.4,1.6-22.2,3.6-30.4,4.8-2.2.4-4.6,1-7.8,1.4a45.37,45.37,0,0,1-8.4-18c6-11.8,14.2-28.4,20-40.2,3.4-7,6.8-13,11-21,1.2-2.4,5.4-12.6,9.2-20.2,1.2-2,4.2-7.2,5-9.6-3.6.6-10.6,2.6-14,3.6-7.8,2.2-16,4-24,6-3.8-7-5-16-6.2-21,9.2-2.6,18.8-3.8,28.2-6,6.2-1.4,12-3.6,18.2-5.2,2.8-.8,7-2.4,11.6-3.6,2.8,3.2,9.4,9,13.4,17.8-1.8,4.2-4,8.6-5.4,11.2-3.4,7.2-12.8,26.8-16.6,33.8-4.8,9.6-8.6,17.2-12.2,25-3.4,7-7,13.4-10.4,21.4,7.6-1,13.4-1.4,21.6-3.4,5-1.2,11-2.8,16.2-4.2C740.87,198.23,743.07,204,744.27,211.83Z"/>
      <path class="cls-2" d="M821.07,212.83c-9.2,2.4-19,3.6-28.4,6.4-2.6.8-9.2,1.6-19.6,3.8-2.8.6-6.4,1.6-10.4,2.4-.2-3.2-.4-6.6-.4-10,0-2.2.2-4.4.2-6.6.6-10.8,1.4-22.8,1.6-33.8.2-7.4.4-14.6.4-22,0-4.4,0-8.8-.2-13.6-.2-4.2-.2-11.2-.2-15.2-2.4.6-5,1.4-7.4,1.8-1-7.2-2.8-14.8-2.2-22.4a39.37,39.37,0,0,0,3.8-1.4c3.4-.8,5.4-1.4,8.6-2,3-.8,5.8-1.4,8.8-2,3.6-.8,7.2-1.6,11-2.6,9.6-2.2,28.2-7.2,36.6-8a172.77,172.77,0,0,1,2.4,22.4c-2.8.4-5.8.8-8.4,1.4-9.6,2-21.8,5-32.6,7.6v4c0,9,.2,21,.2,29.8v3.6c3.4-.8,6.6-1.4,10-2.2,7-1.6,15.4-3.2,22.4-4.6.6,4.8,1.8,15.4,1.2,23-3.6.8-7.4,1.6-10.2,2-5.6,1-11.6,1.8-17.4,3a54.09,54.09,0,0,0-7.2,1.8c-.2,4-.2,8-.2,11.8,0,3,0,5.8.2,8.6,7.4-1.8,13.8-3,20.6-4.6,8-1.8,17.2-4.2,25-5.8.2,5.2.6,13,.4,21.6C826.67,211.63,822.87,212.43,821.07,212.83Z"/>
    </g>
    <g>
      <path class="cls-3" d="M496.52,340.42c-.8,11.8-5.8,22.2-13.8,34.2-8.2,12.2-17,20.4-28.2,28.4-4.6,3.4-9.4,5.4-15,8.8-2.41,1.4-7.41,3.2-9.8,4.2-2,.8-4.41,1.4-6.41,2a43.32,43.32,0,0,1-1-7.8,80.31,80.31,0,0,1-.4-9.8q.3-9.3.61-18.6c.39-12.2,1.2-23.8,1.2-35.8,0-3.2,0-6.6-.2-9.8-.41-10-.8-20.4-1-30.2-3-.8-6.21-.4-9.6-1a235.53,235.53,0,0,1,2.8-23.8c8.59.4,13.39-.2,23.19,3.2a92.3,92.3,0,0,1,11.2,4c1.8.6,3.8,1.8,5.6,2.6a71.5,71.5,0,0,1,13.2,8.6,146.11,146.11,0,0,1,14.6,14.8,44.92,44.92,0,0,1,8.6,12.8C493.92,331,496.72,335.82,496.52,340.42Zm-23.4,8.8a15.07,15.07,0,0,0,1.2-5.8c0-13.8-18.8-29.4-30-33.6-.2,2.6-.4,9.4-.4,12.4.4,6.2.2,12.8.6,19,.2,3.4,0,8.2.2,11.6.4,6.4-.4,11.4-.4,17.6,0,4.2,0,7.4-.2,12.6A69.4,69.4,0,0,0,473.12,349.22Z"/>
      <path class="cls-3" d="M566.72,404.22c-6.8,3.4-15.6,4.8-24.4,6.8-8.39,1.6-22.19,3.6-30.39,4.8-2.2.4-4.6,1-7.8,1.4a45.37,45.37,0,0,1-8.4-18c6-11.8,14.2-28.4,20-40.2,3.4-7,6.8-13,11-21,1.2-2.4,5.4-12.6,9.2-20.2a73.68,73.68,0,0,0,5-9.6c-3.61.6-10.61,2.6-14,3.6-7.8,2.2-16,4-24,6-3.8-7-5-16-6.2-21,9.2-2.6,18.8-3.8,28.2-6,6.2-1.4,12-3.6,18.19-5.2,2.81-.8,7-2.4,11.61-3.6,2.8,3.2,9.39,9,13.39,17.8-1.8,4.2-4,8.6-5.39,11.2-3.41,7.2-12.8,26.8-16.61,33.8-4.8,9.6-8.59,17.2-12.19,25-3.4,7-7,13.4-10.4,21.4,7.6-1,13.4-1.4,21.59-3.4,5-1.2,11-2.8,16.2-4.2C563.32,390.62,565.53,396.42,566.72,404.22Z"/>
      <path class="cls-3" d="M581.93,413.82c0-3.2.4-6.8.4-9.6.4-11.6,1.2-23,1.2-34.4V313c0-6.6,0-12.8-.4-19.4-.2-1.8-.2-3.8-.4-5.8,5.4-1,14.4-2.4,21.4-3v6.4c.2,6.4,0,11.8-.2,19.8-.2,3.8-.2,7.4-.2,11.2,0,14.4.8,28.6.6,43.2-.2,14.8.8,29.6.8,44.6C597.13,411.82,586.93,413.22,581.93,413.82Z"/>
      <path class="cls-3" d="M685.92,405.22c-9.2,2.4-19,3.6-28.4,6.4-2.6.8-9.2,1.6-19.6,3.8-2.8.6-6.4,1.6-10.4,2.4-.2-3.2-.4-6.6-.4-10,0-2.2.2-4.4.2-6.6.6-10.8,1.4-22.8,1.6-33.8.2-7.4.4-14.6.4-22,0-4.4,0-8.8-.2-13.6-.2-4.2-.2-11.2-.2-15.2-2.4.6-5,1.4-7.4,1.8-1-7.2-2.8-14.8-2.2-22.4a39.37,39.37,0,0,0,3.8-1.4c3.4-.8,5.4-1.4,8.6-2,3-.8,5.8-1.4,8.8-2,3.6-.8,7.2-1.6,11-2.6,9.6-2.2,28.2-7.2,36.6-8a172.77,172.77,0,0,1,2.4,22.4c-2.8.4-5.8.8-8.4,1.4-9.6,2-21.8,5-32.6,7.6v4c0,9,.2,21,.2,29.8v3.6c3.4-.8,6.6-1.4,10-2.2,7-1.6,15.4-3.2,22.4-4.6.6,4.8,1.8,15.4,1.2,23-3.6.8-7.4,1.6-10.2,2-5.6,1-11.6,1.8-17.4,3a54.09,54.09,0,0,0-7.2,1.8c-.2,4-.2,8-.2,11.8,0,3,0,5.8.2,8.6,7.4-1.8,13.8-3,20.6-4.6,8-1.8,17.2-4.2,25-5.8.2,5.2.6,13,.4,21.6C691.52,404,687.72,404.82,685.92,405.22Z"/>
      <path class="cls-3" d="M788.32,399.62c-2,3.8-12.6,11.6-16.8,14.2-5.2,3.4-10.4,4-16.4,4.8-7.8,1-18.6-3.2-26-8.8-8.6-7-14.4-15.2-19.4-26.4a41.56,41.56,0,0,1-4-18.2,61.32,61.32,0,0,1,1.6-13.4c2.2-8.4,5.4-20.8,8.6-28.2,4.2-9.2,7.2-15.2,13-23,5.4-7.2,15.2-14.8,22.8-18.2a24.45,24.45,0,0,1,14.2-.8c3.8,1.2,9.6,3.6,11.4,11a90.47,90.47,0,0,1,2.6,26.6v9.2c0,6.4,0,14.8-.8,23.2-6.8.4-16.8.6-21.6,1.2.6-9.6.6-20.8,1-29,.2-4.4-.4-19.4-6.6-14.6a37.26,37.26,0,0,0-10,10.4c-5,8-9.2,19.2-12.4,28.8a59.23,59.23,0,0,0-2.6,15.6c-.2,4.4,1.2,11.6,3.6,15,4.8,6.8,10.4,14.6,17.4,17.4,5.6,2.2,11,.2,16-3.6,2.4-1.6,8.2-6.4,9.6-8.4C777.12,386.82,784.32,393.82,788.32,399.62Z"/>
      <path class="cls-3" d="M800.92,413.82c0-3.2.4-6.8.4-9.6.4-11.6,1.2-23,1.2-34.4V313c0-6.6,0-12.8-.4-19.4-.2-1.8-.2-3.8-.4-5.8,5.4-1,14.4-2.4,21.4-3v6.4c.2,6.4,0,11.8-.2,19.8-.2,3.8-.2,7.4-.2,11.2,0,14.4.8,28.6.6,43.2-.2,14.8.8,29.6.8,44.6C816.12,411.82,805.92,413.22,800.92,413.82Z"/>
    </g>
    <g>
      <path class="cls-1" d="M440.44,258.64c0,5.67-7.62,8.81-11.65,10.85a3.33,3.33,0,0,1-3.1,2.08,3.45,3.45,0,0,1-3.05-1.64,4.07,4.07,0,0,1-.23-1.19c0-1.95,2.22-2.84,3.06-3,3.46-.44,10-5,10-6.73,0-5.41-20.69-3.15-20.69-10.68s12.58-11.51,16.52-11.51h.09c3.15,0,3.86.88,5.45,3a1.9,1.9,0,0,1,.31.93,2.58,2.58,0,0,1-2.61,2.26,2.86,2.86,0,0,1-1.82-.71c-.13-.09-.62-.58-.75-.58h-.09c-4.3,0-11.78,3.72-11.78,5.94,0,3,20.24,2,20.37,10.85Z"/>
      <path class="cls-1" d="M473,242.6a1.71,1.71,0,0,1-1.73-1.24c-4.92.23-10.1.31-14.88,1.86-.13,1.47-.89,12.05-.89,17.77a10.56,10.56,0,0,0,.31,3.54,2,2,0,0,1,.27,1.11c0,1.46-.93,3.54-2.7,3.54a3.46,3.46,0,0,1-1.82-.62c-.49-.31-.71-8.55-.71-14.08,0-2.35,0-4.17.09-4.79a27.69,27.69,0,0,0,.22-3.63c0-.53,0-1,0-1.6a66.16,66.16,0,0,1-8,1.29,1,1,0,0,1-.44-.05,2.77,2.77,0,0,1-2-2.61,2.65,2.65,0,0,1,2.79-2.61,11.88,11.88,0,0,1,1.46,0,27.38,27.38,0,0,0,6.56-1.1,2.41,2.41,0,0,1,2.3-1.38,3.28,3.28,0,0,1,1.51.4,175.67,175.67,0,0,1,18.07-1.42,6.94,6.94,0,0,1,1.37.09,3.14,3.14,0,0,1,2.21,3C477,240.74,474.73,242.6,473,242.6Z"/>
      <path class="cls-1" d="M500,251.15c-.36,6.12-12.5,17.14-22,17.14a9.81,9.81,0,0,1-4.08-.84,8.19,8.19,0,0,1-5.23-8.06c0-8.68,9.48-20.2,15.11-20.33h.26a6.66,6.66,0,0,1,4.65,1.42c7,1.37,11.26,4.38,11.26,10.05ZM485.4,245a2.17,2.17,0,0,0-.57,0c-1,.54-1.95,1.29-3,1.29a2.59,2.59,0,0,1-1.51-.49,18.47,18.47,0,0,0-6.38,13c0,1.9.54,3.41,1.55,3.94a6.54,6.54,0,0,0,2.93.67c6.78,0,16.3-8.6,16.43-12.49v-.27C494.88,245.48,487.88,245,485.4,245Z"/>
      <path class="cls-1" d="M539.62,241.32c-.18.27-7.62,27-12.67,27h0c-1.47,0-2.44-.17-3-1.86-.31-.88-.53-2.52-1.72-5.71a48.13,48.13,0,0,1-2.57-12.67c-3.15,5.27-5.1,10.94-7.22,16.7-.67,1.86-1,2.44-1.6,2.84a3.35,3.35,0,0,1-1.77.48,2.75,2.75,0,0,1-3-3.19c0-.57,0-1.19,0-1.77a3.66,3.66,0,0,0,0-.66A133.1,133.1,0,0,0,502.32,242a2.42,2.42,0,0,1-.13-.79,2.74,2.74,0,0,1,2.83-2.7,3.5,3.5,0,0,1,1.82.53c1,.66,1.24,1.5,1.46,3.72.45,4.56,1.29,8.86,2,13.33A109.8,109.8,0,0,1,517,243.53a28.85,28.85,0,0,0,2.31-4.34c.17-.62,1.72-1.55,3.1-1.55,1.11,0,2.17.67,2.26,2.71v.22c0,.48,0,1.06-.09,1.86v2a43.86,43.86,0,0,0,2.66,16.61,82.13,82.13,0,0,0,6-15.23c1-3.46,1.32-5.63,1.68-6.91.4-1.55,1.15-2.57,2.92-2.57h.45c1.86.18,2.43,1,2.43,2A6.65,6.65,0,0,1,539.62,241.32Z"/>
      <path class="cls-1" d="M564,255.63a5.44,5.44,0,0,1-.75-.09l-3.81,1.11,2.35,10.18a3.57,3.57,0,0,1,1.19,2.31c0,.66-.4,1.41-1.59,2.08a1.78,1.78,0,0,1-.93.22,2.93,2.93,0,0,1-2.88-2.66L555,258.06c-3.23,1-6.38,2-9.52,3.24a11.89,11.89,0,0,0-1.42,4.07,2.69,2.69,0,0,1-2.53,2.66,2.36,2.36,0,0,1-2.21-1.6c0-.08,0-.22,0-.39a17.86,17.86,0,0,1,1.19-4.79,2.22,2.22,0,0,1-1-1.81c0-1.42,1.55-2.75,3-3.1l8.11-17.9a3,3,0,0,1,2.52-2.08c1.06,0,2,.89,2.39,2.7a30.5,30.5,0,0,0,.89,4.78c.49,1.73,1.37,5.45,2.12,8.51l4.17-1.24a3.79,3.79,0,0,1,1.68-.44,2.22,2.22,0,0,1,2.17,2.39A2.42,2.42,0,0,1,564,255.63Zm-12-9.08c-1.46,2.88-2.88,5.75-4.16,8.72a58.53,58.53,0,0,0,6.11-1.5C553.4,251.37,552.73,248.94,552,246.55Z"/>
      <path class="cls-1" d="M599.15,266.7a1.82,1.82,0,0,1-1.82,1.51,10.13,10.13,0,0,1-3.27-1,71.32,71.32,0,0,1-19.67-11c-.13,2.12-.4,5.31-.44,7.84v0c0,.93.62,1.64.62,2.57a2.42,2.42,0,0,1-.45,1.33,3,3,0,0,1-2.56,1.42,2.9,2.9,0,0,1-2.13-.89,5.82,5.82,0,0,1-.35-2.74c0-4.12.79-11.48.84-13.07a1.79,1.79,0,0,1-.49-1.42c0-.57.66-1.06.66-1.06.14-1.37.4-4.21.4-5.58a2.57,2.57,0,0,0,0-.62,9.65,9.65,0,0,1-.09-1.15,3.83,3.83,0,0,1,1.77-3.55,3.15,3.15,0,0,1,1.24-.31,2.64,2.64,0,0,1,2,1,33.16,33.16,0,0,1,10.76-2.3c3,0,5.54.88,5.76,3.72v.35c0,4.08-5.85,7.89-14.08,11.16,4.74,4,14.52,9.39,18.55,9.93.85.08,2.88.88,2.88,2.88A3.82,3.82,0,0,1,599.15,266.7Zm-12.84-25a30.5,30.5,0,0,0-3.81.71,13.81,13.81,0,0,0-5.67,2,2.27,2.27,0,0,1-.84.44c-.18,1.37-.49,2.74-.76,4.07,3.68-1.06,11.65-4.34,11.65-6.91v0C586.88,241.76,586.66,241.67,586.31,241.67Z"/>
      <path class="cls-1" d="M634,266.57a3,3,0,0,1-.85-.14,11.88,11.88,0,0,1-1.19-.39,14.36,14.36,0,0,0-3.59-.27c-7.09,0-20.91,1.64-24.49,3.14a4.27,4.27,0,0,1-1.82.4,2.84,2.84,0,0,1-3.1-2.61,2.5,2.5,0,0,1,.53-1.46c1.82-2.22,6.34-9.17,10.85-14.8,1.38-1.72,3.28-4.29,5.67-6.91-3.14.49-6.91,1.29-8,2.22a4.65,4.65,0,0,1-2.7,1.42,2.45,2.45,0,0,1-2-1.2,1.56,1.56,0,0,1-.4-1.06c0-1.24,1.33-2.7,3.45-3.94,1.29-.71,13.29-3.46,17-3.46a2.6,2.6,0,0,1,1,.13,2.82,2.82,0,0,1,1.37,2.35,2.3,2.3,0,0,1-.88,1.77c-7.36,6-12.85,13.47-18.12,21.53a156.13,156.13,0,0,1,21.53-1.91c3.19,0,5.67.23,6.55.89a2.77,2.77,0,0,1,1.38,2.22A2.13,2.13,0,0,1,634,266.57Z"/>
      <path class="cls-1" d="M657,240.74a7.8,7.8,0,0,1-1,.67c-.84,1.37-3.72,4.74-10.41,10.32.09.93.13,1.86.13,2.79,0,1.68-.13,3.37-.18,5,0,.84,0,1.59,0,2.35a12.47,12.47,0,0,0,.57,4.43,5,5,0,0,1,.4,1.81,2.35,2.35,0,0,1-2.52,2.39,2.84,2.84,0,0,1-3-2.83,4,4,0,0,1,.09-.67v-.26a17.79,17.79,0,0,0-.18-1.82c-.48-3.5-.48-7-.62-10.49-1.19-.71-1.06-1.25-1.37-2.4-.62-2.17-2-7.44-3.9-8.46-1-.57-1.64-.79-1.64-2.21v0a2.07,2.07,0,0,1,2.22-2.21,5.71,5.71,0,0,1,4.47,2.57c.71,1.24,1.06,2.48,2.57,6.07a53.56,53.56,0,0,0,10.05-9.61,3.37,3.37,0,0,1,2.66-1.51,2.58,2.58,0,0,1,2.57,2.44A2,2,0,0,1,657,240.74Z"/>
      <path class="cls-1" d="M683.84,258.64c0,5.67-7.62,8.81-11.65,10.85a3.33,3.33,0,0,1-3.1,2.08,3.43,3.43,0,0,1-3.05-1.64,4.07,4.07,0,0,1-.23-1.19c0-1.95,2.22-2.84,3.06-3,3.46-.44,10-5,10-6.73,0-5.41-20.69-3.15-20.69-10.68s12.58-11.51,16.52-11.51h.09c3.15,0,3.86.88,5.45,3a1.9,1.9,0,0,1,.31.93,2.58,2.58,0,0,1-2.61,2.26,2.86,2.86,0,0,1-1.82-.71c-.13-.09-.62-.58-.75-.58h-.09c-4.3,0-11.78,3.72-11.78,5.94,0,3,20.24,2,20.37,10.85Z"/>
      <path class="cls-1" d="M719.68,266.57a3,3,0,0,1-.85-.14,11.88,11.88,0,0,1-1.19-.39,14.36,14.36,0,0,0-3.59-.27c-7.09,0-20.91,1.64-24.49,3.14a4.27,4.27,0,0,1-1.82.4,2.84,2.84,0,0,1-3.1-2.61,2.5,2.5,0,0,1,.53-1.46c1.82-2.22,6.34-9.17,10.85-14.8,1.38-1.72,3.28-4.29,5.67-6.91-3.14.49-6.91,1.29-8,2.22a4.65,4.65,0,0,1-2.7,1.42,2.45,2.45,0,0,1-2-1.2,1.56,1.56,0,0,1-.4-1.06c0-1.24,1.33-2.7,3.45-3.94,1.29-.71,13.29-3.46,17-3.46a2.6,2.6,0,0,1,1,.13,2.82,2.82,0,0,1,1.37,2.35,2.3,2.3,0,0,1-.88,1.77c-7.36,6-12.85,13.47-18.12,21.53A156.13,156.13,0,0,1,714,261.38c3.19,0,5.67.23,6.55.89a2.76,2.76,0,0,1,1.37,2.22A2.12,2.12,0,0,1,719.68,266.57Z"/>
      <path class="cls-1" d="M750.15,258c-10,2.35-15.64,5.93-22.19,9.17-.93.44-3.5,1.95-4.7,1.95a.7.7,0,0,1-.31-.05c-1.41-.49-2.74-2.66-2.92-3.32,0-.18,0-.44,0-.75a21.86,21.86,0,0,1,.22-3c.18-1.68.57-11.61.57-14.71a4,4,0,0,0,0-.88,14,14,0,0,1-.71-2.62,1.83,1.83,0,0,1,.93-1.59,4,4,0,0,1,2.22-.66,3.24,3.24,0,0,1,1.1.17c2.22-.84,10.81-4,11.61-4.25a20.81,20.81,0,0,1,5.62-1.33,4.28,4.28,0,0,1,1.33.18,1.91,1.91,0,0,1,1.46,1.82,3.38,3.38,0,0,1-3.36,3,2.71,2.71,0,0,1-1.11-.22c-5,1.19-9.17,3.49-13.91,5.4v.84c0,1.46-.09,2.79-.17,4.25,3.36-1.37,9.7-4,11.07-4H737c1.46.31,2.08,1.15,2.08,2a3.05,3.05,0,0,1-2.34,2.7,55.33,55.33,0,0,0-11.3,5c-.13,1.86-.31,3.55-.31,5.36v.36c4.87-2.31,19.45-8.37,23.87-8.37a2.46,2.46,0,0,1,.89.13c1.11.49,2,1.33,2,2.08C751.83,257.22,751.39,257.75,750.15,258Z"/>
      <path class="cls-1" d="M773.1,264.44c0,2.53-1.2,3.68-2.44,3.68s-2.57-1.24-2.57-3.46v-.22c-.44-.31-1-.66-1.55-1-2.83-1.64-7-9.3-9.39-13.78-.71,4.56-1.82,11.65-1.82,13.64a.93.93,0,0,0,.09.49,4.31,4.31,0,0,1,.76,2.66c0,1.9-.8,4-2.57,4a3.34,3.34,0,0,1-1.82-.62c-.22-.13-.35-1.68-.35-3.85,0-5.27.57-14.17.84-15.77.35-2.08.26-10.23,1.06-11.38a3,3,0,0,1,2.3-1.33,2.29,2.29,0,0,1,2,1.2,23.3,23.3,0,0,1,2.26,5.18c1.6,4.69,4.56,11.43,8.11,14.57,0-2-.05-5.23-.05-8.06,0-2.44,0-4.65.09-5.85a11.74,11.74,0,0,0,0-1.33c0-1.19-.23-2.43-.23-3.67a2.38,2.38,0,0,1,2.62-2.7c2.21,0,2.7,3.36,2.7,6.77,0,2.79-.31,5.58-.31,6.69,0,1.55-.27,3.06-.27,5.41a38,38,0,0,0,.4,5.35,3.4,3.4,0,0,1,.58,1.78A3.09,3.09,0,0,1,773.1,264.44Z"/>
      <path class="cls-1" d="M787.27,243.09c-.66,6.25-1.59,12.4-1.59,18.69V264a4.48,4.48,0,0,1,.84,2.3,2.55,2.55,0,0,1-2.79,2.44,2.82,2.82,0,0,1-2.66-1.6,18.94,18.94,0,0,1-.27-4.34c0-7,.71-19.84,1.47-22.94a2.94,2.94,0,0,1,2.61-2.44c1.24,0,2.48,1.24,2.48,4.25C787.36,242.12,787.31,242.6,787.27,243.09Z"/>
      <path class="cls-1" d="M822.44,258c-10,2.35-15.64,5.93-22.19,9.17-.93.44-3.5,1.95-4.7,1.95a.67.67,0,0,1-.31-.05c-1.41-.49-2.74-2.66-2.92-3.32,0-.18,0-.44,0-.75a21.86,21.86,0,0,1,.22-3c.17-1.68.57-11.61.57-14.71a4,4,0,0,0,0-.88,14,14,0,0,1-.71-2.62,1.83,1.83,0,0,1,.93-1.59,4,4,0,0,1,2.21-.66,3.26,3.26,0,0,1,1.11.17c2.22-.84,10.81-4,11.61-4.25a20.81,20.81,0,0,1,5.62-1.33,4.28,4.28,0,0,1,1.33.18,1.91,1.91,0,0,1,1.46,1.82,3.38,3.38,0,0,1-3.36,3,2.71,2.71,0,0,1-1.11-.22c-5,1.19-9.17,3.49-13.91,5.4v.84c0,1.46-.09,2.79-.18,4.25,3.37-1.37,9.7-4,11.08-4h.13c1.46.31,2.08,1.15,2.08,2a3.05,3.05,0,0,1-2.35,2.7,55.48,55.48,0,0,0-11.29,5c-.13,1.86-.31,3.55-.31,5.36v.36c4.87-2.31,19.44-8.38,23.87-8.38a2.44,2.44,0,0,1,.89.14c1.11.49,2,1.33,2,2.08C824.12,257.22,823.68,257.75,822.44,258Z"/>
    </g>
    <path class="cls-5" d="M409.79,452.66a214.1,214.1,0,0,0,24.79,10.4l6.34,2.26,6.4,2.06c4.25,1.44,8.59,2.58,12.89,3.83a477.08,477.08,0,0,0,52.48,11.33L526,484.46l3.31.48c1.11.14,2.23.24,3.34.36l6.66.71,6.67.71,3.33.35c1.11.12,2.22.16,3.34.25l13.37.9c2.22.14,4.44.37,6.67.44l6.7.23,13.37.45c2.23.12,4.47,0,6.7,0l6.69,0,13.38-.08c8.91-.46,17.82-.77,26.69-1.47l13.29-1.31,6.63-.65c2.21-.23,4.41-.59,6.61-.88l13.2-1.67c2.21-.21,4.39-.59,6.58-.91l6.58-.95c2.19-.3,4.38-.61,6.58-.88,1.1-.15,2.2-.27,3.29-.44l3.28-.53c4.36-.7,8.74-1.34,13.13-2,17.47-2.85,34.9-6.1,52.22-10.16,4.32-1.07,8.69-2,13-3.18l6.49-1.68,6.45-1.81,3.24-.89,3.21-1c2.14-.66,4.32-1.25,6.46-2s4.31-1.33,6.42-2.08,4.28-1.46,6.38-2.22l1,1.72a120.35,120.35,0,0,1-11.34,7.95c-1.93,1.29-3.94,2.37-5.92,3.56l-3,1.73-3,1.62c-2,1.07-4.08,2.15-6.14,3.2l-6.24,3c-4.15,2-8.42,3.72-12.67,5.5a349.75,349.75,0,0,1-52.77,16.34c-4.5.93-9,1.85-13.54,2.71q-3.39.71-6.81,1.17l-6.83.95-6.85.9c-2.28.3-4.56.57-6.86.73l-13.75,1c-2.29.12-4.58.31-6.88.38l-6.89.14-13.75.3c-2.29.09-4.58,0-6.87,0l-6.87-.1-13.72-.11-13.71-.6-6.85-.31c-2.28-.12-4.56-.15-6.84-.38l-13.66-1.15-6.83-.57c-2.27-.19-4.54-.54-6.8-.8l-13.59-1.75c-1.13-.15-2.27-.27-3.4-.46l-3.38-.57-6.75-1.13-6.75-1.14c-1.13-.19-2.25-.37-3.37-.58l-3.36-.69-13.4-2.78a466.93,466.93,0,0,1-52.51-15.18c-4.26-1.59-8.56-3.07-12.76-4.86l-6.32-2.57c-2.09-.89-4.16-1.84-6.24-2.76a218.11,218.11,0,0,1-24.21-12.61Z"/>
  </g>
</svg>
