<?xml version="1.0" encoding="utf-8"?>
<!-- Generator: Adobe Illustrator 22.0.2, SVG Export Plug-In . SVG Version: 6.00 Build 0)  -->
<svg version="1.1" xmlns="http://www.w3.org/2000/svg" xmlns:xlink="http://www.w3.org/1999/xlink" x="0px" y="0px"
	 viewBox="0 0 1334.7 546.1" style="enable-background:new 0 0 1334.7 546.1;" xml:space="preserve">
<style type="text/css">
	.st0{display:none;}
	.st1{display:inline;}
	.st2{fill:#0025FF;}
	.st3{opacity:0.8;fill:#FF007F;}
	.st4{fill:#FFFFFF;}
	.st5{fill:none;stroke:#0000FF;stroke-width:2;stroke-miterlimit:10;}
	.st6{fill:#FFB400;}
	.st7{fill:#7FB800;}
	.st8{fill:#00A6ED;}
	.st9{fill:#F6511D;}
	.st10{fill:#0D2C54;}
	.st11{fill:none;stroke:#FF0000;stroke-width:25;stroke-miterlimit:10;}
	.st12{display:inline;fill:none;stroke:#0000FF;stroke-width:2;stroke-miterlimit:10;}
</style>
<g id="Warstwa_2" class="st0">
</g>
<g id="Warstwa_1">
	<g>
		<g>
			<path class="st10" d="M487.6,330.1c-2.4,1.2-4.4,2.2-5.8,3c-2.4,1-4,1.2-6.4,2.2c-3.6,1.4-6.8,2.4-10.8,3.8
				c-3.4-8.8-3.6-13.6-7-23.8c-1.6-4.6-2.6-7-5.8-14.4c-1.6-3.8-3.4-8.4-5.2-12.2c-2.8-5.6-6-11.6-9.8-16.4
				c-0.2,2.6-0.2,5.2-0.2,7.8c0,9.4,0.8,18.8,0.8,28.4c0,8.4,0.4,17,1.2,27.8c-2.8,0.6-5.4,1.4-8.4,2c-4.8,0.8-9.4,1.4-14.2,2.2
				c0-3-0.4-5.8-0.2-9.2c0-2.2,1.2-31.8,1.2-35c0.2-7.8,0.6-15.6,0.6-23c0-2.4-0.2-4.8-0.2-7.2c-0.4-9-1.2-18.2-2.2-27.2
				c-0.4-3.4-0.8-6.6-1.2-10c-0.2-1-0.4-2.8-0.6-4.6c3.2-1.4,6.6-2.2,9.4-3.2c5.6-1.8,12.2-3,17.8-4.2c2,8,4.8,17.2,7.2,24.2
				c1.6,5.4,3.6,10.8,5.8,16c1.4,3.4,2.4,6.2,4.8,11.2c1.8,3.6,1.8,3.6,3,5.8c0.2-5.2,0.2-8.8,0.2-12.6c0-3.8,0-8.2,0-14.4
				c0-6,0-12.2,0-18.4c0-2.6-1.2-19.8-0.6-23.6c3.6,0,7.4-0.2,11.2-0.4c3.6-0.2,7.6-1,11.2-0.8c-0.6,10-0.6,20-0.6,30.2
				c0,10.2,0,20.6-0.4,31.8c0,2.2,0,4.4,0,6.6c0,5.2,0,10.6,0.2,15.6C483.4,301.9,484.2,316.1,487.6,330.1z"/>
			<path class="st10" d="M579,328.9c-7.6,2.4-17.4,5.6-22.6,7c-0.2-0.2-1-4-1-4.2c-0.6-4.8-1.4-7.2-2.4-13.4c-0.8-3-1.4-6.2-2-9.2
				c-7.8,1.4-18,3.4-26,5.2c-1.8,8.6-4,18-6.6,26.2c-7-1.8-16.6-3.2-21.4-4.6c0.6-1.6,2.2-7,2.6-8.6c1-3.2,2.6-6.6,3.4-10.4
				c0.6-2.6,1-5.2,1.6-7.6c0.8-3,1.2-5,2-8.6c0.6-3,1-7,1.8-10c1.2-5.4,2-11.6,3.4-19.2c2-11.4,4-21.8,5.4-33.2c1-6.8,1.2-12.4,2-19
				c0.2-1.4,0-6.2,0.2-7.4c6.6-1.2,24.2-6.6,33-7.8c0.8,3.8,1.6,8.2,2.2,11.6c1.6,9.4,1.8,19,3.4,26.6c1.4,7.8,3,14.8,4.6,22.2
				c1.6,7.4,3.2,15.6,5,23c1.4,5.6,3.6,12.6,4.8,18.4c0.8,4,1.8,8,3.2,11.6C576.4,320.3,578,326.1,579,328.9z M547.2,290.1
				c-0.4-1.8-0.8-3.6-1.2-5.4c-1.2-6-2.8-11.4-3.8-17.4c-0.6-4.4-1.4-8.4-2.6-12.8c-0.8-3.6-1.4-8-2.6-11.6
				c-1.4,4.6-1.8,9.6-2.6,14.4c-1,5.6-2,11.6-2.8,17.4c-0.8,6.2-1.8,12.4-2.6,18.4C535.2,291.9,542.2,290.9,547.2,290.1z"/>
			<path class="st10" d="M668.4,311.5c0,11.2-8.8,21.8-19.6,27.2c-5,2.6-11.8,3.8-17.4,4.2c-6.6,0.6-17.2-0.2-22.4-2.8
				c-2.6-1.4-4.8-3-7.2-4.6c-6.2-4.2-10.6-11.2-12.4-16.6c-0.6-2.2-2.8-9.8-1.6-15.8c7-1.6,12.6-1.4,17.2-1.6h5.8
				c0,5,0.8,11.6,2.8,13.8c4,3.8,10.2,6,16.2,6c5.4,0,10.8-1.8,14-5.4c5.4-6.2-11.8-15-19.2-19.8c-9.6-6.6-16.2-9.6-24-17
				c-7-6.8-9.6-18.2-9.6-27.4c0-3.8,0.4-7.2,1.2-10c5.2-17.4,21.6-38.4,43.2-38.4c5,0,9.4,0.6,13.4,4c3.2,2.8,3.8,3.6,6,7.4
				c3.2,6.4,3.2,15.2,3.8,22.6c0.4,3.8-1,18-2.8,23c-8.4-0.6-17-2.6-21.2-3.6c0.4-2.4,1.8-13.2,2-14.8c0.2-5.8-0.2-10.8-1.6-14.2
				c-3.2-7-20,13.4-21,19.8c-2.6,15.8,5,17.4,20.2,28.2c4.2,3,11.4,7,15.4,10.4c5.6,4.2,7.8,5.2,11.6,9.2
				C666,300.3,668.4,305.9,668.4,311.5z"/>
			<path class="st10" d="M748.4,327.1c-6.8,3.4-15.6,4.8-24.4,6.8c-8.4,1.6-22.2,3.6-30.4,4.8c-2.2,0.4-4.6,1-7.8,1.4
				c-6.2-8.4-7.4-14.2-8.4-18c6-11.8,14.2-28.4,20-40.2c3.4-7,6.8-13,11-21c1.2-2.4,5.4-12.6,9.2-20.2c1.2-2,4.2-7.2,5-9.6
				c-3.6,0.6-10.6,2.6-14,3.6c-7.8,2.2-16,4-24,6c-3.8-7-5-16-6.2-21c9.2-2.6,18.8-3.8,28.2-6c6.2-1.4,12-3.6,18.2-5.2
				c2.8-0.8,7-2.4,11.6-3.6c2.8,3.2,9.4,9,13.4,17.8c-1.8,4.2-4,8.6-5.4,11.2c-3.4,7.2-12.8,26.8-16.6,33.8
				c-4.8,9.6-8.6,17.2-12.2,25c-3.4,7-7,13.4-10.4,21.4c7.6-1,13.4-1.4,21.6-3.4c5-1.2,11-2.8,16.2-4.2
				C745,313.5,747.2,319.3,748.4,327.1z"/>
			<path class="st10" d="M825.2,328.1c-9.2,2.4-19,3.6-28.4,6.4c-2.6,0.8-9.2,1.6-19.6,3.8c-2.8,0.6-6.4,1.6-10.4,2.4
				c-0.2-3.2-0.4-6.6-0.4-10c0-2.2,0.2-4.4,0.2-6.6c0.6-10.8,1.4-22.8,1.6-33.8c0.2-7.4,0.4-14.6,0.4-22c0-4.4,0-8.8-0.2-13.6
				c-0.2-4.2-0.2-11.2-0.2-15.2c-2.4,0.6-5,1.4-7.4,1.8c-1-7.2-2.8-14.8-2.2-22.4c1.6-0.4,2.6-1,3.8-1.4c3.4-0.8,5.4-1.4,8.6-2
				c3-0.8,5.8-1.4,8.8-2c3.6-0.8,7.2-1.6,11-2.6c9.6-2.2,28.2-7.2,36.6-8c0.8,4.8,2,12.4,2.4,22.4c-2.8,0.4-5.8,0.8-8.4,1.4
				c-9.6,2-21.8,5-32.6,7.6c0,1.4,0,2.6,0,4c0,9,0.2,21,0.2,29.8c0,1.4,0,2.4,0,3.6c3.4-0.8,6.6-1.4,10-2.2c7-1.6,15.4-3.2,22.4-4.6
				c0.6,4.8,1.8,15.4,1.2,23c-3.6,0.8-7.4,1.6-10.2,2c-5.6,1-11.6,1.8-17.4,3c-2.4,0.4-4.6,1-7.2,1.8c-0.2,4-0.2,8-0.2,11.8
				c0,3,0,5.8,0.2,8.6c7.4-1.8,13.8-3,20.6-4.6c8-1.8,17.2-4.2,25-5.8c0.2,5.2,0.6,13,0.4,21.6C830.8,326.9,827,327.7,825.2,328.1z"
				/>
		</g>
		<g>
			<path class="st7" d="M961.7,264.4c-0.8,11.8-5.8,22.2-13.8,34.2c-8.2,12.2-17,20.4-28.2,28.4c-4.6,3.4-9.4,5.4-15,8.8
				c-2.4,1.4-7.4,3.2-9.8,4.2c-2,0.8-4.4,1.4-6.4,2c-0.8-2.8-0.8-5.8-1-7.8c-0.4-3-0.4-6.8-0.4-9.8c0.2-6.2,0.4-12.4,0.6-18.6
				c0.4-12.2,1.2-23.8,1.2-35.8c0-3.2,0-6.6-0.2-9.8c-0.4-10-0.8-20.4-1-30.2c-3-0.8-6.2-0.4-9.6-1c0.4-8.4,2-18.8,2.8-23.8
				c8.6,0.4,13.4-0.2,23.2,3.2c3.8,1.2,7.8,2.4,11.2,4c1.8,0.6,3.8,1.8,5.6,2.6c7,3.6,9.8,6,13.2,8.6c5.2,4.6,9.8,9.2,14.6,14.8
				c3.6,4,6.2,7.4,8.6,12.8C959.1,255,961.9,259.8,961.7,264.4z M938.3,273.2c0.8-1.8,1.2-4,1.2-5.8c0-13.8-18.8-29.4-30-33.6
				c-0.2,2.6-0.4,9.4-0.4,12.4c0.4,6.2,0.2,12.8,0.6,19c0.2,3.4,0,8.2,0.2,11.6c0.4,6.4-0.4,11.4-0.4,17.6c0,4.2,0,7.4-0.2,12.6
				C909.3,307,929.1,296.6,938.3,273.2z"/>
			<path class="st7" d="M1031.9,328.2c-6.8,3.4-15.6,4.8-24.4,6.8c-8.4,1.6-22.2,3.6-30.4,4.8c-2.2,0.4-4.6,1-7.8,1.4
				c-6.2-8.4-7.4-14.2-8.4-18c6-11.8,14.2-28.4,20-40.2c3.4-7,6.8-13,11-21c1.2-2.4,5.4-12.6,9.2-20.2c1.2-2,4.2-7.2,5-9.6
				c-3.6,0.6-10.6,2.6-14,3.6c-7.8,2.2-16,4-24,6c-3.8-7-5-16-6.2-21c9.2-2.6,18.8-3.8,28.2-6c6.2-1.4,12-3.6,18.2-5.2
				c2.8-0.8,7-2.4,11.6-3.6c2.8,3.2,9.4,9,13.4,17.8c-1.8,4.2-4,8.6-5.4,11.2c-3.4,7.2-12.8,26.8-16.6,33.8
				c-4.8,9.6-8.6,17.2-12.2,25c-3.4,7-7,13.4-10.4,21.4c7.6-1,13.4-1.4,21.6-3.4c5-1.2,11-2.8,16.2-4.2
				C1028.5,314.6,1030.7,320.4,1031.9,328.2z"/>
			<path class="st7" d="M1047.1,337.8c0-3.2,0.4-6.8,0.4-9.6c0.4-11.6,1.2-23,1.2-34.4c0-14.8,0-29.4,0-44c0-4.2,0-8.6,0-12.8
				c0-6.6,0-12.8-0.4-19.4c-0.2-1.8-0.2-3.8-0.4-5.8c5.4-1,14.4-2.4,21.4-3c0,2.2,0,4.4,0,6.4c0.2,6.4,0,11.8-0.2,19.8
				c-0.2,3.8-0.2,7.4-0.2,11.2c0,14.4,0.8,28.6,0.6,43.2c-0.2,14.8,0.8,29.6,0.8,44.6C1062.3,335.8,1052.1,337.2,1047.1,337.8z"/>
			<path class="st7" d="M1151.1,329.2c-9.2,2.4-19,3.6-28.4,6.4c-2.6,0.8-9.2,1.6-19.6,3.8c-2.8,0.6-6.4,1.6-10.4,2.4
				c-0.2-3.2-0.4-6.6-0.4-10c0-2.2,0.2-4.4,0.2-6.6c0.6-10.8,1.4-22.8,1.6-33.8c0.2-7.4,0.4-14.6,0.4-22c0-4.4,0-8.8-0.2-13.6
				c-0.2-4.2-0.2-11.2-0.2-15.2c-2.4,0.6-5,1.4-7.4,1.8c-1-7.2-2.8-14.8-2.2-22.4c1.6-0.4,2.6-1,3.8-1.4c3.4-0.8,5.4-1.4,8.6-2
				c3-0.8,5.8-1.4,8.8-2c3.6-0.8,7.2-1.6,11-2.6c9.6-2.2,28.2-7.2,36.6-8c0.8,4.8,2,12.4,2.4,22.4c-2.8,0.4-5.8,0.8-8.4,1.4
				c-9.6,2-21.8,5-32.6,7.6c0,1.4,0,2.6,0,4c0,9,0.2,21,0.2,29.8c0,1.4,0,2.4,0,3.6c3.4-0.8,6.6-1.4,10-2.2c7-1.6,15.4-3.2,22.4-4.6
				c0.6,4.8,1.8,15.4,1.2,23c-3.6,0.8-7.4,1.6-10.2,2c-5.6,1-11.6,1.8-17.4,3c-2.4,0.4-4.6,1-7.2,1.8c-0.2,4-0.2,8-0.2,11.8
				c0,3,0,5.8,0.2,8.6c7.4-1.8,13.8-3,20.6-4.6c8-1.8,17.2-4.2,25-5.8c0.2,5.2,0.6,13,0.4,21.6
				C1156.7,328,1152.9,328.8,1151.1,329.2z"/>
			<path class="st7" d="M1253.5,323.6c-2,3.8-12.6,11.6-16.8,14.2c-5.2,3.4-10.4,4-16.4,4.8c-7.8,1-18.6-3.2-26-8.8
				c-8.6-7-14.4-15.2-19.4-26.4c-2.8-5.8-4-12-4-18.2c0-4.4,0.6-9,1.6-13.4c2.2-8.4,5.4-20.8,8.6-28.2c4.2-9.2,7.2-15.2,13-23
				c5.4-7.2,15.2-14.8,22.8-18.2c4-1.6,9.8-2,14.2-0.8c3.8,1.2,9.6,3.6,11.4,11c2.2,9.2,3,16.8,2.6,26.6c0,1.8,0,5,0,9.2
				c0,6.4,0,14.8-0.8,23.2c-6.8,0.4-16.8,0.6-21.6,1.2c0.6-9.6,0.6-20.8,1-29c0.2-4.4-0.4-19.4-6.6-14.6c-5,3.6-7.4,6.6-10,10.4
				c-5,8-9.2,19.2-12.4,28.8c-1.4,4.4-2.6,11-2.6,15.6c-0.2,4.4,1.2,11.6,3.6,15c4.8,6.8,10.4,14.6,17.4,17.4c5.6,2.2,11,0.2,16-3.6
				c2.4-1.6,8.2-6.4,9.6-8.4C1242.3,310.8,1249.5,317.8,1253.5,323.6z"/>
			<path class="st7" d="M1266.1,337.8c0-3.2,0.4-6.8,0.4-9.6c0.4-11.6,1.2-23,1.2-34.4c0-14.8,0-29.4,0-44c0-4.2,0-8.6,0-12.8
				c0-6.6,0-12.8-0.4-19.4c-0.2-1.8-0.2-3.8-0.4-5.8c5.4-1,14.4-2.4,21.4-3c0,2.2,0,4.4,0,6.4c0.2,6.4,0,11.8-0.2,19.8
				c-0.2,3.8-0.2,7.4-0.2,11.2c0,14.4,0.8,28.6,0.6,43.2c-0.2,14.8,0.8,29.6,0.8,44.6C1281.3,335.8,1271.1,337.2,1266.1,337.8z"/>
		</g>
	</g>
	<g>
		<path class="st9" d="M439.1,179c0,5.7-7.6,8.8-11.6,10.9c-0.8,1.6-1.9,2.1-3.1,2.1c-1.4,0-2.7-0.8-3.1-1.6
			c-0.1-0.4-0.2-0.8-0.2-1.2c0-1.9,2.2-2.8,3.1-3c3.5-0.4,10-5,10-6.7c0-5.4-20.7-3.1-20.7-10.7c0-7.5,12.6-11.5,16.5-11.5h0.1
			c3.1,0,3.9,0.9,5.4,3c0.2,0.3,0.3,0.6,0.3,0.9c0,1.1-1.2,2.3-2.6,2.3c-0.6,0-1.2-0.2-1.8-0.7c-0.1-0.1-0.6-0.6-0.8-0.6h-0.1
			c-4.3,0-11.8,3.7-11.8,5.9C418.7,171,439,170.1,439.1,179L439.1,179z"/>
		<path class="st9" d="M471.7,162.9c-0.8,0-1.4-0.3-1.7-1.2c-4.9,0.2-10.1,0.3-14.9,1.9c-0.1,1.5-0.9,12-0.9,17.8
			c0,1.9,0.1,3.2,0.3,3.5c0.2,0.3,0.3,0.7,0.3,1.1c0,1.5-0.9,3.5-2.7,3.5c-0.5,0-1.1-0.2-1.8-0.6c-0.5-0.3-0.7-8.5-0.7-14.1
			c0-2.3,0-4.2,0.1-4.8c0.2-1.5,0.2-2.5,0.2-3.6c0-0.5,0-1,0-1.6c-2.4,0.5-6.6,1.3-8,1.3c-0.2,0-0.4,0-0.4,0
			c-1.3-0.4-1.9-1.6-1.9-2.6c0-1.3,0.9-2.5,2.8-2.6c0.5,0,0.7,0,1.5,0c1.3,0,3.3-0.2,6.6-1.1c0.4-0.8,1.2-1.4,2.3-1.4
			c0.5,0,1,0.1,1.5,0.4c2.8-0.5,14.1-1.4,18.1-1.4c0.8,0,1.2,0,1.4,0.1c1,0.4,2.2,1.2,2.2,3C475.7,161.1,473.4,162.9,471.7,162.9z"
			/>
		<path class="st9" d="M498.7,171.5c-0.4,6.1-12.5,17.1-22,17.1c-1.4,0-2.8-0.3-4.1-0.8c-3.8-1.6-5.2-4.6-5.2-8.1
			c0-8.7,9.5-20.2,15.1-20.3h0.3c2.6,0,4,0.8,4.7,1.4c7,1.4,11.3,4.4,11.3,10.1V171.5z M484.1,165.4c-0.3,0-0.4,0-0.6,0
			c-1,0.5-1.9,1.3-3,1.3c-0.5,0-1-0.1-1.5-0.5c-4.4,3.8-6.4,9.3-6.4,13c0,1.9,0.5,3.4,1.6,3.9c0.9,0.4,1.9,0.7,2.9,0.7
			c6.8,0,16.3-8.6,16.4-12.5V171C493.6,165.8,486.6,165.4,484.1,165.4z"/>
		<path class="st9" d="M538.3,161.6c-0.2,0.3-7.6,27-12.7,27h0c-1.5,0-2.4-0.2-3-1.9c-0.3-0.9-0.5-2.5-1.7-5.7
			c-1.6-4-2.2-8.5-2.6-12.7c-3.1,5.3-5.1,10.9-7.2,16.7c-0.7,1.9-1,2.4-1.6,2.8c-0.6,0.4-1.2,0.5-1.8,0.5c-1.1,0-2-0.5-2.5-1.1
			c-0.4-0.6-0.5-1.3-0.5-2.1c0-0.6,0-1.2,0-1.8c0-0.2,0-0.4,0-0.7c-0.8-6.9-1.8-13.8-3.7-20.5c-0.1-0.3-0.1-0.5-0.1-0.8
			c0-1.6,1.3-2.7,2.8-2.7c0.6,0,1.2,0.2,1.8,0.5c1,0.7,1.2,1.5,1.5,3.7c0.4,4.6,1.3,8.9,2,13.3c1.9-4.4,4.3-8.5,6.7-12.5
			c1.2-2.1,2.1-3.6,2.3-4.3c0.2-0.6,1.7-1.6,3.1-1.6c1.1,0,2.2,0.7,2.3,2.7v0.2c0,0.5,0,1.1-0.1,1.9v2c0,7.5,0.8,11.3,2.7,16.6
			c1.3-2.3,3.5-7,6-15.2c1-3.5,1.3-5.6,1.7-6.9c0.4-1.6,1.2-2.6,2.9-2.6h0.4c1.9,0.2,2.4,1,2.4,2
			C539.4,159.7,538.7,160.9,538.3,161.6z"/>
		<path class="st9" d="M562.7,175.9c-0.2,0-0.5,0-0.8-0.1l-3.8,1.1l2.3,10.2c0.5,0.5,1.2,1.3,1.2,2.3c0,0.7-0.4,1.4-1.6,2.1
			c-0.3,0.2-0.6,0.2-0.9,0.2c-1.4,0-2.9-1.2-2.9-2.7l-2.6-10.7c-3.2,1-6.4,2-9.5,3.2c-0.7,1.3-1.2,2.6-1.4,4.1
			c-0.2,1.8-1.4,2.7-2.5,2.7c-0.9,0-1.8-0.5-2.2-1.6c0-0.1,0-0.2,0-0.4c0-1,0.5-3,1.2-4.8c-0.8-0.6-1-1.2-1-1.8c0-1.4,1.6-2.7,3-3.1
			l8.1-17.9c0.6-1.4,1.6-2.1,2.5-2.1c1.1,0,2,0.9,2.4,2.7c0,0,0.2,2.4,0.9,4.8c0.5,1.7,1.4,5.4,2.1,8.5l4.2-1.2
			c0.6-0.3,1.2-0.4,1.7-0.4c1.4,0,2.2,1.2,2.2,2.4C565.1,174.7,564.3,175.9,562.7,175.9z M550.7,166.9c-1.5,2.9-2.9,5.8-4.2,8.7
			c2-0.4,4.1-0.9,6.1-1.5C552.1,171.7,551.4,169.3,550.7,166.9z"/>
		<path class="st9" d="M597.8,187c-0.4,1.2-1.1,1.5-1.8,1.5c-1.2,0-2.4-0.7-3.3-1c-6.8-2.3-14-6.6-19.7-11c-0.1,2.1-0.4,5.3-0.4,7.8
			v0c0,0.9,0.6,1.6,0.6,2.6c0,0.4-0.1,0.8-0.4,1.3c-0.6,1-1.6,1.4-2.6,1.4c-0.8,0-1.6-0.3-2.1-0.9c-0.3-0.3-0.4-1.3-0.4-2.7
			c0-4.1,0.8-11.5,0.8-13.1c-0.2-0.3-0.5-0.4-0.5-1.4c0-0.6,0.7-1.1,0.7-1.1c0.1-1.4,0.4-4.2,0.4-5.6c0-0.3,0-0.5,0-0.6
			c0-0.4-0.1-0.8-0.1-1.2c0-1.7,0.7-3,1.8-3.5c0.4-0.2,0.8-0.3,1.2-0.3c0.8,0,1.5,0.4,2,1c1.9-0.8,6.8-2.3,10.8-2.3
			c3,0,5.5,0.9,5.8,3.7v0.4c0,4.1-5.8,7.9-14.1,11.2c4.7,3.9,14.5,9.4,18.6,9.9c0.8,0.1,2.9,0.9,2.9,2.9
			C598,186.4,597.9,186.7,597.8,187z M585,162c-0.8,0-2.3,0.4-3.8,0.7c-2.7,0.5-4.8,1.3-5.7,2c-0.3,0.2-0.5,0.4-0.8,0.4
			c-0.2,1.4-0.5,2.7-0.8,4.1c3.7-1.1,11.6-4.3,11.6-6.9v0C585.6,162.1,585.3,162,585,162z"/>
		<path class="st9" d="M632.6,186.9c-0.3,0-0.5,0-0.8-0.1c-0.5-0.1-1-0.4-1.2-0.4c-0.8-0.2-2-0.3-3.6-0.3c-7.1,0-20.9,1.6-24.5,3.1
			c-0.7,0.3-1.3,0.4-1.8,0.4c-1.9,0-3.1-1.2-3.1-2.6c0-0.5,0.2-1,0.5-1.5c1.8-2.2,6.3-9.2,10.9-14.8c1.4-1.7,3.3-4.3,5.7-6.9
			c-3.1,0.5-6.9,1.3-8,2.2c-0.9,0.8-1.8,1.4-2.7,1.4c-0.7,0-1.3-0.3-2-1.2c-0.3-0.3-0.4-0.7-0.4-1.1c0-1.2,1.3-2.7,3.5-3.9
			c1.3-0.7,13.3-3.5,17.1-3.5c0.5,0,0.8,0,1,0.1c0.9,0.5,1.4,1.5,1.4,2.3c0,0.7-0.3,1.3-0.9,1.8c-7.4,6-12.8,13.5-18.1,21.5
			c4.2-0.8,14.6-1.9,21.5-1.9c3.2,0,5.7,0.2,6.6,0.9c1,0.7,1.4,1.5,1.4,2.2C634.9,186,634,186.9,632.6,186.9z"/>
		<path class="st9" d="M655.6,161.1c-0.3,0.3-0.7,0.4-1,0.7c-0.8,1.4-3.7,4.7-10.4,10.3c0.1,0.9,0.1,1.9,0.1,2.8
			c0,1.7-0.1,3.4-0.2,5c0,0.8,0,1.6,0,2.3c0,1.8,0.1,3.4,0.6,4.4c0.3,0.7,0.4,1.3,0.4,1.8c0,1.6-1.2,2.4-2.5,2.4c-1.4,0-3-1-3-2.8
			c0-0.2,0-0.4,0.1-0.7v-0.3c0-0.5-0.1-1.4-0.2-1.8c-0.5-3.5-0.5-7-0.6-10.5c-1.2-0.7-1.1-1.2-1.4-2.4c-0.6-2.2-2-7.4-3.9-8.5
			c-1-0.6-1.6-0.8-1.6-2.2v0c0-1.6,1-2.2,2.2-2.2c1.6,0,3.5,1.1,4.5,2.6c0.7,1.2,1.1,2.5,2.6,6.1c3.7-2.7,7.4-6.2,10.1-9.6
			c0.8-1.1,1.8-1.5,2.7-1.5c1.4,0,2.6,1.2,2.6,2.4C656.5,160,656.3,160.6,655.6,161.1z"/>
		<path class="st9" d="M682.5,179c0,5.7-7.6,8.8-11.6,10.9c-0.8,1.6-1.9,2.1-3.1,2.1c-1.4,0-2.7-0.8-3.1-1.6
			c-0.1-0.4-0.2-0.8-0.2-1.2c0-1.9,2.2-2.8,3.1-3c3.5-0.4,10-5,10-6.7c0-5.4-20.7-3.1-20.7-10.7c0-7.5,12.6-11.5,16.5-11.5h0.1
			c3.1,0,3.9,0.9,5.4,3c0.2,0.3,0.3,0.6,0.3,0.9c0,1.1-1.2,2.3-2.6,2.3c-0.6,0-1.2-0.2-1.8-0.7c-0.1-0.1-0.6-0.6-0.8-0.6h-0.1
			c-4.3,0-11.8,3.7-11.8,5.9C662.1,171,682.4,170.1,682.5,179L682.5,179z"/>
		<path class="st9" d="M718.4,186.9c-0.3,0-0.5,0-0.8-0.1c-0.5-0.1-1-0.4-1.2-0.4c-0.8-0.2-2-0.3-3.6-0.3c-7.1,0-20.9,1.6-24.5,3.1
			c-0.7,0.3-1.3,0.4-1.8,0.4c-1.9,0-3.1-1.2-3.1-2.6c0-0.5,0.2-1,0.5-1.5c1.8-2.2,6.3-9.2,10.9-14.8c1.4-1.7,3.3-4.3,5.7-6.9
			c-3.1,0.5-6.9,1.3-8,2.2c-0.9,0.8-1.8,1.4-2.7,1.4c-0.7,0-1.3-0.3-2-1.2c-0.3-0.3-0.4-0.7-0.4-1.1c0-1.2,1.3-2.7,3.5-3.9
			c1.3-0.7,13.3-3.5,17.1-3.5c0.5,0,0.8,0,1,0.1c0.9,0.5,1.4,1.5,1.4,2.3c0,0.7-0.3,1.3-0.9,1.8c-7.4,6-12.8,13.5-18.1,21.5
			c4.2-0.8,14.6-1.9,21.5-1.9c3.2,0,5.7,0.2,6.6,0.9c1,0.7,1.4,1.5,1.4,2.2C720.6,186,719.7,186.9,718.4,186.9z"/>
		<path class="st9" d="M748.8,178.3c-10,2.3-15.6,5.9-22.2,9.2c-0.9,0.4-3.5,1.9-4.7,1.9c-0.1,0-0.2,0-0.3,0
			c-1.4-0.5-2.7-2.7-2.9-3.3c0-0.2,0-0.4,0-0.8c0-1,0.1-2.5,0.2-3c0.2-1.7,0.6-11.6,0.6-14.7c0-0.5,0-0.8,0-0.9
			c-0.2-0.8-0.7-1.8-0.7-2.6c0-0.6,0.2-1.1,0.9-1.6c0.7-0.4,1.4-0.7,2.2-0.7c0.4,0,0.8,0,1.1,0.2c2.2-0.8,10.8-4,11.6-4.3
			c1.5-0.5,3.8-1.3,5.6-1.3c0.5,0,0.9,0,1.3,0.2c1,0.4,1.5,1.1,1.5,1.8c0,1.4-1.5,3-3.4,3c-0.4,0-0.7,0-1.1-0.2
			c-5,1.2-9.2,3.5-13.9,5.4v0.8c0,1.5-0.1,2.8-0.2,4.3c3.4-1.4,9.7-4,11.1-4h0.1c1.5,0.3,2.1,1.2,2.1,2c0,1.1-1,2.3-2.3,2.7
			c-3.6,1-8.2,3.1-11.3,5c-0.1,1.9-0.3,3.5-0.3,5.4v0.4c4.9-2.3,19.4-8.4,23.9-8.4c0.4,0,0.7,0,0.9,0.1c1.1,0.5,2,1.3,2,2.1
			C750.5,177.5,750.1,178.1,748.8,178.3z"/>
		<path class="st9" d="M771.8,184.8c0,2.5-1.2,3.7-2.4,3.7s-2.6-1.2-2.6-3.5v-0.2c-0.4-0.3-1-0.7-1.6-1c-2.8-1.6-7-9.3-9.4-13.8
			c-0.7,4.6-1.8,11.6-1.8,13.6c0,0.3,0,0.4,0.1,0.5c0.5,0.6,0.8,1.6,0.8,2.7c0,1.9-0.8,4-2.6,4c-0.5,0-1.1-0.2-1.8-0.6
			c-0.2-0.1-0.4-1.7-0.4-3.9c0-5.3,0.6-14.2,0.8-15.8c0.4-2.1,0.3-10.2,1.1-11.4c0.5-0.7,1.4-1.3,2.3-1.3c0.7,0,1.4,0.4,1.9,1.2
			c1,1.6,1.6,3.4,2.3,5.2c1.6,4.7,4.6,11.4,8.1,14.6c0-2,0-5.2,0-8.1c0-2.4,0-4.7,0.1-5.8c0-0.4,0-0.9,0-1.3c0-1.2-0.2-2.4-0.2-3.7
			c0-1.3,0.5-2.7,2.6-2.7c2.2,0,2.7,3.4,2.7,6.8c0,2.8-0.3,5.6-0.3,6.7c0,1.6-0.3,3.1-0.3,5.4c0,1.4,0.1,3.1,0.4,5.4
			c0.3,0.5,0.6,1.1,0.6,1.8C772.2,183.7,772.1,184.2,771.8,184.8z"/>
		<path class="st9" d="M786,163.4c-0.7,6.2-1.6,12.4-1.6,18.7v2.2c0.6,0.9,0.8,1.7,0.8,2.3c0,1.6-1.4,2.4-2.8,2.4
			c-1.1,0-2.2-0.5-2.7-1.6c-0.2-0.4-0.3-2-0.3-4.3c0-7,0.7-19.8,1.5-22.9c0.4-1.5,1.5-2.4,2.6-2.4c1.2,0,2.5,1.2,2.5,4.3
			C786,162.4,786,162.9,786,163.4z"/>
		<path class="st9" d="M821.1,178.3c-10,2.3-15.6,5.9-22.2,9.2c-0.9,0.4-3.5,1.9-4.7,1.9c-0.1,0-0.2,0-0.3,0
			c-1.4-0.5-2.7-2.7-2.9-3.3c0-0.2,0-0.4,0-0.8c0-1,0.1-2.5,0.2-3c0.2-1.7,0.6-11.6,0.6-14.7c0-0.5,0-0.8,0-0.9
			c-0.2-0.8-0.7-1.8-0.7-2.6c0-0.6,0.2-1.1,0.9-1.6c0.7-0.4,1.4-0.7,2.2-0.7c0.4,0,0.8,0,1.1,0.2c2.2-0.8,10.8-4,11.6-4.3
			c1.6-0.5,3.8-1.3,5.6-1.3c0.5,0,0.9,0,1.3,0.2c1,0.4,1.5,1.1,1.5,1.8c0,1.4-1.5,3-3.4,3c-0.4,0-0.7,0-1.1-0.2
			c-5,1.2-9.2,3.5-13.9,5.4v0.8c0,1.5-0.1,2.8-0.2,4.3c3.4-1.4,9.7-4,11.1-4h0.1c1.5,0.3,2.1,1.2,2.1,2c0,1.1-1,2.3-2.3,2.7
			c-3.6,1-8.2,3.1-11.3,5c-0.1,1.9-0.3,3.5-0.3,5.4v0.4c4.9-2.3,19.4-8.4,23.9-8.4c0.4,0,0.7,0,0.9,0.1c1.1,0.5,2,1.3,2,2.1
			C822.8,177.5,822.4,178.1,821.1,178.3z"/>
	</g>
	<path class="st6" d="M641.7,379.5c7.9,4,16.4,7.4,24.8,10.4l6.3,2.3l6.4,2.1c4.2,1.4,8.6,2.6,12.9,3.8c17.3,4.8,34.8,8.5,52.5,11.3
		l13.3,1.9l3.3,0.5c1.1,0.1,2.2,0.2,3.3,0.4l6.7,0.7l6.7,0.7l3.3,0.4c1.1,0.1,2.2,0.2,3.3,0.2l13.4,0.9c2.2,0.1,4.4,0.4,6.7,0.4
		l6.7,0.2l13.4,0.5c2.2,0.1,4.5,0,6.7,0l6.7,0l13.4-0.1c8.9-0.5,17.8-0.8,26.7-1.5l13.3-1.3l6.6-0.7c2.2-0.2,4.4-0.6,6.6-0.9
		l13.2-1.7c2.2-0.2,4.4-0.6,6.6-0.9l6.6-0.9c2.2-0.3,4.4-0.6,6.6-0.9c1.1-0.1,2.2-0.3,3.3-0.4l3.3-0.5c4.4-0.7,8.7-1.3,13.1-2
		c17.5-2.9,34.9-6.1,52.2-10.2c4.3-1.1,8.7-2,13-3.2l6.5-1.7l6.5-1.8l3.2-0.9l3.2-1c2.1-0.7,4.3-1.3,6.5-1.9
		c2.1-0.7,4.3-1.3,6.4-2.1c2.2-0.7,4.3-1.5,6.4-2.2l1,1.7c-3.6,2.9-7.4,5.5-11.3,7.9c-1.9,1.3-3.9,2.4-5.9,3.6l-3,1.7l-3,1.6
		c-2,1.1-4.1,2.2-6.1,3.2l-6.2,3c-4.2,2-8.4,3.7-12.7,5.5c-17.1,6.9-34.8,12.2-52.8,16.3c-4.5,0.9-9,1.8-13.5,2.7
		c-2.3,0.5-4.5,0.9-6.8,1.2l-6.8,1l-6.8,0.9c-2.3,0.3-4.6,0.6-6.9,0.7l-13.8,1c-2.3,0.1-4.6,0.3-6.9,0.4l-6.9,0.1l-13.8,0.3
		c-2.3,0.1-4.6,0-6.9,0l-6.9-0.1l-13.7-0.1l-13.7-0.6l-6.8-0.3c-2.3-0.1-4.6-0.2-6.8-0.4l-13.7-1.1l-6.8-0.6
		c-2.3-0.2-4.5-0.5-6.8-0.8l-13.6-1.8c-1.1-0.2-2.3-0.3-3.4-0.5l-3.4-0.6l-6.8-1.1l-6.8-1.1c-1.1-0.2-2.3-0.4-3.4-0.6l-3.4-0.7
		l-13.4-2.8c-17.8-4.1-35.4-9-52.5-15.2c-4.3-1.6-8.6-3.1-12.8-4.9l-6.3-2.6c-2.1-0.9-4.2-1.8-6.2-2.8c-8.3-3.8-16.4-7.8-24.2-12.6
		L641.7,379.5z"/>
	<g>
		<g>
			<path class="st10" d="M130.8,362.4c-6.7-9.8-15.1,8.5-19.7,13.9c-4.6,5.3-10,10.2-13.5,14.8s-14.6,13.5-7.9,17.7
				c6,3.7,12.3-8.3,15.7-11.8c3.4-3.5,10.3-12,13.2-15.5C121.4,378,133.8,366.8,130.8,362.4z"/>
			<path class="st10" d="M107.9,309.9c15.5-2.9,18.1,11.4,23.9-5.8c1.6-4.7-0.7-5.7-4-5.6c-4.7,0.1-11.3,1.5-19.1-0.6
				s-18.4-7.4-15.5,1.9C94.7,304.6,100.2,311.4,107.9,309.9z"/>
			<path class="st10" d="M94.1,371.7c5.3-4.1,8.4-6.3,12.1-9.1c3.6-2.8,16.4-8.2,14.3-13.1c-4.1-9.6-16.5,4.4-20.3,7.1
				c-3.8,2.7-8.8,6.2-11.9,8.2s-14.3,8.4-11.3,14.6C81.4,388.3,88.8,375.8,94.1,371.7z"/>
			<path class="st10" d="M145.3,371.7c-9.4-7.2-11,10-14.9,17.3c-3.9,7.3-5.1,10.4-7.6,14.9c-2.5,4.5-9.5,14.1-3.8,16.5
				c5.4,2.3,8.3-6.8,11.4-12.5c3-5.7,7.2-11.6,9.2-16.2C141.4,387.1,150.1,375.4,145.3,371.7z"/>
			<path class="st10" d="M192.4,326.3c-0.2-0.8-1.3-7-6.1-10.9c-4.8-3.9-6.2-3.3-11.6-6.6c-5.5-3.3-6.7-8-13.5-11.3
				c-6.7-3.3-20.5-0.2-24.9,7.5c-3.7,6.6,0.8,15.7-1,20.5c-2,5.3-5.7,4.6-8.9,6.8c-4.4,2.9-10.6,16.8,9.1,29
				c2.5,1.5,6.7,1.5,10.1,3.5c2.9,1.7,4.6,5.5,6.8,6.5c4.8,2.4,9.9,0.8,12.4,0.2c11.6-2.9,18.8-17.9,22.9-27.8
				C190.3,337.4,194.2,333.5,192.4,326.3z M168.4,344.1c-0.1,0.2-0.2,0.3-0.3,0.5c-0.3,0.4-0.6,0.8-0.9,1.2c0,0,0,0,0,0
				c-2.1,2.1-5.4,2.6-8,1c-1.4-0.8-2.3-2.1-2.8-3.4l0,0c-0.2-0.5-0.9-3-0.9-3.1c-0.1,0.2-2.7,0.7-3.2,0.7c-1.5,0.2-3,0-4.3-0.9
				c-2.6-1.6-3.8-4.8-2.8-7.6c0.2-0.5,0.4-0.9,0.6-1.3c0.1-0.2,0.2-0.3,0.3-0.5c4.7-6.9,19.7-7.5,19.7-7.5S172.3,336.7,168.4,344.1z
				"/>
			<path class="st10" d="M160.3,377.2c-8.3-2.8-7.2,13.3-7.9,17.9s-0.8,2.3-1.7,7.3c-0.9,5-5.5,11.5,0,13.5
				c5.7,2.2,6.9-7.6,8.2-12.7c1.3-5.1,1.1-4.1,1.7-8.7C161.3,389.8,164.6,378.7,160.3,377.2z"/>
		</g>
		<g>
			<path class="st7" d="M269.8,358.6c2.3-1.9,3.6-5.9,6.5-8.4c2.6-2.2,6.7-2.6,8.4-4.3c3.8-3.7,4-9.1,4.2-11.7
				c1-11.9-10.8-23.6-18.9-30.7c-5.1-4.5-7.5-9.5-14.8-10.1c-0.8-0.1-7.1-1-12.3,2.2c-5.3,3.2-5.1,4.8-10,8.9s-9.8,3.8-15.1,9.1
				c-5.3,5.3-6.9,19.4-1,26c5.1,5.7,15.1,4.3,19.1,7.5c4.4,3.6,2.5,6.9,3.5,10.6C240.8,362.9,252,373.3,269.8,358.6z M245.8,340.2
				C245.8,340.2,245.8,340.2,245.8,340.2c-0.4-0.3-0.7-0.6-1.1-1c-0.1-0.2-0.2-0.3-0.4-0.5c-5-6.7-0.7-21.1-0.7-21.1
				s14.9-1.8,20.6,4.3c0.1,0.1,0.3,0.3,0.4,0.4c0.3,0.4,0.6,0.8,0.8,1.2c0,0,0,0,0,0c1.4,2.6,0.8,6-1.6,7.9c-1.2,1-2.7,1.5-4.2,1.5
				l0,0c-0.5,0-3.1-0.1-3.2-0.2c0.1,0.2-0.2,2.7-0.4,3.2c-0.3,1.4-1,2.8-2.2,3.8C251.5,341.9,248.1,341.9,245.8,340.2z"/>
			<path class="st7" d="M261.6,386.8c-1.4-4.3-2.4-18.2-7.8-17.8c-10.4,0.7-1.2,17.1,0.2,21.5c1.3,4.4,3,10.4,3.9,13.9
				s3.3,16.3,10.1,15.4c9.8-1.3,0.4-12.3-1.8-18.7S263.1,391.1,261.6,386.8z"/>
			<path class="st7" d="M214.6,343.6c-3.9-3-5.6-1.2-6.6,2c-1.4,4.4-2.2,11.2-6.7,17.9s-13,15-3.2,15.3c5.1,0.1,13.2-2.9,14.4-10.7
				C214.6,352.4,229,354.6,214.6,343.6z"/>
			<path class="st7" d="M317.2,349.9c-4.4-2.9-3.5-2.3-7.7-4.4c-4.2-2.1-13.7-8.8-16.5-5.2c-5.4,6.9,10.2,11.1,14.4,13.2
				c4.1,2.1,2,1.5,6.4,3.9s9.1,8.9,12.8,4.4C330.4,357.1,321.5,352.8,317.2,349.9z"/>
			<path class="st7" d="M283.5,381.2c-2.4-3.8-9-19.1-14.1-17.7c-11.5,3.2,3.2,17,6.8,23.1c3.6,6.1,6.4,12.8,9.7,17.6
				s8.1,18.2,14.2,13.2c5.4-4.5-3.9-14.3-6.1-18.7C291.7,394.3,285.8,385,283.5,381.2z"/>
			<path class="st7" d="M312.3,378.6c-4.4-4.7-8.6-10.6-12.4-13.9c-3.8-3.3-12-15.4-17-12c-9.9,6.6,5.9,13.7,11.5,19.7
				c5.6,6.1,8.1,8.2,11.6,12.1c3.5,3.8,10.2,13.6,14.4,8.9C324.3,389.1,316.7,383.3,312.3,378.6z"/>
		</g>
		<g>
			<path class="st8" d="M301.1,223.4c-1.3-3.1-0.5-7.1-1.6-9.3c-2.4-4.8-7.5-6.6-9.8-7.6c-11.1-4.6-25.7,3.2-34.9,8.7
				c-5.8,3.5-11.3,4.3-14.1,11.1c-0.3,0.7-3.1,6.4-1.6,12.4c1.5,6,3,6.3,5.4,12.2c2.4,5.9,0.6,10.5,4.1,17.1
				c3.4,6.6,16.4,12.4,24.5,8.8c7-3.1,8.7-13.1,13-15.9c4.7-3.1,7.4-0.3,11.2-0.1c5.3,0.3,18.5-7.2,9.9-28.7
				C306,229.5,302.6,227.1,301.1,223.4z M282.3,249.5C282.3,249.5,282.3,249.5,282.3,249.5c-0.4,0.3-0.8,0.5-1.3,0.7
				c-0.2,0.1-0.4,0.1-0.6,0.2c-7.9,2.7-20.3-5.7-20.3-5.7s2.8-14.7,10.4-18.3c0.2-0.1,0.4-0.2,0.5-0.3c0.5-0.2,0.9-0.3,1.4-0.4
				c2.9-0.5,5.9,1.1,7.1,3.9c0.6,1.5,0.6,3,0.2,4.4h0c-0.1,0.5-1,3-1.2,3c0.2-0.1,2.5,1.1,3,1.3c1.3,0.7,2.4,1.8,3,3.3
				C285.7,244.6,284.7,247.8,282.3,249.5z"/>
			<path class="st8" d="M313.6,194.9c3.3-3.3,2-1.4,5.7-4.9c3.7-3.4,11.2-6,8.1-10.8c-3.3-5.2-10,2-14.1,5.3c-4.1,3.3-3.3,2.6-6.6,6
				c-3.3,3.4-12.5,10.4-10,14.1C301.6,211.8,310.4,198.2,313.6,194.9z"/>
			<path class="st8" d="M298.7,289.8c-14.2-6.9-7.8-20-22.7-9.5c-4.1,2.8-2.9,5-0.1,6.9c3.8,2.7,10,5.5,15,11.9
				c5,6.3,10.4,16.9,13.6,7.7C306.2,302,305.8,293.3,298.7,289.8z"/>
			<path class="st8" d="M372.2,221.3c-2.6-6.5-14.8-0.6-19.7,0.1c-4.8,0.8-15.4,3.5-19.8,4.6c-4.4,1.1-21,2.7-21.1,8.1
				c-0.4,11.9,17.2,2.1,24.1,0.6c6.9-1.6,14.1-2.2,19.7-3.9C361,229.2,375.1,228.7,372.2,221.3z"/>
			<path class="st8" d="M342.8,205.6c4.7-2.2,16-5.6,12.9-11c-3-5-10.8,0.5-16.6,3.3c-5.8,2.7-12.7,5-17,7.6
				c-4.3,2.6-18.3,6.7-16.6,12.6c3.3,11.4,14.8-1.5,22.3-5C335.3,209.4,338.1,207.7,342.8,205.6z"/>
			<path class="st8" d="M346.6,248.4c-6.7,0.1-10.5,0.1-15.1,0.1c-4.6,0-18.1-3.2-19.3,2c-2.5,10.1,15.9,6.3,20.6,6.4
				c4.6,0.1,10.8,0.3,14.5,0.5c3.7,0.2,16.5,1.8,17.7-5C366.7,242.7,353.3,248.3,346.6,248.4z"/>
		</g>
		<g>
			<path class="st6" d="M172.1,157.1c8.4-2.5-1.8-15-3.9-19.1c-2.1-4.1-0.7-2.3-2.9-6.9c-2.1-4.6-2.2-12.5-7.8-11
				c-5.9,1.6-1.2,10.2,0.6,15.1c1.8,4.9,1.5,4,3.7,8.1C164.1,147.4,167.8,158.4,172.1,157.1z"/>
			<path class="st6" d="M180.8,133.2c1.1,4.9,0.7,19.5,6.8,19.7c11.9,0.4,3.2-14.6,2.2-22.8s-1.8-11.4-2.4-16.6
				c-0.6-5.2-0.4-17-6.5-15.7c-5.7,1.3-2.9,10.4-2.1,16.8C179.7,121,179.7,128.3,180.8,133.2z"/>
			<path class="st6" d="M204.9,152.1c11.2,4.1,7.4-15.7,8-22.7c0.7-7,2.3-14.1,2.5-19.9s4.1-19.5-3.8-19c-7,0.5-5.2,13.9-6,18.7
				c-0.8,4.8-1.5,15.7-1.8,20.2C203.5,134,199.9,150.3,204.9,152.1z"/>
			<path class="st6" d="M271.7,181.4c-4-3.1-12.4-5.4-17.9,0.3c-11,11.4-21.4,1.2-16.1,18.6c1.4,4.7,3.8,4.3,6.5,2.3
				c3.7-2.8,8.4-7.8,15.9-10.6C267.7,189.2,279.5,187.3,271.7,181.4z"/>
			<path class="st6" d="M220.6,156.7c8.9,5.5,10.9-13.2,12.4-17.6c1.5-4.4,3.6-10.2,5-13.6c1.3-3.5,6.9-15.1,0.8-18.4
				c-8.7-4.7-7.5,9.8-9.5,16.2c-1.9,6.4-3.2,10-4.6,14.4C223.4,142,216.1,153.8,220.6,156.7z"/>
			<path class="st6" d="M222.4,184.8c-1.5-5.4,2-7.1,3.4-10.7c1.9-4.9-1.1-19.8-24.2-18.4c-2.9,0.2-6.3,2.7-10.2,3
				c-3.4,0.3-6.9-1.8-9.3-1.4c-5.3,0.8-8.6,5-10.2,7c-7.8,9.1-5,25.4-2.6,35.9c1.5,6.6,0.6,12.1,6.2,16.9c0.6,0.5,5.1,5,11.3,5.4
				c6.2,0.4,6.9-0.9,13.3-1.4c6.4-0.5,10.1,2.7,17.5,1.5c7.4-1.2,16.9-11.7,16-20.5C232.7,194.5,223.8,189.8,222.4,184.8z
				 M198.9,204.4c0,0-13.1-7.3-14.2-15.6c0-0.2-0.1-0.4-0.1-0.6c0-0.5,0-1,0.1-1.5c0,0,0,0,0,0c0.4-2.9,2.9-5.3,5.9-5.5
				c1.6-0.1,3.1,0.3,4.3,1.2l0,0c0.4,0.3,2.5,1.9,2.5,2.1c0-0.2,1.8-2.1,2.2-2.4c1.1-1,2.5-1.7,4-1.8c3.1-0.2,5.8,1.7,6.7,4.6
				c0.1,0.5,0.2,0.9,0.3,1.5c0,0.2,0,0.4,0,0.6C210.8,195.2,198.9,204.4,198.9,204.4z"/>
		</g>
		<g>
			<path class="st9" d="M64.8,237.4c-8.1-1.6-11.4-1.9-16.5-2.9c-5.1-1.1-16.3-4.9-16.9,1.3c-0.6,5.8,9,6,15.3,7.2
				c6.3,1.2,13.2,3.5,18.2,4s18.7,5.4,20.8-0.3C89.8,235.5,72.9,239,64.8,237.4z"/>
			<path class="st9" d="M70.6,197.7c5.5,3.8,8.5,6.2,12.3,8.8c3.7,2.7,12.6,13.3,16.7,9.8c8-6.7-9.1-14.5-12.8-17.3
				c-3.7-2.8-8.5-6.6-11.4-9c-2.9-2.3-12.2-11.2-17.2-6.5C51,190.5,65.2,193.9,70.6,197.7z"/>
			<path class="st9" d="M146.4,213.8c5,0.1,5.2-2.3,4.2-5.5c-1.5-4.4-4.8-10.4-5.1-18.5s1.7-19.8-6.4-14.2c-4.2,2.9-9,10.1-5.3,17.1
				C141.2,206.7,128.2,213.4,146.4,213.8z"/>
			<path class="st9" d="M65.5,260.4c-4.6,0.7-2.5,0-7.5,0.6c-5,0.6-12.6-1.8-12.9,4c-0.4,6.1,9.3,4.3,14.5,4.1
				c5.2-0.2,4.2-0.2,8.9-1c4.6-0.8,16.3-0.9,16.4-5.4C85.2,253.9,70.1,259.7,65.5,260.4z"/>
			<path class="st9" d="M90.4,230c7.4-9.3-12.6-11.9-19-14.7s-12.7-6.6-18.2-8.6c-5.5-2-17.2-9.9-19.2-2.3
				c-1.8,6.8,11.6,9.3,15.9,11.5s14.5,6.3,18.7,8S87.1,234.2,90.4,230z"/>
			<path class="st9" d="M146.8,218.4c-7.4-1.6-14.8,5.4-19.9,5.1c-5.6-0.3-6.1-4.1-9.1-6.6c-4.1-3.3-19.2-5.1-25,17.2
				c-0.7,2.8,0.6,6.8-0.3,10.7c-0.8,3.3-3.8,6-4.2,8.4c-0.9,5.3,2.1,9.7,3.4,11.9c6.2,10.2,22.6,12.7,33.3,13.7
				c6.7,0.6,11.6,3.2,17.9-0.6c0.7-0.4,6.3-3.3,8.7-9.1c2.3-5.7,1.3-6.9,2.8-13.1c1.5-6.2,5.7-8.8,6.8-16.2S155.5,220.3,146.8,218.4
				z M118.9,260.5c-0.2,0-0.4-0.1-0.6-0.1c-0.5-0.1-1-0.3-1.4-0.5l0,0c-2.6-1.3-4.1-4.4-3.4-7.4c0.4-1.5,1.3-2.8,2.5-3.7v0
				c0.4-0.3,2.6-1.8,2.7-1.7c-0.2,0-1.4-2.4-1.6-2.8c-0.6-1.3-0.8-2.9-0.5-4.4c0.7-3,3.5-5,6.4-4.9h0c0.5,0,1,0.1,1.5,0.2
				c0.2,0,0.4,0.1,0.6,0.2c8,2.5,13,16.6,13,16.6S127.2,262.1,118.9,260.5z"/>
		</g>
	</g>
</g>
<g id="Warstwa_5" class="st0">
</g>
<g id="Warstwa_4">
</g>
<g id="Warstwa_3">
</g>
</svg>
