<svg id="Warstwa_1" data-name="Warstwa 1" xmlns="http://www.w3.org/2000/svg" viewBox="0 0 34.02 34.02">
  <title>onas_white</title>
  <g>
    <path d="M24.37,24.5h-15a.47.47,0,0,1-.45-.35,5,5,0,0,1,.57-3.22c.49-.92,1.64-1.13,2.75-1.34,1.35-.25,2-.44,2-1.07a2,2,0,0,0-.5-1.38c-.47-.67-1.06-1.5-1.06-4A4.28,4.28,0,0,1,13.84,10a4.54,4.54,0,0,1,6.06,0,4.28,4.28,0,0,1,1.18,3.19c0,2.49-.59,3.32-1.07,4a2,2,0,0,0-.49,1.38c0,.63.63.82,2,1.07,1.11.21,2.26.42,2.75,1.34a5,5,0,0,1,.57,3.22A.47.47,0,0,1,24.37,24.5ZM9.78,23.58H24a4.39,4.39,0,0,0-.52-2.22c-.28-.52-1.21-.7-2.11-.87-1.22-.22-2.73-.51-2.73-2a3,3,0,0,1,.66-1.92c.42-.59.9-1.26.9-3.45a3.39,3.39,0,0,0-.91-2.53,3.62,3.62,0,0,0-2.37-.9,3.67,3.67,0,0,0-2.4.91,3.36,3.36,0,0,0-.9,2.52c0,2.19.48,2.86.9,3.45a3,3,0,0,1,.66,1.92c0,1.46-1.51,1.75-2.73,2-.9.17-1.83.35-2.11.87A4.39,4.39,0,0,0,9.78,23.58Z" style="fill: #00a6ed"/>
    <path d="M8.54,22.17H6.88a.46.46,0,0,1-.45-.36,3.84,3.84,0,0,1,.45-2.55c.4-.75,1.35-.92,2.18-1.08,1.07-.2,1.44-.34,1.44-.72a1.42,1.42,0,0,0-.36-1,4.57,4.57,0,0,1-.84-3.13,3.4,3.4,0,0,1,.94-2.53,3.62,3.62,0,0,1,2.42-.92.46.46,0,1,1,0,.92,2.66,2.66,0,0,0-1.75.67,2.5,2.5,0,0,0-.66,1.86,3.73,3.73,0,0,0,.67,2.6,2.31,2.31,0,0,1,.53,1.53c0,1.22-1.21,1.44-2.19,1.63-.66.12-1.35.25-1.54.61a3.28,3.28,0,0,0-.4,1.55H8.54a.46.46,0,0,1,.46.46A.47.47,0,0,1,8.54,22.17Z" style="fill: #00a6ed"/>
    <path d="M27.14,22.17H25.48a.46.46,0,0,1-.46-.46.45.45,0,0,1,.46-.46h1.24a3.13,3.13,0,0,0-.39-1.55c-.2-.36-.88-.49-1.55-.61-1-.19-2.19-.41-2.19-1.63a2.31,2.31,0,0,1,.53-1.53,3.68,3.68,0,0,0,.67-2.6,2.54,2.54,0,0,0-.65-1.86,2.73,2.73,0,0,0-1.76-.67.46.46,0,1,1,0-.92,3.62,3.62,0,0,1,2.41.92,3.37,3.37,0,0,1,.95,2.53,4.57,4.57,0,0,1-.84,3.13,1.43,1.43,0,0,0-.37,1c0,.38.38.52,1.44.72.84.16,1.79.33,2.19,1.08a3.91,3.91,0,0,1,.45,2.55A.47.47,0,0,1,27.14,22.17Z" style="fill: #00a6ed"/>
  </g>
</svg>
