<svg xmlns="http://www.w3.org/2000/svg" viewBox="0 0 41.36 39.79"><defs><style>.cls-1{fill:#ffb400;}</style></defs><title>pilka</title><g id="Warstwa_1" data-name="Warstwa 1"><path class="cls-1" d="M20.68,29.85A10.17,10.17,0,1,1,30.85,19.68,10.18,10.18,0,0,1,20.68,29.85Zm0-19.33a9.17,9.17,0,1,0,9.17,9.16A9.17,9.17,0,0,0,20.68,10.52Z"/><path class="cls-1" d="M22.93,20.6a3.93,3.93,0,1,1,3.92-3.93A3.93,3.93,0,0,1,22.93,20.6Zm0-6.85a2.93,2.93,0,1,0,2.92,2.92A2.93,2.93,0,0,0,22.93,13.75Z"/><path class="cls-1" d="M26,15.27a.51.51,0,0,1-.45-.29.5.5,0,0,1,.24-.67c.06,0,1.48-.68,2.46-1a.5.5,0,1,1,.29,1,22.78,22.78,0,0,0-2.32.93A.54.54,0,0,1,26,15.27Z"/><path class="cls-1" d="M23.68,13.83a.51.51,0,0,1-.5-.48L23,10.47a.5.5,0,0,1,1-.05l.14,2.89a.5.5,0,0,1-.47.52Z"/><path class="cls-1" d="M12.94,25.93a.51.51,0,0,1-.42-.23.49.49,0,0,1,.15-.69,61.48,61.48,0,0,0,7.5-6.22.5.5,0,0,1,.74.67,61.61,61.61,0,0,1-7.7,6.39A.53.53,0,0,1,12.94,25.93Z"/><path class="cls-1" d="M20.17,15.14a.4.4,0,0,1-.15,0,12.88,12.88,0,0,1-1.28-.51c-1.39-.59-3.3-1.41-4.84-1.25a.51.51,0,0,1-.55-.45.5.5,0,0,1,.45-.55c1.79-.19,3.84.7,5.34,1.34.46.2.87.37,1.19.47a.5.5,0,0,1-.16,1Z"/><path class="cls-1" d="M23.11,29.54a.5.5,0,0,1-.5-.5c0-.27,0-.61,0-1a41.09,41.09,0,0,1,.45-8,.49.49,0,0,1,.58-.4.5.5,0,0,1,.4.58A40.33,40.33,0,0,0,23.6,28c0,.4,0,.74,0,1A.5.5,0,0,1,23.11,29.54Z"/><path class="cls-1" d="M30.22,21.74a.49.49,0,0,1-.42-.23,9.22,9.22,0,0,0-3.64-3.07l.44-.9-.24.44.28-.42a10.25,10.25,0,0,1,4,3.41.5.5,0,0,1-.15.69A.45.45,0,0,1,30.22,21.74Z"/></g></svg>