<svg xmlns="http://www.w3.org/2000/svg" viewBox="0 0 41.36 39.79"><defs><style>.cls-1{fill:none;stroke:#ffb400;stroke-linecap:round;stroke-linejoin:round;}</style></defs><title>serce</title><g id="Warstwa_3" data-name="Warstwa 3"><path class="cls-1" d="M29.21,16.63h0a4.32,4.32,0,0,0-6.94-2.4,11.33,11.33,0,0,0-1.56,1.47h0a12.35,12.35,0,0,0-1.54-1.49h0a4.31,4.31,0,0,0-7,2.28h0a5.15,5.15,0,0,0-.12,1c0,.13,0,.26,0,.39.27,5.54,8.5,11,8.5,11S28.93,23.53,29.29,18c0-.13,0-.26,0-.39A4.43,4.43,0,0,0,29.21,16.63Z"/></g></svg>