<svg xmlns="http://www.w3.org/2000/svg" viewBox="0 0 41.36 39.79"><defs><style>.cls-1{fill:none;stroke:#ffb400;stroke-linecap:round;stroke-miterlimit:10;}</style></defs><title>slonce</title><g id="Warstwa_3" data-name="Warstwa 3"><path class="cls-1" d="M20.68,11.93c1.28,0,2.6-2.47,2.6-2.47s-.09,2.8,1,3.44,3.48-.84,3.48-.84-1.47,2.38-.83,3.49,3.43,1,3.43,1-2.46,1.32-2.46,2.6,2.46,2.6,2.46,2.6-2.79-.09-3.43,1,.83,3.49.83,3.49-2.38-1.48-3.49-.83-1,3.43-1,3.43-1.32-2.46-2.6-2.46-2.6,2.46-2.6,2.46.09-2.79-1-3.43-3.49.83-3.49.83,1.48-2.38.84-3.49-3.44-1-3.44-1,2.47-1.32,2.47-2.6S11,16.57,11,16.57s2.8.09,3.44-1-.84-3.49-.84-3.49,2.38,1.48,3.49.84,1-3.44,1-3.44S19.4,11.93,20.68,11.93Zm0,2.52a4.73,4.73,0,1,0,4.73,4.72A4.72,4.72,0,0,0,20.68,14.45Z"/></g></svg>