<svg xmlns="http://www.w3.org/2000/svg" viewBox="0 0 41.36 39.79"><defs><style>.cls-1{fill:#ffb400;}</style></defs><title>sniezka</title><g id="Warstwa_3" data-name="Warstwa 3"><path class="cls-1" d="M20.68,23.5a.43.43,0,0,1-.25-.07L17.8,21.92a.52.52,0,0,1-.25-.44v-3A.52.52,0,0,1,17.8,18l2.63-1.51a.5.5,0,0,1,.5,0L23.55,18a.52.52,0,0,1,.25.44v3a.52.52,0,0,1-.25.44l-2.62,1.51A.47.47,0,0,1,20.68,23.5Zm-2.13-2.3,2.13,1.22L22.8,21.2V18.75l-2.12-1.23-2.13,1.23Zm4.75.28h0Z"/><path class="cls-1" d="M20.68,14.16a.5.5,0,0,1-.29-.09L17.9,12.31a.5.5,0,0,1,.57-.81l2.21,1.55,2.2-1.55a.5.5,0,1,1,.58.81L21,14.07A.47.47,0,0,1,20.68,14.16Z"/><path class="cls-1" d="M12.58,18.16a.5.5,0,0,1-.47-.31.5.5,0,0,1,.28-.65l2.49-1-.14-2.69a.5.5,0,0,1,.47-.53.47.47,0,0,1,.53.47l.15,3a.51.51,0,0,1-.3.49l-2.82,1.17A.63.63,0,0,1,12.58,18.16Z"/><path class="cls-1" d="M18.17,18.75a.53.53,0,0,1-.27-.08l-6.06-3.83a.49.49,0,0,1-.16-.69.51.51,0,0,1,.69-.16l6.07,3.84a.5.5,0,0,1,.15.69A.51.51,0,0,1,18.17,18.75Z"/><path class="cls-1" d="M15,26.66h0a.5.5,0,0,1-.45-.54l.25-2.69-2.44-1.13a.52.52,0,0,1-.25-.67.5.5,0,0,1,.67-.24l2.76,1.29a.48.48,0,0,1,.29.5l-.28,3A.51.51,0,0,1,15,26.66Z"/><path class="cls-1" d="M11.86,25.56a.52.52,0,0,1-.44-.25.52.52,0,0,1,.19-.69l6.22-3.57a.5.5,0,0,1,.5.87l-6.22,3.57A.47.47,0,0,1,11.86,25.56Z"/><path class="cls-1" d="M23.17,28.54a.52.52,0,0,1-.29-.09l-2.2-1.56-2.21,1.56a.5.5,0,0,1-.57-.82l2.49-1.76a.51.51,0,0,1,.58,0l2.49,1.76a.51.51,0,0,1,.12.7A.52.52,0,0,1,23.17,28.54Z"/><path class="cls-1" d="M20.68,30.67a.5.5,0,0,1-.5-.5V23a.5.5,0,0,1,.5-.5.5.5,0,0,1,.5.5v7.17A.5.5,0,0,1,20.68,30.67Z"/><path class="cls-1" d="M28.91,18.59a.52.52,0,0,1-.21,0l-2.77-1.28a.51.51,0,0,1-.29-.5l.27-3a.54.54,0,0,1,.55-.45.49.49,0,0,1,.45.54l-.24,2.69,2.45,1.13a.5.5,0,0,1-.21.95Z"/><path class="cls-1" d="M23.3,19a.51.51,0,0,1-.44-.25.52.52,0,0,1,.19-.69l6.21-3.59a.5.5,0,0,1,.68.19.49.49,0,0,1-.18.68l-6.21,3.59A.59.59,0,0,1,23.3,19Z"/><path class="cls-1" d="M26.24,26.78a.5.5,0,0,1-.5-.48l-.16-3a.49.49,0,0,1,.3-.49L28.7,21.6a.5.5,0,1,1,.38.92l-2.49,1,.14,2.69a.5.5,0,0,1-.47.53Z"/><path class="cls-1" d="M29.37,25.8a.54.54,0,0,1-.27-.07L23,21.91a.5.5,0,0,1-.15-.69.48.48,0,0,1,.68-.16l6.08,3.82a.5.5,0,0,1,.15.69A.48.48,0,0,1,29.37,25.8Z"/><path class="cls-1" d="M20.68,17.44a.5.5,0,0,1-.5-.5V9.77a.5.5,0,0,1,.5-.5.5.5,0,0,1,.5.5v7.17A.5.5,0,0,1,20.68,17.44Z"/></g></svg>